ISO-10303-21;
HEADER;
/* Generated by software containing ST-Developer
 * from STEP Tools, Inc. (www.steptools.com) 
 */

FILE_DESCRIPTION(
/* description */ (''),
/* implementation_level */ '2;1');

FILE_NAME(
/* name */ 'Cilindros_CV14.step',
/* time_stamp */ '2026-03-17T10:47:26-04:00',
/* author */ (''),
/* organization */ (''),
/* preprocessor_version */ 'ST-DEVELOPER v20.1',
/* originating_system */ 'Autodesk Translation Framework v14.24.0.0',
/* authorisation */ '');

FILE_SCHEMA (('AUTOMOTIVE_DESIGN { 1 0 10303 214 3 1 1 }'));
ENDSEC;

DATA;
#10=MECHANICAL_DESIGN_GEOMETRIC_PRESENTATION_REPRESENTATION('',(#13),#571);
#11=SHAPE_REPRESENTATION_RELATIONSHIP('SRR','None',#578,#12);
#12=ADVANCED_BREP_SHAPE_REPRESENTATION('',(#319),#570);
#13=STYLED_ITEM('',(#587),#319);
#14=ELLIPSE('',#354,0.67514551884658,0.25);
#15=ELLIPSE('',#355,0.270148607487334,0.25);
#16=ELLIPSE('',#356,0.67514551884658,0.25);
#17=ORIENTED_CLOSED_SHELL('',*,#313,.F.);
#18=ORIENTED_CLOSED_SHELL('',*,#314,.F.);
#19=ORIENTED_CLOSED_SHELL('',*,#315,.F.);
#20=ORIENTED_CLOSED_SHELL('',*,#316,.F.);
#21=ORIENTED_CLOSED_SHELL('',*,#317,.F.);
#22=ORIENTED_CLOSED_SHELL('',*,#318,.F.);
#23=CIRCLE('',#340,0.5);
#24=CIRCLE('',#341,0.5);
#25=CIRCLE('',#345,0.5);
#26=CIRCLE('',#346,0.5);
#27=CIRCLE('',#350,0.25);
#28=CIRCLE('',#351,0.25);
#29=CIRCLE('',#353,0.25);
#30=CIRCLE('',#361,0.5);
#31=CIRCLE('',#363,0.5);
#32=CIRCLE('',#366,0.25);
#33=CIRCLE('',#368,0.25);
#34=CIRCLE('',#371,0.5);
#35=CIRCLE('',#373,0.5);
#36=CYLINDRICAL_SURFACE('',#339,0.5);
#37=CYLINDRICAL_SURFACE('',#344,0.5);
#38=CYLINDRICAL_SURFACE('',#352,0.25);
#39=CYLINDRICAL_SURFACE('',#364,0.5);
#40=CYLINDRICAL_SURFACE('',#369,0.25);
#41=CYLINDRICAL_SURFACE('',#374,0.5);
#42=FACE_OUTER_BOUND('',#68,.T.);
#43=FACE_OUTER_BOUND('',#69,.T.);
#44=FACE_OUTER_BOUND('',#70,.T.);
#45=FACE_OUTER_BOUND('',#71,.T.);
#46=FACE_OUTER_BOUND('',#72,.T.);
#47=FACE_OUTER_BOUND('',#73,.T.);
#48=FACE_OUTER_BOUND('',#74,.T.);
#49=FACE_OUTER_BOUND('',#75,.T.);
#50=FACE_OUTER_BOUND('',#76,.T.);
#51=FACE_OUTER_BOUND('',#77,.T.);
#52=FACE_OUTER_BOUND('',#78,.T.);
#53=FACE_OUTER_BOUND('',#79,.T.);
#54=FACE_OUTER_BOUND('',#80,.T.);
#55=FACE_OUTER_BOUND('',#81,.T.);
#56=FACE_OUTER_BOUND('',#82,.T.);
#57=FACE_OUTER_BOUND('',#83,.T.);
#58=FACE_OUTER_BOUND('',#84,.T.);
#59=FACE_OUTER_BOUND('',#85,.T.);
#60=FACE_OUTER_BOUND('',#86,.T.);
#61=FACE_OUTER_BOUND('',#87,.T.);
#62=FACE_OUTER_BOUND('',#88,.T.);
#63=FACE_OUTER_BOUND('',#89,.T.);
#64=FACE_OUTER_BOUND('',#90,.T.);
#65=FACE_OUTER_BOUND('',#91,.T.);
#66=FACE_OUTER_BOUND('',#92,.T.);
#67=FACE_OUTER_BOUND('',#93,.T.);
#68=EDGE_LOOP('',(#194,#195,#196,#197));
#69=EDGE_LOOP('',(#198,#199,#200,#201));
#70=EDGE_LOOP('',(#202,#203,#204,#205));
#71=EDGE_LOOP('',(#206,#207,#208,#209));
#72=EDGE_LOOP('',(#210,#211,#212,#213));
#73=EDGE_LOOP('',(#214,#215,#216,#217));
#74=EDGE_LOOP('',(#218,#219,#220,#221));
#75=EDGE_LOOP('',(#222));
#76=EDGE_LOOP('',(#223));
#77=EDGE_LOOP('',(#224,#225,#226,#227));
#78=EDGE_LOOP('',(#228));
#79=EDGE_LOOP('',(#229));
#80=EDGE_LOOP('',(#230,#231,#232));
#81=EDGE_LOOP('',(#233,#234,#235,#236,#237,#238,#239,#240));
#82=EDGE_LOOP('',(#241));
#83=EDGE_LOOP('',(#242,#243,#244,#245));
#84=EDGE_LOOP('',(#246,#247));
#85=EDGE_LOOP('',(#248));
#86=EDGE_LOOP('',(#249));
#87=EDGE_LOOP('',(#250,#251,#252,#253));
#88=EDGE_LOOP('',(#254));
#89=EDGE_LOOP('',(#255));
#90=EDGE_LOOP('',(#256,#257,#258,#259));
#91=EDGE_LOOP('',(#260));
#92=EDGE_LOOP('',(#261));
#93=EDGE_LOOP('',(#262,#263,#264,#265));
#94=LINE('',#485,#114);
#95=LINE('',#487,#115);
#96=LINE('',#489,#116);
#97=LINE('',#490,#117);
#98=LINE('',#493,#118);
#99=LINE('',#495,#119);
#100=LINE('',#496,#120);
#101=LINE('',#499,#121);
#102=LINE('',#500,#122);
#103=LINE('',#503,#123);
#104=LINE('',#504,#124);
#105=LINE('',#506,#125);
#106=LINE('',#512,#126);
#107=LINE('',#520,#127);
#108=LINE('',#527,#128);
#109=LINE('',#534,#129);
#110=LINE('',#542,#130);
#111=LINE('',#551,#131);
#112=LINE('',#559,#132);
#113=LINE('',#567,#133);
#114=VECTOR('',#379,10.);
#115=VECTOR('',#380,10.);
#116=VECTOR('',#381,10.);
#117=VECTOR('',#382,10.);
#118=VECTOR('',#385,10.);
#119=VECTOR('',#386,10.);
#120=VECTOR('',#387,10.);
#121=VECTOR('',#390,10.);
#122=VECTOR('',#391,10.);
#123=VECTOR('',#394,10.);
#124=VECTOR('',#395,10.);
#125=VECTOR('',#398,10.);
#126=VECTOR('',#405,0.5);
#127=VECTOR('',#416,0.5);
#128=VECTOR('',#425,10.);
#129=VECTOR('',#434,0.25);
#130=VECTOR('',#445,10.);
#131=VECTOR('',#458,0.5);
#132=VECTOR('',#469,0.25);
#133=VECTOR('',#480,0.5);
#134=VERTEX_POINT('',#483);
#135=VERTEX_POINT('',#484);
#136=VERTEX_POINT('',#486);
#137=VERTEX_POINT('',#488);
#138=VERTEX_POINT('',#492);
#139=VERTEX_POINT('',#494);
#140=VERTEX_POINT('',#498);
#141=VERTEX_POINT('',#502);
#142=VERTEX_POINT('',#509);
#143=VERTEX_POINT('',#511);
#144=VERTEX_POINT('',#517);
#145=VERTEX_POINT('',#519);
#146=VERTEX_POINT('',#525);
#147=VERTEX_POINT('',#526);
#148=VERTEX_POINT('',#528);
#149=VERTEX_POINT('',#532);
#150=VERTEX_POINT('',#535);
#151=VERTEX_POINT('',#537);
#152=VERTEX_POINT('',#545);
#153=VERTEX_POINT('',#548);
#154=VERTEX_POINT('',#553);
#155=VERTEX_POINT('',#556);
#156=VERTEX_POINT('',#561);
#157=VERTEX_POINT('',#564);
#158=EDGE_CURVE('',#134,#135,#94,.T.);
#159=EDGE_CURVE('',#135,#136,#95,.T.);
#160=EDGE_CURVE('',#136,#137,#96,.T.);
#161=EDGE_CURVE('',#137,#134,#97,.T.);
#162=EDGE_CURVE('',#138,#135,#98,.T.);
#163=EDGE_CURVE('',#139,#138,#99,.T.);
#164=EDGE_CURVE('',#136,#139,#100,.T.);
#165=EDGE_CURVE('',#140,#139,#101,.T.);
#166=EDGE_CURVE('',#137,#140,#102,.T.);
#167=EDGE_CURVE('',#141,#140,#103,.T.);
#168=EDGE_CURVE('',#134,#141,#104,.T.);
#169=EDGE_CURVE('',#138,#141,#105,.T.);
#170=EDGE_CURVE('',#142,#142,#23,.T.);
#171=EDGE_CURVE('',#142,#143,#106,.T.);
#172=EDGE_CURVE('',#143,#143,#24,.T.);
#173=EDGE_CURVE('',#144,#144,#25,.T.);
#174=EDGE_CURVE('',#144,#145,#107,.T.);
#175=EDGE_CURVE('',#145,#145,#26,.T.);
#176=EDGE_CURVE('',#146,#147,#108,.T.);
#177=EDGE_CURVE('',#148,#146,#27,.T.);
#178=EDGE_CURVE('',#147,#148,#28,.T.);
#179=EDGE_CURVE('',#149,#149,#29,.T.);
#180=EDGE_CURVE('',#149,#148,#109,.T.);
#181=EDGE_CURVE('',#150,#146,#14,.T.);
#182=EDGE_CURVE('',#151,#150,#15,.T.);
#183=EDGE_CURVE('',#147,#151,#16,.T.);
#184=EDGE_CURVE('',#151,#150,#110,.T.);
#185=EDGE_CURVE('',#152,#152,#30,.T.);
#186=EDGE_CURVE('',#153,#153,#31,.T.);
#187=EDGE_CURVE('',#153,#152,#111,.T.);
#188=EDGE_CURVE('',#154,#154,#32,.T.);
#189=EDGE_CURVE('',#155,#155,#33,.T.);
#190=EDGE_CURVE('',#155,#154,#112,.T.);
#191=EDGE_CURVE('',#156,#156,#34,.T.);
#192=EDGE_CURVE('',#157,#157,#35,.T.);
#193=EDGE_CURVE('',#157,#156,#113,.T.);
#194=ORIENTED_EDGE('',*,*,#158,.T.);
#195=ORIENTED_EDGE('',*,*,#159,.T.);
#196=ORIENTED_EDGE('',*,*,#160,.T.);
#197=ORIENTED_EDGE('',*,*,#161,.T.);
#198=ORIENTED_EDGE('',*,*,#162,.F.);
#199=ORIENTED_EDGE('',*,*,#163,.F.);
#200=ORIENTED_EDGE('',*,*,#164,.F.);
#201=ORIENTED_EDGE('',*,*,#159,.F.);
#202=ORIENTED_EDGE('',*,*,#164,.T.);
#203=ORIENTED_EDGE('',*,*,#165,.F.);
#204=ORIENTED_EDGE('',*,*,#166,.F.);
#205=ORIENTED_EDGE('',*,*,#160,.F.);
#206=ORIENTED_EDGE('',*,*,#166,.T.);
#207=ORIENTED_EDGE('',*,*,#167,.F.);
#208=ORIENTED_EDGE('',*,*,#168,.F.);
#209=ORIENTED_EDGE('',*,*,#161,.F.);
#210=ORIENTED_EDGE('',*,*,#168,.T.);
#211=ORIENTED_EDGE('',*,*,#169,.F.);
#212=ORIENTED_EDGE('',*,*,#162,.T.);
#213=ORIENTED_EDGE('',*,*,#158,.F.);
#214=ORIENTED_EDGE('',*,*,#169,.T.);
#215=ORIENTED_EDGE('',*,*,#167,.T.);
#216=ORIENTED_EDGE('',*,*,#165,.T.);
#217=ORIENTED_EDGE('',*,*,#163,.T.);
#218=ORIENTED_EDGE('',*,*,#170,.F.);
#219=ORIENTED_EDGE('',*,*,#171,.T.);
#220=ORIENTED_EDGE('',*,*,#172,.T.);
#221=ORIENTED_EDGE('',*,*,#171,.F.);
#222=ORIENTED_EDGE('',*,*,#170,.T.);
#223=ORIENTED_EDGE('',*,*,#172,.F.);
#224=ORIENTED_EDGE('',*,*,#173,.F.);
#225=ORIENTED_EDGE('',*,*,#174,.T.);
#226=ORIENTED_EDGE('',*,*,#175,.T.);
#227=ORIENTED_EDGE('',*,*,#174,.F.);
#228=ORIENTED_EDGE('',*,*,#173,.T.);
#229=ORIENTED_EDGE('',*,*,#175,.F.);
#230=ORIENTED_EDGE('',*,*,#176,.F.);
#231=ORIENTED_EDGE('',*,*,#177,.F.);
#232=ORIENTED_EDGE('',*,*,#178,.F.);
#233=ORIENTED_EDGE('',*,*,#179,.F.);
#234=ORIENTED_EDGE('',*,*,#180,.T.);
#235=ORIENTED_EDGE('',*,*,#177,.T.);
#236=ORIENTED_EDGE('',*,*,#181,.F.);
#237=ORIENTED_EDGE('',*,*,#182,.F.);
#238=ORIENTED_EDGE('',*,*,#183,.F.);
#239=ORIENTED_EDGE('',*,*,#178,.T.);
#240=ORIENTED_EDGE('',*,*,#180,.F.);
#241=ORIENTED_EDGE('',*,*,#179,.T.);
#242=ORIENTED_EDGE('',*,*,#181,.T.);
#243=ORIENTED_EDGE('',*,*,#176,.T.);
#244=ORIENTED_EDGE('',*,*,#183,.T.);
#245=ORIENTED_EDGE('',*,*,#184,.T.);
#246=ORIENTED_EDGE('',*,*,#184,.F.);
#247=ORIENTED_EDGE('',*,*,#182,.T.);
#248=ORIENTED_EDGE('',*,*,#185,.F.);
#249=ORIENTED_EDGE('',*,*,#186,.T.);
#250=ORIENTED_EDGE('',*,*,#186,.F.);
#251=ORIENTED_EDGE('',*,*,#187,.T.);
#252=ORIENTED_EDGE('',*,*,#185,.T.);
#253=ORIENTED_EDGE('',*,*,#187,.F.);
#254=ORIENTED_EDGE('',*,*,#188,.F.);
#255=ORIENTED_EDGE('',*,*,#189,.T.);
#256=ORIENTED_EDGE('',*,*,#189,.F.);
#257=ORIENTED_EDGE('',*,*,#190,.T.);
#258=ORIENTED_EDGE('',*,*,#188,.T.);
#259=ORIENTED_EDGE('',*,*,#190,.F.);
#260=ORIENTED_EDGE('',*,*,#191,.F.);
#261=ORIENTED_EDGE('',*,*,#192,.T.);
#262=ORIENTED_EDGE('',*,*,#192,.F.);
#263=ORIENTED_EDGE('',*,*,#193,.T.);
#264=ORIENTED_EDGE('',*,*,#191,.T.);
#265=ORIENTED_EDGE('',*,*,#193,.F.);
#266=PLANE('',#333);
#267=PLANE('',#334);
#268=PLANE('',#335);
#269=PLANE('',#336);
#270=PLANE('',#337);
#271=PLANE('',#338);
#272=PLANE('',#342);
#273=PLANE('',#343);
#274=PLANE('',#347);
#275=PLANE('',#348);
#276=PLANE('',#349);
#277=PLANE('',#357);
#278=PLANE('',#358);
#279=PLANE('',#359);
#280=PLANE('',#360);
#281=PLANE('',#362);
#282=PLANE('',#365);
#283=PLANE('',#367);
#284=PLANE('',#370);
#285=PLANE('',#372);
#286=ADVANCED_FACE('',(#42),#266,.T.);
#287=ADVANCED_FACE('',(#43),#267,.T.);
#288=ADVANCED_FACE('',(#44),#268,.T.);
#289=ADVANCED_FACE('',(#45),#269,.T.);
#290=ADVANCED_FACE('',(#46),#270,.T.);
#291=ADVANCED_FACE('',(#47),#271,.T.);
#292=ADVANCED_FACE('',(#48),#36,.F.);
#293=ADVANCED_FACE('',(#49),#272,.F.);
#294=ADVANCED_FACE('',(#50),#273,.F.);
#295=ADVANCED_FACE('',(#51),#37,.F.);
#296=ADVANCED_FACE('',(#52),#274,.F.);
#297=ADVANCED_FACE('',(#53),#275,.F.);
#298=ADVANCED_FACE('',(#54),#276,.F.);
#299=ADVANCED_FACE('',(#55),#38,.F.);
#300=ADVANCED_FACE('',(#56),#277,.F.);
#301=ADVANCED_FACE('',(#57),#278,.T.);
#302=ADVANCED_FACE('',(#58),#279,.T.);
#303=ADVANCED_FACE('',(#59),#280,.F.);
#304=ADVANCED_FACE('',(#60),#281,.F.);
#305=ADVANCED_FACE('',(#61),#39,.F.);
#306=ADVANCED_FACE('',(#62),#282,.F.);
#307=ADVANCED_FACE('',(#63),#283,.F.);
#308=ADVANCED_FACE('',(#64),#40,.F.);
#309=ADVANCED_FACE('',(#65),#284,.F.);
#310=ADVANCED_FACE('',(#66),#285,.F.);
#311=ADVANCED_FACE('',(#67),#41,.F.);
#312=CLOSED_SHELL('',(#286,#287,#288,#289,#290,#291));
#313=CLOSED_SHELL('',(#292,#293,#294));
#314=CLOSED_SHELL('',(#295,#296,#297));
#315=CLOSED_SHELL('',(#298,#299,#300,#301,#302));
#316=CLOSED_SHELL('',(#303,#304,#305));
#317=CLOSED_SHELL('',(#306,#307,#308));
#318=CLOSED_SHELL('',(#309,#310,#311));
#319=BREP_WITH_VOIDS('Body1',#312,(#17,#18,#19,#20,#21,#22));
#320=DERIVED_UNIT_ELEMENT(#322,1.);
#321=DERIVED_UNIT_ELEMENT(#573,-3.);
#322=(
MASS_UNIT()
NAMED_UNIT(*)
SI_UNIT(.KILO.,.GRAM.)
);
#323=DERIVED_UNIT((#320,#321));
#324=MEASURE_REPRESENTATION_ITEM('density measure',
POSITIVE_RATIO_MEASURE(7850.),#323);
#325=PROPERTY_DEFINITION_REPRESENTATION(#330,#327);
#326=PROPERTY_DEFINITION_REPRESENTATION(#331,#328);
#327=REPRESENTATION('material name',(#329),#570);
#328=REPRESENTATION('density',(#324),#570);
#329=DESCRIPTIVE_REPRESENTATION_ITEM('Steel','Steel');
#330=PROPERTY_DEFINITION('material property','material name',#580);
#331=PROPERTY_DEFINITION('material property','density of part',#580);
#332=AXIS2_PLACEMENT_3D('',#481,#375,#376);
#333=AXIS2_PLACEMENT_3D('',#482,#377,#378);
#334=AXIS2_PLACEMENT_3D('',#491,#383,#384);
#335=AXIS2_PLACEMENT_3D('',#497,#388,#389);
#336=AXIS2_PLACEMENT_3D('',#501,#392,#393);
#337=AXIS2_PLACEMENT_3D('',#505,#396,#397);
#338=AXIS2_PLACEMENT_3D('',#507,#399,#400);
#339=AXIS2_PLACEMENT_3D('',#508,#401,#402);
#340=AXIS2_PLACEMENT_3D('',#510,#403,#404);
#341=AXIS2_PLACEMENT_3D('',#513,#406,#407);
#342=AXIS2_PLACEMENT_3D('',#514,#408,#409);
#343=AXIS2_PLACEMENT_3D('',#515,#410,#411);
#344=AXIS2_PLACEMENT_3D('',#516,#412,#413);
#345=AXIS2_PLACEMENT_3D('',#518,#414,#415);
#346=AXIS2_PLACEMENT_3D('',#521,#417,#418);
#347=AXIS2_PLACEMENT_3D('',#522,#419,#420);
#348=AXIS2_PLACEMENT_3D('',#523,#421,#422);
#349=AXIS2_PLACEMENT_3D('',#524,#423,#424);
#350=AXIS2_PLACEMENT_3D('',#529,#426,#427);
#351=AXIS2_PLACEMENT_3D('',#530,#428,#429);
#352=AXIS2_PLACEMENT_3D('',#531,#430,#431);
#353=AXIS2_PLACEMENT_3D('',#533,#432,#433);
#354=AXIS2_PLACEMENT_3D('',#536,#435,#436);
#355=AXIS2_PLACEMENT_3D('',#538,#437,#438);
#356=AXIS2_PLACEMENT_3D('',#539,#439,#440);
#357=AXIS2_PLACEMENT_3D('',#540,#441,#442);
#358=AXIS2_PLACEMENT_3D('',#541,#443,#444);
#359=AXIS2_PLACEMENT_3D('',#543,#446,#447);
#360=AXIS2_PLACEMENT_3D('',#544,#448,#449);
#361=AXIS2_PLACEMENT_3D('',#546,#450,#451);
#362=AXIS2_PLACEMENT_3D('',#547,#452,#453);
#363=AXIS2_PLACEMENT_3D('',#549,#454,#455);
#364=AXIS2_PLACEMENT_3D('',#550,#456,#457);
#365=AXIS2_PLACEMENT_3D('',#552,#459,#460);
#366=AXIS2_PLACEMENT_3D('',#554,#461,#462);
#367=AXIS2_PLACEMENT_3D('',#555,#463,#464);
#368=AXIS2_PLACEMENT_3D('',#557,#465,#466);
#369=AXIS2_PLACEMENT_3D('',#558,#467,#468);
#370=AXIS2_PLACEMENT_3D('',#560,#470,#471);
#371=AXIS2_PLACEMENT_3D('',#562,#472,#473);
#372=AXIS2_PLACEMENT_3D('',#563,#474,#475);
#373=AXIS2_PLACEMENT_3D('',#565,#476,#477);
#374=AXIS2_PLACEMENT_3D('',#566,#478,#479);
#375=DIRECTION('axis',(0.,0.,1.));
#376=DIRECTION('refdir',(1.,0.,0.));
#377=DIRECTION('center_axis',(0.,0.,-1.));
#378=DIRECTION('ref_axis',(-1.,0.,0.));
#379=DIRECTION('',(-1.,0.,0.));
#380=DIRECTION('',(0.,1.,0.));
#381=DIRECTION('',(1.,0.,0.));
#382=DIRECTION('',(0.,-1.,0.));
#383=DIRECTION('center_axis',(-1.,0.,0.));
#384=DIRECTION('ref_axis',(0.,-1.,0.));
#385=DIRECTION('',(0.,0.,-1.));
#386=DIRECTION('',(0.,-1.,0.));
#387=DIRECTION('',(0.,0.,1.));
#388=DIRECTION('center_axis',(0.,1.,0.));
#389=DIRECTION('ref_axis',(-1.,0.,0.));
#390=DIRECTION('',(-1.,0.,0.));
#391=DIRECTION('',(0.,0.,1.));
#392=DIRECTION('center_axis',(1.,0.,0.));
#393=DIRECTION('ref_axis',(0.,1.,0.));
#394=DIRECTION('',(0.,1.,0.));
#395=DIRECTION('',(0.,0.,1.));
#396=DIRECTION('center_axis',(0.,-1.,0.));
#397=DIRECTION('ref_axis',(1.,0.,0.));
#398=DIRECTION('',(1.,0.,0.));
#399=DIRECTION('center_axis',(0.,0.,1.));
#400=DIRECTION('ref_axis',(1.,0.,0.));
#401=DIRECTION('center_axis',(-0.925416578398324,0.336824088833465,0.17364817766693));
#402=DIRECTION('ref_axis',(-0.342020143325668,-0.939692620785909,7.36017823936474E-16));
#403=DIRECTION('center_axis',(-0.925416578398324,0.336824088833465,0.17364817766693));
#404=DIRECTION('ref_axis',(0.163175911166535,-0.0593911746138845,0.984807753012208));
#405=DIRECTION('',(-0.925416578398324,0.336824088833465,0.17364817766693));
#406=DIRECTION('center_axis',(-0.925416578398324,0.336824088833465,0.17364817766693));
#407=DIRECTION('ref_axis',(0.163175911166535,-0.0593911746138845,0.984807753012208));
#408=DIRECTION('center_axis',(0.925416578398324,-0.336824088833465,-0.17364817766693));
#409=DIRECTION('ref_axis',(-0.163175911166535,0.0593911746138846,-0.984807753012208));
#410=DIRECTION('center_axis',(-0.925416578398324,0.336824088833465,0.17364817766693));
#411=DIRECTION('ref_axis',(0.163175911166535,-0.0593911746138846,0.984807753012208));
#412=DIRECTION('center_axis',(-0.984807753012208,0.,0.17364817766693));
#413=DIRECTION('ref_axis',(0.,-1.,7.36017823936474E-16));
#414=DIRECTION('center_axis',(-0.984807753012208,0.,0.17364817766693));
#415=DIRECTION('ref_axis',(0.17364817766693,0.,0.984807753012208));
#416=DIRECTION('',(-0.984807753012208,0.,0.17364817766693));
#417=DIRECTION('center_axis',(-0.984807753012208,0.,0.17364817766693));
#418=DIRECTION('ref_axis',(0.17364817766693,0.,0.984807753012208));
#419=DIRECTION('center_axis',(0.984807753012208,0.,-0.17364817766693));
#420=DIRECTION('ref_axis',(-0.17364817766693,0.,-0.984807753012208));
#421=DIRECTION('center_axis',(-0.984807753012208,0.,0.17364817766693));
#422=DIRECTION('ref_axis',(0.17364817766693,0.,0.984807753012208));
#423=DIRECTION('center_axis',(-0.925416578398324,-0.0805547704571164,0.370290541848075));
#424=DIRECTION('ref_axis',(0.163175911166535,-0.96662280966528,0.197519532830984));
#425=DIRECTION('',(0.086719112827338,-0.996232801844247,0.));
#426=DIRECTION('center_axis',(-0.925416578398324,-0.0805547704571164,0.370290541848075));
#427=DIRECTION('ref_axis',(0.163175911166535,-0.966622809665281,0.197519532830984));
#428=DIRECTION('center_axis',(-0.925416578398324,-0.0805547704571164,0.370290541848075));
#429=DIRECTION('ref_axis',(0.163175911166535,-0.966622809665281,0.197519532830984));
#430=DIRECTION('center_axis',(-0.925416578398324,-0.0805547704571164,0.370290541848075));
#431=DIRECTION('ref_axis',(-0.342020143325668,-0.243210346801695,-0.907673371190369));
#432=DIRECTION('center_axis',(-0.925416578398324,-0.0805547704571164,0.370290541848075));
#433=DIRECTION('ref_axis',(0.163175911166535,-0.966622809665281,0.197519532830984));
#434=DIRECTION('',(-0.925416578398324,-0.0805547704571164,0.370290541848075));
#435=DIRECTION('center_axis',(0.,0.,1.));
#436=DIRECTION('ref_axis',(-0.996232801844247,-0.086719112827338,0.));
#437=DIRECTION('center_axis',(1.,0.,0.));
#438=DIRECTION('ref_axis',(0.,0.212572832449503,-0.977145225083967));
#439=DIRECTION('center_axis',(0.,0.,1.));
#440=DIRECTION('ref_axis',(-0.996232801844247,-0.086719112827338,0.));
#441=DIRECTION('center_axis',(0.925416578398324,0.0805547704571164,-0.370290541848075));
#442=DIRECTION('ref_axis',(-0.163175911166535,0.96662280966528,-0.197519532830984));
#443=DIRECTION('center_axis',(0.,0.,1.));
#444=DIRECTION('ref_axis',(1.,0.,0.));
#445=DIRECTION('',(0.,1.,0.));
#446=DIRECTION('center_axis',(1.,0.,0.));
#447=DIRECTION('ref_axis',(0.,0.,-1.));
#448=DIRECTION('center_axis',(-0.984807753012208,-0.0996005029250511,0.142244259722924));
#449=DIRECTION('ref_axis',(0.17364817766693,-0.564862521463623,0.806707284111599));
#450=DIRECTION('center_axis',(-0.984807753012208,-0.0996005029250511,0.142244259722924));
#451=DIRECTION('ref_axis',(0.17364817766693,-0.564862521463623,0.806707284111599));
#452=DIRECTION('center_axis',(0.984807753012208,0.0996005029250511,-0.142244259722924));
#453=DIRECTION('ref_axis',(-0.17364817766693,0.564862521463623,-0.806707284111599));
#454=DIRECTION('center_axis',(-0.984807753012208,-0.0996005029250511,0.142244259722924));
#455=DIRECTION('ref_axis',(0.17364817766693,-0.564862521463623,0.806707284111599));
#456=DIRECTION('center_axis',(-0.984807753012208,-0.0996005029250511,0.142244259722924));
#457=DIRECTION('ref_axis',(0.,-0.819152044288992,-0.573576436351045));
#458=DIRECTION('',(-0.984807753012208,-0.0996005029250511,0.142244259722924));
#459=DIRECTION('center_axis',(-0.925416578398324,0.336824088833465,0.17364817766693));
#460=DIRECTION('ref_axis',(0.163175911166535,-0.0593911746138846,0.984807753012208));
#461=DIRECTION('center_axis',(-0.925416578398324,0.336824088833465,0.17364817766693));
#462=DIRECTION('ref_axis',(0.163175911166535,-0.0593911746138845,0.984807753012208));
#463=DIRECTION('center_axis',(0.925416578398324,-0.336824088833465,-0.17364817766693));
#464=DIRECTION('ref_axis',(-0.163175911166535,0.0593911746138846,-0.984807753012208));
#465=DIRECTION('center_axis',(-0.925416578398324,0.336824088833465,0.17364817766693));
#466=DIRECTION('ref_axis',(0.163175911166535,-0.0593911746138845,0.984807753012208));
#467=DIRECTION('center_axis',(-0.925416578398324,0.336824088833465,0.17364817766693));
#468=DIRECTION('ref_axis',(-0.342020143325668,-0.939692620785909,7.36017823936474E-16));
#469=DIRECTION('',(-0.925416578398324,0.336824088833465,0.17364817766693));
#470=DIRECTION('center_axis',(-0.984807753012208,0.,0.17364817766693));
#471=DIRECTION('ref_axis',(0.17364817766693,0.,0.984807753012208));
#472=DIRECTION('center_axis',(-0.984807753012208,0.,0.17364817766693));
#473=DIRECTION('ref_axis',(0.17364817766693,0.,0.984807753012208));
#474=DIRECTION('center_axis',(0.984807753012208,0.,-0.17364817766693));
#475=DIRECTION('ref_axis',(-0.17364817766693,0.,-0.984807753012208));
#476=DIRECTION('center_axis',(-0.984807753012208,0.,0.17364817766693));
#477=DIRECTION('ref_axis',(0.17364817766693,0.,0.984807753012208));
#478=DIRECTION('center_axis',(-0.984807753012208,0.,0.17364817766693));
#479=DIRECTION('ref_axis',(0.,-1.,7.36017823936474E-16));
#480=DIRECTION('',(-0.984807753012208,0.,0.17364817766693));
#481=CARTESIAN_POINT('',(0.,0.,0.));
#482=CARTESIAN_POINT('Origin',(0.,0.,-2.5));
#483=CARTESIAN_POINT('',(10.,-10.,-2.5));
#484=CARTESIAN_POINT('',(-10.,-10.,-2.5));
#485=CARTESIAN_POINT('',(10.,-10.,-2.5));
#486=CARTESIAN_POINT('',(-10.,10.,-2.5));
#487=CARTESIAN_POINT('',(-10.,-10.,-2.5));
#488=CARTESIAN_POINT('',(10.,10.,-2.5));
#489=CARTESIAN_POINT('',(-10.,10.,-2.5));
#490=CARTESIAN_POINT('',(10.,10.,-2.5));
#491=CARTESIAN_POINT('Origin',(-10.,10.,0.));
#492=CARTESIAN_POINT('',(-10.,-10.,2.5));
#493=CARTESIAN_POINT('',(-10.,-10.,0.));
#494=CARTESIAN_POINT('',(-10.,10.,2.5));
#495=CARTESIAN_POINT('',(-10.,-10.,2.5));
#496=CARTESIAN_POINT('',(-10.,10.,0.));
#497=CARTESIAN_POINT('Origin',(10.,10.,0.));
#498=CARTESIAN_POINT('',(10.,10.,2.5));
#499=CARTESIAN_POINT('',(-10.,10.,2.5));
#500=CARTESIAN_POINT('',(10.,10.,0.));
#501=CARTESIAN_POINT('Origin',(10.,-10.,0.));
#502=CARTESIAN_POINT('',(10.,-10.,2.5));
#503=CARTESIAN_POINT('',(10.,10.,2.5));
#504=CARTESIAN_POINT('',(10.,-10.,0.));
#505=CARTESIAN_POINT('Origin',(-10.,-10.,0.));
#506=CARTESIAN_POINT('',(10.,-10.,2.5));
#507=CARTESIAN_POINT('Origin',(0.,0.,2.5));
#508=CARTESIAN_POINT('Origin',(-0.408510824854552,-2.73873366233692,-1.19866084146225));
#509=CARTESIAN_POINT('',(3.00145727120242,-3.44777166286109,-1.80642946329651));
#510=CARTESIAN_POINT('Origin',(2.83044719953958,-3.91761797325405,-1.80642946329651));
#511=CARTESIAN_POINT('',(-3.47645877758585,-1.09000304102684,-0.590892219627998));
#512=CARTESIAN_POINT('',(-0.237500753191718,-2.26888735194397,-1.19866084146225));
#513=CARTESIAN_POINT('Origin',(-3.64746884924868,-1.55984935141979,-0.590892219627998));
#514=CARTESIAN_POINT('Origin',(2.65943712787675,-4.387464283647,-1.80642946329651));
#515=CARTESIAN_POINT('Origin',(-3.64746884924868,-1.55984935141979,-0.590892219627998));
#516=CARTESIAN_POINT('Origin',(-0.366415652118592,-4.50000007450581,0.801339158537747));
#517=CARTESIAN_POINT('',(3.08041148342414,-4.00000007450581,0.193570536703491));
#518=CARTESIAN_POINT('Origin',(3.08041148342414,-4.50000007450581,0.193570536703492));
#519=CARTESIAN_POINT('',(-3.81324278766132,-4.00000007450581,1.409107780372));
#520=CARTESIAN_POINT('',(-0.366415652118592,-4.00000007450581,0.801339158537747));
#521=CARTESIAN_POINT('Origin',(-3.81324278766132,-4.50000007450581,1.409107780372));
#522=CARTESIAN_POINT('Origin',(3.08041148342414,-5.00000007450581,0.193570536703492));
#523=CARTESIAN_POINT('Origin',(-3.81324278766132,-4.50000007450581,1.409107780372));
#524=CARTESIAN_POINT('Origin',(-0.494015860685969,4.08508802486882,0.0168402692210123));
#525=CARTESIAN_POINT('',(-0.522326250454976,4.33290837747064,0.));
#526=CARTESIAN_POINT('',(-0.479080848287151,3.83610338530804,0.));
#527=CARTESIAN_POINT('',(-0.355959376003036,2.42167875270126,0.));
#528=CARTESIAN_POINT('',(-0.408510824854557,4.14589061156924,0.243758612018604));
#529=CARTESIAN_POINT('Origin',(-0.494015860685969,4.08508802486882,0.0168402692210123));
#530=CARTESIAN_POINT('Origin',(-0.494015860685969,4.08508802486882,0.0168402692210123));
#531=CARTESIAN_POINT('Origin',(4.82712946510439,4.54827795499723,-2.11233034640542));
#532=CARTESIAN_POINT('',(2.83044719953958,4.42783230816915,-1.05225828444966));
#533=CARTESIAN_POINT('Origin',(2.74494216370816,4.36702972146872,-1.27917662724725));
#534=CARTESIAN_POINT('',(4.91263450093581,4.60908054169766,-1.88541200360783));
#535=CARTESIAN_POINT('',(0.,4.30850223902404,-1.04083408558608E-16));
#536=CARTESIAN_POINT('Origin',(-0.451929275800395,4.08875153734949,0.));
#537=CARTESIAN_POINT('',(0.,3.93682061344208,-1.04083408558608E-16));
#538=CARTESIAN_POINT('Origin',(0.,4.12809064140785,-0.180832222287146));
#539=CARTESIAN_POINT('Origin',(-0.451929275800395,4.08875153734949,0.));
#540=CARTESIAN_POINT('Origin',(2.65943712787675,4.3062271347683,-1.50609497004484));
#541=CARTESIAN_POINT('Origin',(-0.366415652118592,0.745341884859141,0.));
#542=CARTESIAN_POINT('',(0.,0.745341884859141,0.));
#543=CARTESIAN_POINT('Origin',(0.,0.745341884859141,0.0415503960873377));
#544=CARTESIAN_POINT('Origin',(-3.81324278766132,5.29596657021596,1.88701833848917));
#545=CARTESIAN_POINT('',(-3.81324278766132,5.70554259236046,2.1738065566647));
#546=CARTESIAN_POINT('Origin',(-3.81324278766132,5.29596657021596,1.88701833848917));
#547=CARTESIAN_POINT('Origin',(3.08041148342414,5.58359406854682,0.604520302253186));
#548=CARTESIAN_POINT('',(3.08041148342414,6.40274611283581,1.17809673860423));
#549=CARTESIAN_POINT('Origin',(3.08041148342414,5.99317009069132,0.891308520428709));
#550=CARTESIAN_POINT('Origin',(-0.366415652118592,5.64456833045364,1.38916342945894));
#551=CARTESIAN_POINT('',(-0.366415652118592,6.05414435259813,1.67595164763446));
#552=CARTESIAN_POINT('Origin',(-0.494015860685969,-0.973656817533397,1.80133915853775));
#553=CARTESIAN_POINT('',(-0.408510824854553,-0.73873366233692,1.80133915853775));
#554=CARTESIAN_POINT('Origin',(-0.494015860685969,-0.973656817533397,1.80133915853775));
#555=CARTESIAN_POINT('Origin',(2.65943712787675,-2.387464283647,1.19357053670349));
#556=CARTESIAN_POINT('',(2.83044719953958,-1.91761797325405,1.19357053670349));
#557=CARTESIAN_POINT('Origin',(2.74494216370816,-2.15254112845052,1.19357053670349));
#558=CARTESIAN_POINT('Origin',(1.1254631515111,-1.56309897299196,1.49745484762062));
#559=CARTESIAN_POINT('',(1.21096818734251,-1.32817581779548,1.49745484762062));
#560=CARTESIAN_POINT('Origin',(-3.81324278766132,1.49999992549419,1.409107780372));
#561=CARTESIAN_POINT('',(-3.81324278766132,1.99999992549419,1.409107780372));
#562=CARTESIAN_POINT('Origin',(-3.81324278766132,1.49999992549419,1.409107780372));
#563=CARTESIAN_POINT('Origin',(3.08041148342414,0.999999925494195,0.193570536703492));
#564=CARTESIAN_POINT('',(3.08041148342414,1.99999992549419,0.193570536703491));
#565=CARTESIAN_POINT('Origin',(3.08041148342414,1.49999992549419,0.193570536703492));
#566=CARTESIAN_POINT('Origin',(-0.366415652118592,1.49999992549419,0.801339158537747));
#567=CARTESIAN_POINT('',(-0.366415652118592,1.99999992549419,0.801339158537747));
#568=UNCERTAINTY_MEASURE_WITH_UNIT(LENGTH_MEASURE(0.01),#572,
'DISTANCE_ACCURACY_VALUE',
'Maximum model space distance between geometric entities at asserted c
onnectivities');
#569=UNCERTAINTY_MEASURE_WITH_UNIT(LENGTH_MEASURE(0.01),#572,
'DISTANCE_ACCURACY_VALUE',
'Maximum model space distance between geometric entities at asserted c
onnectivities');
#570=(
GEOMETRIC_REPRESENTATION_CONTEXT(3)
GLOBAL_UNCERTAINTY_ASSIGNED_CONTEXT((#568))
GLOBAL_UNIT_ASSIGNED_CONTEXT((#572,#574,#575))
REPRESENTATION_CONTEXT('','3D')
);
#571=(
GEOMETRIC_REPRESENTATION_CONTEXT(3)
GLOBAL_UNCERTAINTY_ASSIGNED_CONTEXT((#569))
GLOBAL_UNIT_ASSIGNED_CONTEXT((#572,#574,#575))
REPRESENTATION_CONTEXT('','3D')
);
#572=(
LENGTH_UNIT()
NAMED_UNIT(*)
SI_UNIT(.MILLI.,.METRE.)
);
#573=(
LENGTH_UNIT()
NAMED_UNIT(*)
SI_UNIT($,.METRE.)
);
#574=(
NAMED_UNIT(*)
PLANE_ANGLE_UNIT()
SI_UNIT($,.RADIAN.)
);
#575=(
NAMED_UNIT(*)
SI_UNIT($,.STERADIAN.)
SOLID_ANGLE_UNIT()
);
#576=SHAPE_DEFINITION_REPRESENTATION(#577,#578);
#577=PRODUCT_DEFINITION_SHAPE('',$,#580);
#578=SHAPE_REPRESENTATION('',(#332),#570);
#579=PRODUCT_DEFINITION_CONTEXT('part definition',#584,'design');
#580=PRODUCT_DEFINITION('Cilindros','Cilindros',#581,#579);
#581=PRODUCT_DEFINITION_FORMATION('',$,#586);
#582=PRODUCT_RELATED_PRODUCT_CATEGORY('Cilindros','Cilindros',(#586));
#583=APPLICATION_PROTOCOL_DEFINITION('international standard',
'automotive_design',2009,#584);
#584=APPLICATION_CONTEXT(
'Core Data for Automotive Mechanical Design Process');
#585=PRODUCT_CONTEXT('part definition',#584,'mechanical');
#586=PRODUCT('Cilindros','Cilindros',$,(#585));
#587=PRESENTATION_STYLE_ASSIGNMENT((#588));
#588=SURFACE_STYLE_USAGE(.BOTH.,#589);
#589=SURFACE_SIDE_STYLE('',(#590));
#590=SURFACE_STYLE_FILL_AREA(#591);
#591=FILL_AREA_STYLE('Steel - Satin',(#592));
#592=FILL_AREA_STYLE_COLOUR('Steel - Satin',#593);
#593=COLOUR_RGB('Steel - Satin',0.627450980392157,0.627450980392157,0.627450980392157);
ENDSEC;
END-ISO-10303-21;
