ISO-10303-21;
HEADER;
/* Generated by software containing ST-Developer
 * from STEP Tools, Inc. (www.steptools.com) 
 */

FILE_DESCRIPTION(
/* description */ (''),
/* implementation_level */ '2;1');

FILE_NAME(
/* name */ 'CV02.step',
/* time_stamp */ '2026-03-17T10:46:14-04:00',
/* author */ (''),
/* organization */ (''),
/* preprocessor_version */ 'ST-DEVELOPER v20.1',
/* originating_system */ 'Autodesk Translation Framework v14.24.0.0',
/* authorisation */ '');

FILE_SCHEMA (('AUTOMOTIVE_DESIGN { 1 0 10303 214 3 1 1 }'));
ENDSEC;

DATA;
#10=MECHANICAL_DESIGN_GEOMETRIC_PRESENTATION_REPRESENTATION('',(#13),#249);
#11=SHAPE_REPRESENTATION_RELATIONSHIP('SRR','None',#256,#12);
#12=ADVANCED_BREP_SHAPE_REPRESENTATION('',(#143),#248);
#13=STYLED_ITEM('',(#265),#143);
#14=ORIENTED_CLOSED_SHELL('',*,#140,.F.);
#15=ORIENTED_CLOSED_SHELL('',*,#141,.F.);
#16=ORIENTED_CLOSED_SHELL('',*,#142,.F.);
#17=CIRCLE('',#164,0.250000000000004);
#18=CIRCLE('',#166,0.500000000000003);
#19=CIRCLE('',#168,1.00000000000001);
#20=SPHERICAL_SURFACE('',#163,0.250000000000003);
#21=SPHERICAL_SURFACE('',#165,0.500000000000003);
#22=SPHERICAL_SURFACE('',#167,1.);
#23=FACE_OUTER_BOUND('',#32,.T.);
#24=FACE_OUTER_BOUND('',#33,.T.);
#25=FACE_OUTER_BOUND('',#34,.T.);
#26=FACE_OUTER_BOUND('',#35,.T.);
#27=FACE_OUTER_BOUND('',#36,.T.);
#28=FACE_OUTER_BOUND('',#37,.T.);
#29=FACE_OUTER_BOUND('',#38,.T.);
#30=FACE_OUTER_BOUND('',#39,.T.);
#31=FACE_OUTER_BOUND('',#40,.T.);
#32=EDGE_LOOP('',(#94,#95,#96,#97));
#33=EDGE_LOOP('',(#98,#99,#100,#101));
#34=EDGE_LOOP('',(#102,#103,#104,#105));
#35=EDGE_LOOP('',(#106,#107,#108,#109));
#36=EDGE_LOOP('',(#110,#111,#112,#113));
#37=EDGE_LOOP('',(#114,#115,#116,#117));
#38=EDGE_LOOP('',(#118,#119));
#39=EDGE_LOOP('',(#120,#121));
#40=EDGE_LOOP('',(#122,#123));
#41=LINE('',#211,#53);
#42=LINE('',#213,#54);
#43=LINE('',#215,#55);
#44=LINE('',#216,#56);
#45=LINE('',#219,#57);
#46=LINE('',#221,#58);
#47=LINE('',#222,#59);
#48=LINE('',#225,#60);
#49=LINE('',#226,#61);
#50=LINE('',#229,#62);
#51=LINE('',#230,#63);
#52=LINE('',#232,#64);
#53=VECTOR('',#173,10.);
#54=VECTOR('',#174,10.);
#55=VECTOR('',#175,10.);
#56=VECTOR('',#176,10.);
#57=VECTOR('',#179,10.);
#58=VECTOR('',#180,10.);
#59=VECTOR('',#181,10.);
#60=VECTOR('',#184,10.);
#61=VECTOR('',#185,10.);
#62=VECTOR('',#188,10.);
#63=VECTOR('',#189,10.);
#64=VECTOR('',#192,10.);
#65=VERTEX_POINT('',#209);
#66=VERTEX_POINT('',#210);
#67=VERTEX_POINT('',#212);
#68=VERTEX_POINT('',#214);
#69=VERTEX_POINT('',#218);
#70=VERTEX_POINT('',#220);
#71=VERTEX_POINT('',#224);
#72=VERTEX_POINT('',#228);
#73=VERTEX_POINT('',#235);
#74=VERTEX_POINT('',#236);
#75=VERTEX_POINT('',#239);
#76=VERTEX_POINT('',#240);
#77=VERTEX_POINT('',#243);
#78=VERTEX_POINT('',#244);
#79=EDGE_CURVE('',#65,#66,#41,.T.);
#80=EDGE_CURVE('',#66,#67,#42,.T.);
#81=EDGE_CURVE('',#67,#68,#43,.T.);
#82=EDGE_CURVE('',#68,#65,#44,.T.);
#83=EDGE_CURVE('',#69,#66,#45,.T.);
#84=EDGE_CURVE('',#70,#69,#46,.T.);
#85=EDGE_CURVE('',#67,#70,#47,.T.);
#86=EDGE_CURVE('',#71,#70,#48,.T.);
#87=EDGE_CURVE('',#68,#71,#49,.T.);
#88=EDGE_CURVE('',#72,#71,#50,.T.);
#89=EDGE_CURVE('',#65,#72,#51,.T.);
#90=EDGE_CURVE('',#69,#72,#52,.T.);
#91=EDGE_CURVE('',#73,#74,#17,.T.);
#92=EDGE_CURVE('',#75,#76,#18,.T.);
#93=EDGE_CURVE('',#77,#78,#19,.T.);
#94=ORIENTED_EDGE('',*,*,#79,.T.);
#95=ORIENTED_EDGE('',*,*,#80,.T.);
#96=ORIENTED_EDGE('',*,*,#81,.T.);
#97=ORIENTED_EDGE('',*,*,#82,.T.);
#98=ORIENTED_EDGE('',*,*,#83,.F.);
#99=ORIENTED_EDGE('',*,*,#84,.F.);
#100=ORIENTED_EDGE('',*,*,#85,.F.);
#101=ORIENTED_EDGE('',*,*,#80,.F.);
#102=ORIENTED_EDGE('',*,*,#85,.T.);
#103=ORIENTED_EDGE('',*,*,#86,.F.);
#104=ORIENTED_EDGE('',*,*,#87,.F.);
#105=ORIENTED_EDGE('',*,*,#81,.F.);
#106=ORIENTED_EDGE('',*,*,#87,.T.);
#107=ORIENTED_EDGE('',*,*,#88,.F.);
#108=ORIENTED_EDGE('',*,*,#89,.F.);
#109=ORIENTED_EDGE('',*,*,#82,.F.);
#110=ORIENTED_EDGE('',*,*,#89,.T.);
#111=ORIENTED_EDGE('',*,*,#90,.F.);
#112=ORIENTED_EDGE('',*,*,#83,.T.);
#113=ORIENTED_EDGE('',*,*,#79,.F.);
#114=ORIENTED_EDGE('',*,*,#90,.T.);
#115=ORIENTED_EDGE('',*,*,#88,.T.);
#116=ORIENTED_EDGE('',*,*,#86,.T.);
#117=ORIENTED_EDGE('',*,*,#84,.T.);
#118=ORIENTED_EDGE('',*,*,#91,.T.);
#119=ORIENTED_EDGE('',*,*,#91,.F.);
#120=ORIENTED_EDGE('',*,*,#92,.T.);
#121=ORIENTED_EDGE('',*,*,#92,.F.);
#122=ORIENTED_EDGE('',*,*,#93,.T.);
#123=ORIENTED_EDGE('',*,*,#93,.F.);
#124=PLANE('',#157);
#125=PLANE('',#158);
#126=PLANE('',#159);
#127=PLANE('',#160);
#128=PLANE('',#161);
#129=PLANE('',#162);
#130=ADVANCED_FACE('',(#23),#124,.T.);
#131=ADVANCED_FACE('',(#24),#125,.T.);
#132=ADVANCED_FACE('',(#25),#126,.T.);
#133=ADVANCED_FACE('',(#26),#127,.T.);
#134=ADVANCED_FACE('',(#27),#128,.T.);
#135=ADVANCED_FACE('',(#28),#129,.T.);
#136=ADVANCED_FACE('',(#29),#20,.F.);
#137=ADVANCED_FACE('',(#30),#21,.F.);
#138=ADVANCED_FACE('',(#31),#22,.F.);
#139=CLOSED_SHELL('',(#130,#131,#132,#133,#134,#135));
#140=CLOSED_SHELL('',(#136));
#141=CLOSED_SHELL('',(#137));
#142=CLOSED_SHELL('',(#138));
#143=BREP_WITH_VOIDS('Body1',#139,(#14,#15,#16));
#144=DERIVED_UNIT_ELEMENT(#146,1.);
#145=DERIVED_UNIT_ELEMENT(#251,-3.);
#146=(
MASS_UNIT()
NAMED_UNIT(*)
SI_UNIT(.KILO.,.GRAM.)
);
#147=DERIVED_UNIT((#144,#145));
#148=MEASURE_REPRESENTATION_ITEM('density measure',
POSITIVE_RATIO_MEASURE(7850.),#147);
#149=PROPERTY_DEFINITION_REPRESENTATION(#154,#151);
#150=PROPERTY_DEFINITION_REPRESENTATION(#155,#152);
#151=REPRESENTATION('material name',(#153),#248);
#152=REPRESENTATION('density',(#148),#248);
#153=DESCRIPTIVE_REPRESENTATION_ITEM('Steel','Steel');
#154=PROPERTY_DEFINITION('material property','material name',#258);
#155=PROPERTY_DEFINITION('material property','density of part',#258);
#156=AXIS2_PLACEMENT_3D('',#207,#169,#170);
#157=AXIS2_PLACEMENT_3D('',#208,#171,#172);
#158=AXIS2_PLACEMENT_3D('',#217,#177,#178);
#159=AXIS2_PLACEMENT_3D('',#223,#182,#183);
#160=AXIS2_PLACEMENT_3D('',#227,#186,#187);
#161=AXIS2_PLACEMENT_3D('',#231,#190,#191);
#162=AXIS2_PLACEMENT_3D('',#233,#193,#194);
#163=AXIS2_PLACEMENT_3D('',#234,#195,#196);
#164=AXIS2_PLACEMENT_3D('',#237,#197,#198);
#165=AXIS2_PLACEMENT_3D('',#238,#199,#200);
#166=AXIS2_PLACEMENT_3D('',#241,#201,#202);
#167=AXIS2_PLACEMENT_3D('',#242,#203,#204);
#168=AXIS2_PLACEMENT_3D('',#245,#205,#206);
#169=DIRECTION('axis',(0.,0.,1.));
#170=DIRECTION('refdir',(1.,0.,0.));
#171=DIRECTION('center_axis',(-1.,0.,0.));
#172=DIRECTION('ref_axis',(0.,0.,1.));
#173=DIRECTION('',(0.,-1.,0.));
#174=DIRECTION('',(0.,0.,1.));
#175=DIRECTION('',(0.,1.,0.));
#176=DIRECTION('',(0.,0.,-1.));
#177=DIRECTION('center_axis',(0.,-1.,0.));
#178=DIRECTION('ref_axis',(0.,0.,-1.));
#179=DIRECTION('',(-1.,0.,0.));
#180=DIRECTION('',(0.,0.,-1.));
#181=DIRECTION('',(1.,0.,0.));
#182=DIRECTION('center_axis',(0.,0.,1.));
#183=DIRECTION('ref_axis',(0.,-1.,0.));
#184=DIRECTION('',(0.,-1.,0.));
#185=DIRECTION('',(1.,0.,0.));
#186=DIRECTION('center_axis',(0.,1.,0.));
#187=DIRECTION('ref_axis',(0.,0.,1.));
#188=DIRECTION('',(0.,0.,1.));
#189=DIRECTION('',(1.,0.,0.));
#190=DIRECTION('center_axis',(0.,0.,-1.));
#191=DIRECTION('ref_axis',(0.,1.,0.));
#192=DIRECTION('',(0.,1.,0.));
#193=DIRECTION('center_axis',(1.,0.,0.));
#194=DIRECTION('ref_axis',(0.,0.,-1.));
#195=DIRECTION('center_axis',(1.,0.,0.));
#196=DIRECTION('ref_axis',(0.,-1.,0.));
#197=DIRECTION('center_axis',(0.,0.,-1.));
#198=DIRECTION('ref_axis',(0.,1.,0.));
#199=DIRECTION('center_axis',(1.,0.,0.));
#200=DIRECTION('ref_axis',(0.,-1.,0.));
#201=DIRECTION('center_axis',(0.,0.,-1.));
#202=DIRECTION('ref_axis',(0.,1.,0.));
#203=DIRECTION('center_axis',(1.,0.,0.));
#204=DIRECTION('ref_axis',(0.,-1.,0.));
#205=DIRECTION('center_axis',(0.,0.,-1.));
#206=DIRECTION('ref_axis',(0.,1.,0.));
#207=CARTESIAN_POINT('',(0.,0.,0.));
#208=CARTESIAN_POINT('Origin',(-2.5,-30.967723361449,19.0614787595279));
#209=CARTESIAN_POINT('',(-2.5,-20.967723361449,9.06147875952792));
#210=CARTESIAN_POINT('',(-2.5,-40.967723361449,9.06147875952792));
#211=CARTESIAN_POINT('',(-2.5,-20.967723361449,9.06147875952792));
#212=CARTESIAN_POINT('',(-2.5,-40.967723361449,29.0614787595279));
#213=CARTESIAN_POINT('',(-2.5,-40.967723361449,9.06147875952792));
#214=CARTESIAN_POINT('',(-2.5,-20.967723361449,29.0614787595279));
#215=CARTESIAN_POINT('',(-2.5,-40.967723361449,29.0614787595279));
#216=CARTESIAN_POINT('',(-2.5,-20.967723361449,29.0614787595279));
#217=CARTESIAN_POINT('Origin',(0.,-40.967723361449,29.0614787595279));
#218=CARTESIAN_POINT('',(2.5,-40.967723361449,9.06147875952792));
#219=CARTESIAN_POINT('',(0.,-40.967723361449,9.06147875952792));
#220=CARTESIAN_POINT('',(2.5,-40.967723361449,29.0614787595279));
#221=CARTESIAN_POINT('',(2.5,-40.967723361449,9.06147875952792));
#222=CARTESIAN_POINT('',(0.,-40.967723361449,29.0614787595279));
#223=CARTESIAN_POINT('Origin',(0.,-20.967723361449,29.0614787595279));
#224=CARTESIAN_POINT('',(2.5,-20.967723361449,29.0614787595279));
#225=CARTESIAN_POINT('',(2.5,-40.967723361449,29.0614787595279));
#226=CARTESIAN_POINT('',(0.,-20.967723361449,29.0614787595279));
#227=CARTESIAN_POINT('Origin',(0.,-20.967723361449,9.06147875952792));
#228=CARTESIAN_POINT('',(2.5,-20.967723361449,9.06147875952792));
#229=CARTESIAN_POINT('',(2.5,-20.967723361449,29.0614787595279));
#230=CARTESIAN_POINT('',(0.,-20.967723361449,9.06147875952792));
#231=CARTESIAN_POINT('Origin',(0.,-40.967723361449,9.06147875952792));
#232=CARTESIAN_POINT('',(2.5,-20.967723361449,9.06147875952792));
#233=CARTESIAN_POINT('Origin',(2.5,-30.967723361449,19.0614787595279));
#234=CARTESIAN_POINT('Origin',(0.,-37.3170126924953,12.0702291350704));
#235=CARTESIAN_POINT('',(-0.250000000000004,-37.3170126924953,12.0702291350704));
#236=CARTESIAN_POINT('',(0.250000000000004,-37.3170126924953,12.0702291350704));
#237=CARTESIAN_POINT('Origin',(0.,-37.3170126924953,12.0702291350704));
#238=CARTESIAN_POINT('Origin',(0.,-30.412378256544,18.7768609401902));
#239=CARTESIAN_POINT('',(-0.500000000000003,-30.412378256544,18.7768609401902));
#240=CARTESIAN_POINT('',(0.500000000000003,-30.412378256544,18.7768609401902));
#241=CARTESIAN_POINT('Origin',(0.,-30.412378256544,18.7768609401902));
#242=CARTESIAN_POINT('Origin',(0.,-23.8033118923274,25.8510674099484));
#243=CARTESIAN_POINT('',(-1.00000000000001,-23.8033118923274,25.8510674099484));
#244=CARTESIAN_POINT('',(1.00000000000001,-23.8033118923274,25.8510674099484));
#245=CARTESIAN_POINT('Origin',(0.,-23.8033118923274,25.8510674099484));
#246=UNCERTAINTY_MEASURE_WITH_UNIT(LENGTH_MEASURE(0.01),#250,
'DISTANCE_ACCURACY_VALUE',
'Maximum model space distance between geometric entities at asserted c
onnectivities');
#247=UNCERTAINTY_MEASURE_WITH_UNIT(LENGTH_MEASURE(0.01),#250,
'DISTANCE_ACCURACY_VALUE',
'Maximum model space distance between geometric entities at asserted c
onnectivities');
#248=(
GEOMETRIC_REPRESENTATION_CONTEXT(3)
GLOBAL_UNCERTAINTY_ASSIGNED_CONTEXT((#246))
GLOBAL_UNIT_ASSIGNED_CONTEXT((#250,#252,#253))
REPRESENTATION_CONTEXT('','3D')
);
#249=(
GEOMETRIC_REPRESENTATION_CONTEXT(3)
GLOBAL_UNCERTAINTY_ASSIGNED_CONTEXT((#247))
GLOBAL_UNIT_ASSIGNED_CONTEXT((#250,#252,#253))
REPRESENTATION_CONTEXT('','3D')
);
#250=(
LENGTH_UNIT()
NAMED_UNIT(*)
SI_UNIT(.MILLI.,.METRE.)
);
#251=(
LENGTH_UNIT()
NAMED_UNIT(*)
SI_UNIT($,.METRE.)
);
#252=(
NAMED_UNIT(*)
PLANE_ANGLE_UNIT()
SI_UNIT($,.RADIAN.)
);
#253=(
NAMED_UNIT(*)
SI_UNIT($,.STERADIAN.)
SOLID_ANGLE_UNIT()
);
#254=SHAPE_DEFINITION_REPRESENTATION(#255,#256);
#255=PRODUCT_DEFINITION_SHAPE('',$,#258);
#256=SHAPE_REPRESENTATION('',(#156),#248);
#257=PRODUCT_DEFINITION_CONTEXT('part definition',#262,'design');
#258=PRODUCT_DEFINITION('2026-02-12-12-44-01-146','CV02',#259,#257);
#259=PRODUCT_DEFINITION_FORMATION('',$,#264);
#260=PRODUCT_RELATED_PRODUCT_CATEGORY('CV02','CV02',(#264));
#261=APPLICATION_PROTOCOL_DEFINITION('international standard',
'automotive_design',2009,#262);
#262=APPLICATION_CONTEXT(
'Core Data for Automotive Mechanical Design Process');
#263=PRODUCT_CONTEXT('part definition',#262,'mechanical');
#264=PRODUCT('2026-02-12-12-44-01-146','CV02',$,(#263));
#265=PRESENTATION_STYLE_ASSIGNMENT((#266));
#266=SURFACE_STYLE_USAGE(.BOTH.,#267);
#267=SURFACE_SIDE_STYLE('',(#268));
#268=SURFACE_STYLE_FILL_AREA(#269);
#269=FILL_AREA_STYLE('Steel - Satin',(#270));
#270=FILL_AREA_STYLE_COLOUR('Steel - Satin',#271);
#271=COLOUR_RGB('Steel - Satin',0.627450980392157,0.627450980392157,0.627450980392157);
ENDSEC;
END-ISO-10303-21;
