ISO-10303-21;
HEADER;
/* Generated by software containing ST-Developer
 * from STEP Tools, Inc. (www.steptools.com) 
 */

FILE_DESCRIPTION(
/* description */ (''),
/* implementation_level */ '2;1');

FILE_NAME(
/* name */ 'CV03.step',
/* time_stamp */ '2026-03-17T10:46:35-04:00',
/* author */ (''),
/* organization */ (''),
/* preprocessor_version */ 'ST-DEVELOPER v20.1',
/* originating_system */ 'Autodesk Translation Framework v14.24.0.0',
/* authorisation */ '');

FILE_SCHEMA (('AUTOMOTIVE_DESIGN { 1 0 10303 214 3 1 1 }'));
ENDSEC;

DATA;
#10=MECHANICAL_DESIGN_GEOMETRIC_PRESENTATION_REPRESENTATION('',(#13),#783);
#11=SHAPE_REPRESENTATION_RELATIONSHIP('SRR','None',#790,#12);
#12=ADVANCED_BREP_SHAPE_REPRESENTATION('',(#483),#782);
#13=STYLED_ITEM('',(#799),#483);
#14=ORIENTED_CLOSED_SHELL('',*,#479,.F.);
#15=ORIENTED_CLOSED_SHELL('',*,#480,.F.);
#16=ORIENTED_CLOSED_SHELL('',*,#481,.F.);
#17=ORIENTED_CLOSED_SHELL('',*,#482,.F.);
#18=FACE_OUTER_BOUND('',#48,.T.);
#19=FACE_OUTER_BOUND('',#49,.T.);
#20=FACE_OUTER_BOUND('',#50,.T.);
#21=FACE_OUTER_BOUND('',#51,.T.);
#22=FACE_OUTER_BOUND('',#52,.T.);
#23=FACE_OUTER_BOUND('',#53,.T.);
#24=FACE_OUTER_BOUND('',#54,.T.);
#25=FACE_OUTER_BOUND('',#55,.T.);
#26=FACE_OUTER_BOUND('',#56,.T.);
#27=FACE_OUTER_BOUND('',#57,.T.);
#28=FACE_OUTER_BOUND('',#58,.T.);
#29=FACE_OUTER_BOUND('',#59,.T.);
#30=FACE_OUTER_BOUND('',#60,.T.);
#31=FACE_OUTER_BOUND('',#61,.T.);
#32=FACE_OUTER_BOUND('',#62,.T.);
#33=FACE_OUTER_BOUND('',#63,.T.);
#34=FACE_OUTER_BOUND('',#64,.T.);
#35=FACE_OUTER_BOUND('',#65,.T.);
#36=FACE_OUTER_BOUND('',#66,.T.);
#37=FACE_OUTER_BOUND('',#67,.T.);
#38=FACE_OUTER_BOUND('',#68,.T.);
#39=FACE_OUTER_BOUND('',#69,.T.);
#40=FACE_OUTER_BOUND('',#70,.T.);
#41=FACE_OUTER_BOUND('',#71,.T.);
#42=FACE_OUTER_BOUND('',#72,.T.);
#43=FACE_OUTER_BOUND('',#73,.T.);
#44=FACE_OUTER_BOUND('',#74,.T.);
#45=FACE_OUTER_BOUND('',#75,.T.);
#46=FACE_OUTER_BOUND('',#76,.T.);
#47=FACE_OUTER_BOUND('',#77,.T.);
#48=EDGE_LOOP('',(#298,#299,#300,#301));
#49=EDGE_LOOP('',(#302,#303,#304,#305));
#50=EDGE_LOOP('',(#306,#307,#308,#309));
#51=EDGE_LOOP('',(#310,#311,#312,#313));
#52=EDGE_LOOP('',(#314,#315,#316,#317));
#53=EDGE_LOOP('',(#318,#319,#320,#321));
#54=EDGE_LOOP('',(#322,#323,#324,#325));
#55=EDGE_LOOP('',(#326,#327,#328,#329));
#56=EDGE_LOOP('',(#330,#331,#332,#333));
#57=EDGE_LOOP('',(#334,#335,#336,#337));
#58=EDGE_LOOP('',(#338,#339,#340,#341));
#59=EDGE_LOOP('',(#342,#343,#344,#345));
#60=EDGE_LOOP('',(#346,#347,#348,#349));
#61=EDGE_LOOP('',(#350,#351,#352,#353));
#62=EDGE_LOOP('',(#354,#355,#356,#357));
#63=EDGE_LOOP('',(#358,#359,#360,#361));
#64=EDGE_LOOP('',(#362,#363,#364,#365));
#65=EDGE_LOOP('',(#366,#367,#368,#369));
#66=EDGE_LOOP('',(#370,#371,#372,#373));
#67=EDGE_LOOP('',(#374,#375,#376,#377));
#68=EDGE_LOOP('',(#378,#379,#380,#381));
#69=EDGE_LOOP('',(#382,#383,#384,#385));
#70=EDGE_LOOP('',(#386,#387,#388,#389));
#71=EDGE_LOOP('',(#390,#391,#392,#393));
#72=EDGE_LOOP('',(#394,#395,#396,#397));
#73=EDGE_LOOP('',(#398,#399,#400,#401));
#74=EDGE_LOOP('',(#402,#403,#404,#405));
#75=EDGE_LOOP('',(#406,#407,#408,#409));
#76=EDGE_LOOP('',(#410,#411,#412,#413));
#77=EDGE_LOOP('',(#414,#415,#416,#417));
#78=LINE('',#653,#138);
#79=LINE('',#655,#139);
#80=LINE('',#657,#140);
#81=LINE('',#658,#141);
#82=LINE('',#661,#142);
#83=LINE('',#663,#143);
#84=LINE('',#664,#144);
#85=LINE('',#667,#145);
#86=LINE('',#668,#146);
#87=LINE('',#671,#147);
#88=LINE('',#672,#148);
#89=LINE('',#674,#149);
#90=LINE('',#679,#150);
#91=LINE('',#681,#151);
#92=LINE('',#683,#152);
#93=LINE('',#684,#153);
#94=LINE('',#687,#154);
#95=LINE('',#689,#155);
#96=LINE('',#690,#156);
#97=LINE('',#693,#157);
#98=LINE('',#694,#158);
#99=LINE('',#697,#159);
#100=LINE('',#698,#160);
#101=LINE('',#700,#161);
#102=LINE('',#705,#162);
#103=LINE('',#707,#163);
#104=LINE('',#709,#164);
#105=LINE('',#710,#165);
#106=LINE('',#713,#166);
#107=LINE('',#715,#167);
#108=LINE('',#716,#168);
#109=LINE('',#719,#169);
#110=LINE('',#720,#170);
#111=LINE('',#723,#171);
#112=LINE('',#724,#172);
#113=LINE('',#726,#173);
#114=LINE('',#731,#174);
#115=LINE('',#733,#175);
#116=LINE('',#735,#176);
#117=LINE('',#736,#177);
#118=LINE('',#739,#178);
#119=LINE('',#741,#179);
#120=LINE('',#742,#180);
#121=LINE('',#745,#181);
#122=LINE('',#746,#182);
#123=LINE('',#749,#183);
#124=LINE('',#750,#184);
#125=LINE('',#752,#185);
#126=LINE('',#757,#186);
#127=LINE('',#759,#187);
#128=LINE('',#761,#188);
#129=LINE('',#762,#189);
#130=LINE('',#765,#190);
#131=LINE('',#767,#191);
#132=LINE('',#768,#192);
#133=LINE('',#771,#193);
#134=LINE('',#772,#194);
#135=LINE('',#775,#195);
#136=LINE('',#776,#196);
#137=LINE('',#778,#197);
#138=VECTOR('',#531,10.);
#139=VECTOR('',#532,10.);
#140=VECTOR('',#533,10.);
#141=VECTOR('',#534,10.);
#142=VECTOR('',#537,10.);
#143=VECTOR('',#538,10.);
#144=VECTOR('',#539,10.);
#145=VECTOR('',#542,10.);
#146=VECTOR('',#543,10.);
#147=VECTOR('',#546,10.);
#148=VECTOR('',#547,10.);
#149=VECTOR('',#550,10.);
#150=VECTOR('',#555,10.);
#151=VECTOR('',#556,10.);
#152=VECTOR('',#557,10.);
#153=VECTOR('',#558,10.);
#154=VECTOR('',#561,10.);
#155=VECTOR('',#562,10.);
#156=VECTOR('',#563,10.);
#157=VECTOR('',#566,10.);
#158=VECTOR('',#567,10.);
#159=VECTOR('',#570,10.);
#160=VECTOR('',#571,10.);
#161=VECTOR('',#574,10.);
#162=VECTOR('',#579,10.);
#163=VECTOR('',#580,10.);
#164=VECTOR('',#581,10.);
#165=VECTOR('',#582,10.);
#166=VECTOR('',#585,10.);
#167=VECTOR('',#586,10.);
#168=VECTOR('',#587,10.);
#169=VECTOR('',#590,10.);
#170=VECTOR('',#591,10.);
#171=VECTOR('',#594,10.);
#172=VECTOR('',#595,10.);
#173=VECTOR('',#598,10.);
#174=VECTOR('',#603,10.);
#175=VECTOR('',#604,10.);
#176=VECTOR('',#605,10.);
#177=VECTOR('',#606,10.);
#178=VECTOR('',#609,10.);
#179=VECTOR('',#610,10.);
#180=VECTOR('',#611,10.);
#181=VECTOR('',#614,10.);
#182=VECTOR('',#615,10.);
#183=VECTOR('',#618,10.);
#184=VECTOR('',#619,10.);
#185=VECTOR('',#622,10.);
#186=VECTOR('',#627,10.);
#187=VECTOR('',#628,10.);
#188=VECTOR('',#629,10.);
#189=VECTOR('',#630,10.);
#190=VECTOR('',#633,10.);
#191=VECTOR('',#634,10.);
#192=VECTOR('',#635,10.);
#193=VECTOR('',#638,10.);
#194=VECTOR('',#639,10.);
#195=VECTOR('',#642,10.);
#196=VECTOR('',#643,10.);
#197=VECTOR('',#646,10.);
#198=VERTEX_POINT('',#651);
#199=VERTEX_POINT('',#652);
#200=VERTEX_POINT('',#654);
#201=VERTEX_POINT('',#656);
#202=VERTEX_POINT('',#660);
#203=VERTEX_POINT('',#662);
#204=VERTEX_POINT('',#666);
#205=VERTEX_POINT('',#670);
#206=VERTEX_POINT('',#677);
#207=VERTEX_POINT('',#678);
#208=VERTEX_POINT('',#680);
#209=VERTEX_POINT('',#682);
#210=VERTEX_POINT('',#686);
#211=VERTEX_POINT('',#688);
#212=VERTEX_POINT('',#692);
#213=VERTEX_POINT('',#696);
#214=VERTEX_POINT('',#703);
#215=VERTEX_POINT('',#704);
#216=VERTEX_POINT('',#706);
#217=VERTEX_POINT('',#708);
#218=VERTEX_POINT('',#712);
#219=VERTEX_POINT('',#714);
#220=VERTEX_POINT('',#718);
#221=VERTEX_POINT('',#722);
#222=VERTEX_POINT('',#729);
#223=VERTEX_POINT('',#730);
#224=VERTEX_POINT('',#732);
#225=VERTEX_POINT('',#734);
#226=VERTEX_POINT('',#738);
#227=VERTEX_POINT('',#740);
#228=VERTEX_POINT('',#744);
#229=VERTEX_POINT('',#748);
#230=VERTEX_POINT('',#755);
#231=VERTEX_POINT('',#756);
#232=VERTEX_POINT('',#758);
#233=VERTEX_POINT('',#760);
#234=VERTEX_POINT('',#764);
#235=VERTEX_POINT('',#766);
#236=VERTEX_POINT('',#770);
#237=VERTEX_POINT('',#774);
#238=EDGE_CURVE('',#198,#199,#78,.T.);
#239=EDGE_CURVE('',#199,#200,#79,.T.);
#240=EDGE_CURVE('',#200,#201,#80,.T.);
#241=EDGE_CURVE('',#201,#198,#81,.T.);
#242=EDGE_CURVE('',#202,#199,#82,.T.);
#243=EDGE_CURVE('',#203,#202,#83,.T.);
#244=EDGE_CURVE('',#200,#203,#84,.T.);
#245=EDGE_CURVE('',#204,#203,#85,.T.);
#246=EDGE_CURVE('',#201,#204,#86,.T.);
#247=EDGE_CURVE('',#205,#204,#87,.T.);
#248=EDGE_CURVE('',#198,#205,#88,.T.);
#249=EDGE_CURVE('',#202,#205,#89,.T.);
#250=EDGE_CURVE('',#206,#207,#90,.T.);
#251=EDGE_CURVE('',#208,#206,#91,.T.);
#252=EDGE_CURVE('',#209,#208,#92,.T.);
#253=EDGE_CURVE('',#207,#209,#93,.T.);
#254=EDGE_CURVE('',#210,#207,#94,.T.);
#255=EDGE_CURVE('',#209,#211,#95,.T.);
#256=EDGE_CURVE('',#211,#210,#96,.T.);
#257=EDGE_CURVE('',#208,#212,#97,.T.);
#258=EDGE_CURVE('',#212,#211,#98,.T.);
#259=EDGE_CURVE('',#206,#213,#99,.T.);
#260=EDGE_CURVE('',#213,#212,#100,.T.);
#261=EDGE_CURVE('',#210,#213,#101,.T.);
#262=EDGE_CURVE('',#214,#215,#102,.T.);
#263=EDGE_CURVE('',#216,#214,#103,.T.);
#264=EDGE_CURVE('',#217,#216,#104,.T.);
#265=EDGE_CURVE('',#215,#217,#105,.T.);
#266=EDGE_CURVE('',#218,#215,#106,.T.);
#267=EDGE_CURVE('',#217,#219,#107,.T.);
#268=EDGE_CURVE('',#219,#218,#108,.T.);
#269=EDGE_CURVE('',#216,#220,#109,.T.);
#270=EDGE_CURVE('',#220,#219,#110,.T.);
#271=EDGE_CURVE('',#214,#221,#111,.T.);
#272=EDGE_CURVE('',#221,#220,#112,.T.);
#273=EDGE_CURVE('',#218,#221,#113,.T.);
#274=EDGE_CURVE('',#222,#223,#114,.T.);
#275=EDGE_CURVE('',#224,#222,#115,.T.);
#276=EDGE_CURVE('',#225,#224,#116,.T.);
#277=EDGE_CURVE('',#223,#225,#117,.T.);
#278=EDGE_CURVE('',#226,#223,#118,.T.);
#279=EDGE_CURVE('',#225,#227,#119,.T.);
#280=EDGE_CURVE('',#227,#226,#120,.T.);
#281=EDGE_CURVE('',#224,#228,#121,.T.);
#282=EDGE_CURVE('',#228,#227,#122,.T.);
#283=EDGE_CURVE('',#222,#229,#123,.T.);
#284=EDGE_CURVE('',#229,#228,#124,.T.);
#285=EDGE_CURVE('',#226,#229,#125,.T.);
#286=EDGE_CURVE('',#230,#231,#126,.T.);
#287=EDGE_CURVE('',#232,#230,#127,.T.);
#288=EDGE_CURVE('',#233,#232,#128,.T.);
#289=EDGE_CURVE('',#231,#233,#129,.T.);
#290=EDGE_CURVE('',#234,#231,#130,.T.);
#291=EDGE_CURVE('',#233,#235,#131,.T.);
#292=EDGE_CURVE('',#235,#234,#132,.T.);
#293=EDGE_CURVE('',#232,#236,#133,.T.);
#294=EDGE_CURVE('',#236,#235,#134,.T.);
#295=EDGE_CURVE('',#230,#237,#135,.T.);
#296=EDGE_CURVE('',#237,#236,#136,.T.);
#297=EDGE_CURVE('',#234,#237,#137,.T.);
#298=ORIENTED_EDGE('',*,*,#238,.T.);
#299=ORIENTED_EDGE('',*,*,#239,.T.);
#300=ORIENTED_EDGE('',*,*,#240,.T.);
#301=ORIENTED_EDGE('',*,*,#241,.T.);
#302=ORIENTED_EDGE('',*,*,#242,.F.);
#303=ORIENTED_EDGE('',*,*,#243,.F.);
#304=ORIENTED_EDGE('',*,*,#244,.F.);
#305=ORIENTED_EDGE('',*,*,#239,.F.);
#306=ORIENTED_EDGE('',*,*,#244,.T.);
#307=ORIENTED_EDGE('',*,*,#245,.F.);
#308=ORIENTED_EDGE('',*,*,#246,.F.);
#309=ORIENTED_EDGE('',*,*,#240,.F.);
#310=ORIENTED_EDGE('',*,*,#246,.T.);
#311=ORIENTED_EDGE('',*,*,#247,.F.);
#312=ORIENTED_EDGE('',*,*,#248,.F.);
#313=ORIENTED_EDGE('',*,*,#241,.F.);
#314=ORIENTED_EDGE('',*,*,#248,.T.);
#315=ORIENTED_EDGE('',*,*,#249,.F.);
#316=ORIENTED_EDGE('',*,*,#242,.T.);
#317=ORIENTED_EDGE('',*,*,#238,.F.);
#318=ORIENTED_EDGE('',*,*,#249,.T.);
#319=ORIENTED_EDGE('',*,*,#247,.T.);
#320=ORIENTED_EDGE('',*,*,#245,.T.);
#321=ORIENTED_EDGE('',*,*,#243,.T.);
#322=ORIENTED_EDGE('',*,*,#250,.F.);
#323=ORIENTED_EDGE('',*,*,#251,.F.);
#324=ORIENTED_EDGE('',*,*,#252,.F.);
#325=ORIENTED_EDGE('',*,*,#253,.F.);
#326=ORIENTED_EDGE('',*,*,#254,.T.);
#327=ORIENTED_EDGE('',*,*,#253,.T.);
#328=ORIENTED_EDGE('',*,*,#255,.T.);
#329=ORIENTED_EDGE('',*,*,#256,.T.);
#330=ORIENTED_EDGE('',*,*,#255,.F.);
#331=ORIENTED_EDGE('',*,*,#252,.T.);
#332=ORIENTED_EDGE('',*,*,#257,.T.);
#333=ORIENTED_EDGE('',*,*,#258,.T.);
#334=ORIENTED_EDGE('',*,*,#257,.F.);
#335=ORIENTED_EDGE('',*,*,#251,.T.);
#336=ORIENTED_EDGE('',*,*,#259,.T.);
#337=ORIENTED_EDGE('',*,*,#260,.T.);
#338=ORIENTED_EDGE('',*,*,#259,.F.);
#339=ORIENTED_EDGE('',*,*,#250,.T.);
#340=ORIENTED_EDGE('',*,*,#254,.F.);
#341=ORIENTED_EDGE('',*,*,#261,.T.);
#342=ORIENTED_EDGE('',*,*,#261,.F.);
#343=ORIENTED_EDGE('',*,*,#256,.F.);
#344=ORIENTED_EDGE('',*,*,#258,.F.);
#345=ORIENTED_EDGE('',*,*,#260,.F.);
#346=ORIENTED_EDGE('',*,*,#262,.F.);
#347=ORIENTED_EDGE('',*,*,#263,.F.);
#348=ORIENTED_EDGE('',*,*,#264,.F.);
#349=ORIENTED_EDGE('',*,*,#265,.F.);
#350=ORIENTED_EDGE('',*,*,#266,.T.);
#351=ORIENTED_EDGE('',*,*,#265,.T.);
#352=ORIENTED_EDGE('',*,*,#267,.T.);
#353=ORIENTED_EDGE('',*,*,#268,.T.);
#354=ORIENTED_EDGE('',*,*,#267,.F.);
#355=ORIENTED_EDGE('',*,*,#264,.T.);
#356=ORIENTED_EDGE('',*,*,#269,.T.);
#357=ORIENTED_EDGE('',*,*,#270,.T.);
#358=ORIENTED_EDGE('',*,*,#269,.F.);
#359=ORIENTED_EDGE('',*,*,#263,.T.);
#360=ORIENTED_EDGE('',*,*,#271,.T.);
#361=ORIENTED_EDGE('',*,*,#272,.T.);
#362=ORIENTED_EDGE('',*,*,#271,.F.);
#363=ORIENTED_EDGE('',*,*,#262,.T.);
#364=ORIENTED_EDGE('',*,*,#266,.F.);
#365=ORIENTED_EDGE('',*,*,#273,.T.);
#366=ORIENTED_EDGE('',*,*,#273,.F.);
#367=ORIENTED_EDGE('',*,*,#268,.F.);
#368=ORIENTED_EDGE('',*,*,#270,.F.);
#369=ORIENTED_EDGE('',*,*,#272,.F.);
#370=ORIENTED_EDGE('',*,*,#274,.F.);
#371=ORIENTED_EDGE('',*,*,#275,.F.);
#372=ORIENTED_EDGE('',*,*,#276,.F.);
#373=ORIENTED_EDGE('',*,*,#277,.F.);
#374=ORIENTED_EDGE('',*,*,#278,.T.);
#375=ORIENTED_EDGE('',*,*,#277,.T.);
#376=ORIENTED_EDGE('',*,*,#279,.T.);
#377=ORIENTED_EDGE('',*,*,#280,.T.);
#378=ORIENTED_EDGE('',*,*,#279,.F.);
#379=ORIENTED_EDGE('',*,*,#276,.T.);
#380=ORIENTED_EDGE('',*,*,#281,.T.);
#381=ORIENTED_EDGE('',*,*,#282,.T.);
#382=ORIENTED_EDGE('',*,*,#281,.F.);
#383=ORIENTED_EDGE('',*,*,#275,.T.);
#384=ORIENTED_EDGE('',*,*,#283,.T.);
#385=ORIENTED_EDGE('',*,*,#284,.T.);
#386=ORIENTED_EDGE('',*,*,#283,.F.);
#387=ORIENTED_EDGE('',*,*,#274,.T.);
#388=ORIENTED_EDGE('',*,*,#278,.F.);
#389=ORIENTED_EDGE('',*,*,#285,.T.);
#390=ORIENTED_EDGE('',*,*,#285,.F.);
#391=ORIENTED_EDGE('',*,*,#280,.F.);
#392=ORIENTED_EDGE('',*,*,#282,.F.);
#393=ORIENTED_EDGE('',*,*,#284,.F.);
#394=ORIENTED_EDGE('',*,*,#286,.F.);
#395=ORIENTED_EDGE('',*,*,#287,.F.);
#396=ORIENTED_EDGE('',*,*,#288,.F.);
#397=ORIENTED_EDGE('',*,*,#289,.F.);
#398=ORIENTED_EDGE('',*,*,#290,.T.);
#399=ORIENTED_EDGE('',*,*,#289,.T.);
#400=ORIENTED_EDGE('',*,*,#291,.T.);
#401=ORIENTED_EDGE('',*,*,#292,.T.);
#402=ORIENTED_EDGE('',*,*,#291,.F.);
#403=ORIENTED_EDGE('',*,*,#288,.T.);
#404=ORIENTED_EDGE('',*,*,#293,.T.);
#405=ORIENTED_EDGE('',*,*,#294,.T.);
#406=ORIENTED_EDGE('',*,*,#293,.F.);
#407=ORIENTED_EDGE('',*,*,#287,.T.);
#408=ORIENTED_EDGE('',*,*,#295,.T.);
#409=ORIENTED_EDGE('',*,*,#296,.T.);
#410=ORIENTED_EDGE('',*,*,#295,.F.);
#411=ORIENTED_EDGE('',*,*,#286,.T.);
#412=ORIENTED_EDGE('',*,*,#290,.F.);
#413=ORIENTED_EDGE('',*,*,#297,.T.);
#414=ORIENTED_EDGE('',*,*,#297,.F.);
#415=ORIENTED_EDGE('',*,*,#292,.F.);
#416=ORIENTED_EDGE('',*,*,#294,.F.);
#417=ORIENTED_EDGE('',*,*,#296,.F.);
#418=PLANE('',#497);
#419=PLANE('',#498);
#420=PLANE('',#499);
#421=PLANE('',#500);
#422=PLANE('',#501);
#423=PLANE('',#502);
#424=PLANE('',#503);
#425=PLANE('',#504);
#426=PLANE('',#505);
#427=PLANE('',#506);
#428=PLANE('',#507);
#429=PLANE('',#508);
#430=PLANE('',#509);
#431=PLANE('',#510);
#432=PLANE('',#511);
#433=PLANE('',#512);
#434=PLANE('',#513);
#435=PLANE('',#514);
#436=PLANE('',#515);
#437=PLANE('',#516);
#438=PLANE('',#517);
#439=PLANE('',#518);
#440=PLANE('',#519);
#441=PLANE('',#520);
#442=PLANE('',#521);
#443=PLANE('',#522);
#444=PLANE('',#523);
#445=PLANE('',#524);
#446=PLANE('',#525);
#447=PLANE('',#526);
#448=ADVANCED_FACE('',(#18),#418,.T.);
#449=ADVANCED_FACE('',(#19),#419,.T.);
#450=ADVANCED_FACE('',(#20),#420,.T.);
#451=ADVANCED_FACE('',(#21),#421,.T.);
#452=ADVANCED_FACE('',(#22),#422,.T.);
#453=ADVANCED_FACE('',(#23),#423,.T.);
#454=ADVANCED_FACE('',(#24),#424,.F.);
#455=ADVANCED_FACE('',(#25),#425,.F.);
#456=ADVANCED_FACE('',(#26),#426,.F.);
#457=ADVANCED_FACE('',(#27),#427,.F.);
#458=ADVANCED_FACE('',(#28),#428,.F.);
#459=ADVANCED_FACE('',(#29),#429,.F.);
#460=ADVANCED_FACE('',(#30),#430,.F.);
#461=ADVANCED_FACE('',(#31),#431,.F.);
#462=ADVANCED_FACE('',(#32),#432,.F.);
#463=ADVANCED_FACE('',(#33),#433,.F.);
#464=ADVANCED_FACE('',(#34),#434,.F.);
#465=ADVANCED_FACE('',(#35),#435,.F.);
#466=ADVANCED_FACE('',(#36),#436,.F.);
#467=ADVANCED_FACE('',(#37),#437,.F.);
#468=ADVANCED_FACE('',(#38),#438,.F.);
#469=ADVANCED_FACE('',(#39),#439,.F.);
#470=ADVANCED_FACE('',(#40),#440,.F.);
#471=ADVANCED_FACE('',(#41),#441,.F.);
#472=ADVANCED_FACE('',(#42),#442,.F.);
#473=ADVANCED_FACE('',(#43),#443,.F.);
#474=ADVANCED_FACE('',(#44),#444,.F.);
#475=ADVANCED_FACE('',(#45),#445,.F.);
#476=ADVANCED_FACE('',(#46),#446,.F.);
#477=ADVANCED_FACE('',(#47),#447,.F.);
#478=CLOSED_SHELL('',(#448,#449,#450,#451,#452,#453));
#479=CLOSED_SHELL('',(#454,#455,#456,#457,#458,#459));
#480=CLOSED_SHELL('',(#460,#461,#462,#463,#464,#465));
#481=CLOSED_SHELL('',(#466,#467,#468,#469,#470,#471));
#482=CLOSED_SHELL('',(#472,#473,#474,#475,#476,#477));
#483=BREP_WITH_VOIDS('Body1',#478,(#14,#15,#16,#17));
#484=DERIVED_UNIT_ELEMENT(#486,1.);
#485=DERIVED_UNIT_ELEMENT(#785,-3.);
#486=(
MASS_UNIT()
NAMED_UNIT(*)
SI_UNIT(.KILO.,.GRAM.)
);
#487=DERIVED_UNIT((#484,#485));
#488=MEASURE_REPRESENTATION_ITEM('density measure',
POSITIVE_RATIO_MEASURE(7850.),#487);
#489=PROPERTY_DEFINITION_REPRESENTATION(#494,#491);
#490=PROPERTY_DEFINITION_REPRESENTATION(#495,#492);
#491=REPRESENTATION('material name',(#493),#782);
#492=REPRESENTATION('density',(#488),#782);
#493=DESCRIPTIVE_REPRESENTATION_ITEM('Steel','Steel');
#494=PROPERTY_DEFINITION('material property','material name',#792);
#495=PROPERTY_DEFINITION('material property','density of part',#792);
#496=AXIS2_PLACEMENT_3D('',#649,#527,#528);
#497=AXIS2_PLACEMENT_3D('',#650,#529,#530);
#498=AXIS2_PLACEMENT_3D('',#659,#535,#536);
#499=AXIS2_PLACEMENT_3D('',#665,#540,#541);
#500=AXIS2_PLACEMENT_3D('',#669,#544,#545);
#501=AXIS2_PLACEMENT_3D('',#673,#548,#549);
#502=AXIS2_PLACEMENT_3D('',#675,#551,#552);
#503=AXIS2_PLACEMENT_3D('',#676,#553,#554);
#504=AXIS2_PLACEMENT_3D('',#685,#559,#560);
#505=AXIS2_PLACEMENT_3D('',#691,#564,#565);
#506=AXIS2_PLACEMENT_3D('',#695,#568,#569);
#507=AXIS2_PLACEMENT_3D('',#699,#572,#573);
#508=AXIS2_PLACEMENT_3D('',#701,#575,#576);
#509=AXIS2_PLACEMENT_3D('',#702,#577,#578);
#510=AXIS2_PLACEMENT_3D('',#711,#583,#584);
#511=AXIS2_PLACEMENT_3D('',#717,#588,#589);
#512=AXIS2_PLACEMENT_3D('',#721,#592,#593);
#513=AXIS2_PLACEMENT_3D('',#725,#596,#597);
#514=AXIS2_PLACEMENT_3D('',#727,#599,#600);
#515=AXIS2_PLACEMENT_3D('',#728,#601,#602);
#516=AXIS2_PLACEMENT_3D('',#737,#607,#608);
#517=AXIS2_PLACEMENT_3D('',#743,#612,#613);
#518=AXIS2_PLACEMENT_3D('',#747,#616,#617);
#519=AXIS2_PLACEMENT_3D('',#751,#620,#621);
#520=AXIS2_PLACEMENT_3D('',#753,#623,#624);
#521=AXIS2_PLACEMENT_3D('',#754,#625,#626);
#522=AXIS2_PLACEMENT_3D('',#763,#631,#632);
#523=AXIS2_PLACEMENT_3D('',#769,#636,#637);
#524=AXIS2_PLACEMENT_3D('',#773,#640,#641);
#525=AXIS2_PLACEMENT_3D('',#777,#644,#645);
#526=AXIS2_PLACEMENT_3D('',#779,#647,#648);
#527=DIRECTION('axis',(0.,0.,1.));
#528=DIRECTION('refdir',(1.,0.,0.));
#529=DIRECTION('center_axis',(-1.,0.,0.));
#530=DIRECTION('ref_axis',(0.,0.,1.));
#531=DIRECTION('',(0.,-1.,0.));
#532=DIRECTION('',(0.,0.,1.));
#533=DIRECTION('',(0.,1.,0.));
#534=DIRECTION('',(0.,0.,-1.));
#535=DIRECTION('center_axis',(0.,-1.,0.));
#536=DIRECTION('ref_axis',(0.,0.,-1.));
#537=DIRECTION('',(-1.,0.,0.));
#538=DIRECTION('',(0.,0.,-1.));
#539=DIRECTION('',(1.,0.,0.));
#540=DIRECTION('center_axis',(0.,0.,1.));
#541=DIRECTION('ref_axis',(0.,-1.,0.));
#542=DIRECTION('',(0.,-1.,0.));
#543=DIRECTION('',(1.,0.,0.));
#544=DIRECTION('center_axis',(0.,1.,0.));
#545=DIRECTION('ref_axis',(0.,0.,1.));
#546=DIRECTION('',(0.,0.,1.));
#547=DIRECTION('',(1.,0.,0.));
#548=DIRECTION('center_axis',(0.,0.,-1.));
#549=DIRECTION('ref_axis',(0.,1.,0.));
#550=DIRECTION('',(0.,1.,0.));
#551=DIRECTION('center_axis',(1.,0.,0.));
#552=DIRECTION('ref_axis',(0.,0.,-1.));
#553=DIRECTION('center_axis',(-1.,0.,0.));
#554=DIRECTION('ref_axis',(0.,0.,1.));
#555=DIRECTION('',(0.,-1.,0.));
#556=DIRECTION('',(0.,0.,-1.));
#557=DIRECTION('',(0.,1.,0.));
#558=DIRECTION('',(0.,0.,1.));
#559=DIRECTION('center_axis',(0.,-1.,0.));
#560=DIRECTION('ref_axis',(0.,0.,-1.));
#561=DIRECTION('',(-1.,0.,0.));
#562=DIRECTION('',(1.,0.,0.));
#563=DIRECTION('',(0.,0.,-1.));
#564=DIRECTION('center_axis',(0.,0.,1.));
#565=DIRECTION('ref_axis',(0.,-1.,0.));
#566=DIRECTION('',(1.,0.,0.));
#567=DIRECTION('',(0.,-1.,0.));
#568=DIRECTION('center_axis',(0.,1.,0.));
#569=DIRECTION('ref_axis',(0.,0.,1.));
#570=DIRECTION('',(1.,0.,0.));
#571=DIRECTION('',(0.,0.,1.));
#572=DIRECTION('center_axis',(0.,0.,-1.));
#573=DIRECTION('ref_axis',(0.,1.,0.));
#574=DIRECTION('',(0.,1.,0.));
#575=DIRECTION('center_axis',(1.,0.,0.));
#576=DIRECTION('ref_axis',(0.,0.,-1.));
#577=DIRECTION('center_axis',(-1.,0.,0.));
#578=DIRECTION('ref_axis',(0.,0.,1.));
#579=DIRECTION('',(0.,-1.,0.));
#580=DIRECTION('',(0.,0.,-1.));
#581=DIRECTION('',(0.,1.,0.));
#582=DIRECTION('',(0.,0.,1.));
#583=DIRECTION('center_axis',(0.,-1.,0.));
#584=DIRECTION('ref_axis',(0.,0.,-1.));
#585=DIRECTION('',(-1.,0.,0.));
#586=DIRECTION('',(1.,0.,0.));
#587=DIRECTION('',(0.,0.,-1.));
#588=DIRECTION('center_axis',(0.,0.,1.));
#589=DIRECTION('ref_axis',(0.,-1.,0.));
#590=DIRECTION('',(1.,0.,0.));
#591=DIRECTION('',(0.,-1.,0.));
#592=DIRECTION('center_axis',(0.,1.,0.));
#593=DIRECTION('ref_axis',(0.,0.,1.));
#594=DIRECTION('',(1.,0.,0.));
#595=DIRECTION('',(0.,0.,1.));
#596=DIRECTION('center_axis',(0.,0.,-1.));
#597=DIRECTION('ref_axis',(0.,1.,0.));
#598=DIRECTION('',(0.,1.,0.));
#599=DIRECTION('center_axis',(1.,0.,0.));
#600=DIRECTION('ref_axis',(0.,0.,-1.));
#601=DIRECTION('center_axis',(-1.,0.,0.));
#602=DIRECTION('ref_axis',(0.,0.,1.));
#603=DIRECTION('',(0.,-1.,0.));
#604=DIRECTION('',(0.,0.,-1.));
#605=DIRECTION('',(0.,1.,0.));
#606=DIRECTION('',(0.,0.,1.));
#607=DIRECTION('center_axis',(0.,-1.,0.));
#608=DIRECTION('ref_axis',(0.,0.,-1.));
#609=DIRECTION('',(-1.,0.,0.));
#610=DIRECTION('',(1.,0.,0.));
#611=DIRECTION('',(0.,0.,-1.));
#612=DIRECTION('center_axis',(0.,0.,1.));
#613=DIRECTION('ref_axis',(0.,-1.,0.));
#614=DIRECTION('',(1.,0.,0.));
#615=DIRECTION('',(0.,-1.,0.));
#616=DIRECTION('center_axis',(0.,1.,0.));
#617=DIRECTION('ref_axis',(0.,0.,1.));
#618=DIRECTION('',(1.,0.,0.));
#619=DIRECTION('',(0.,0.,1.));
#620=DIRECTION('center_axis',(0.,0.,-1.));
#621=DIRECTION('ref_axis',(0.,1.,0.));
#622=DIRECTION('',(0.,1.,0.));
#623=DIRECTION('center_axis',(1.,0.,0.));
#624=DIRECTION('ref_axis',(0.,0.,-1.));
#625=DIRECTION('center_axis',(-1.,0.,0.));
#626=DIRECTION('ref_axis',(0.,0.,1.));
#627=DIRECTION('',(0.,-1.,0.));
#628=DIRECTION('',(0.,0.,-1.));
#629=DIRECTION('',(0.,1.,0.));
#630=DIRECTION('',(0.,0.,1.));
#631=DIRECTION('center_axis',(0.,-1.,0.));
#632=DIRECTION('ref_axis',(0.,0.,-1.));
#633=DIRECTION('',(-1.,0.,0.));
#634=DIRECTION('',(1.,0.,0.));
#635=DIRECTION('',(0.,0.,-1.));
#636=DIRECTION('center_axis',(0.,0.,1.));
#637=DIRECTION('ref_axis',(0.,-1.,0.));
#638=DIRECTION('',(1.,0.,0.));
#639=DIRECTION('',(0.,-1.,0.));
#640=DIRECTION('center_axis',(0.,1.,0.));
#641=DIRECTION('ref_axis',(0.,0.,1.));
#642=DIRECTION('',(1.,0.,0.));
#643=DIRECTION('',(0.,0.,1.));
#644=DIRECTION('center_axis',(0.,0.,-1.));
#645=DIRECTION('ref_axis',(0.,1.,0.));
#646=DIRECTION('',(0.,1.,0.));
#647=DIRECTION('center_axis',(1.,0.,0.));
#648=DIRECTION('ref_axis',(0.,0.,-1.));
#649=CARTESIAN_POINT('',(0.,0.,0.));
#650=CARTESIAN_POINT('Origin',(-2.5,-39.530419641726,8.5100795052842));
#651=CARTESIAN_POINT('',(-2.5,-29.530419641726,-1.4899204947158));
#652=CARTESIAN_POINT('',(-2.5,-49.530419641726,-1.4899204947158));
#653=CARTESIAN_POINT('',(-2.5,-29.530419641726,-1.4899204947158));
#654=CARTESIAN_POINT('',(-2.5,-49.530419641726,18.5100795052842));
#655=CARTESIAN_POINT('',(-2.5,-49.530419641726,-1.4899204947158));
#656=CARTESIAN_POINT('',(-2.5,-29.530419641726,18.5100795052842));
#657=CARTESIAN_POINT('',(-2.5,-49.530419641726,18.5100795052842));
#658=CARTESIAN_POINT('',(-2.5,-29.530419641726,18.5100795052842));
#659=CARTESIAN_POINT('Origin',(0.,-49.530419641726,18.5100795052842));
#660=CARTESIAN_POINT('',(2.5,-49.530419641726,-1.4899204947158));
#661=CARTESIAN_POINT('',(0.,-49.530419641726,-1.4899204947158));
#662=CARTESIAN_POINT('',(2.5,-49.530419641726,18.5100795052842));
#663=CARTESIAN_POINT('',(2.5,-49.530419641726,-1.4899204947158));
#664=CARTESIAN_POINT('',(0.,-49.530419641726,18.5100795052842));
#665=CARTESIAN_POINT('Origin',(0.,-29.530419641726,18.5100795052842));
#666=CARTESIAN_POINT('',(2.5,-29.530419641726,18.5100795052842));
#667=CARTESIAN_POINT('',(2.5,-49.530419641726,18.5100795052842));
#668=CARTESIAN_POINT('',(0.,-29.530419641726,18.5100795052842));
#669=CARTESIAN_POINT('Origin',(0.,-29.530419641726,-1.4899204947158));
#670=CARTESIAN_POINT('',(2.5,-29.530419641726,-1.4899204947158));
#671=CARTESIAN_POINT('',(2.5,-29.530419641726,18.5100795052842));
#672=CARTESIAN_POINT('',(0.,-29.530419641726,-1.4899204947158));
#673=CARTESIAN_POINT('Origin',(0.,-49.530419641726,-1.4899204947158));
#674=CARTESIAN_POINT('',(2.5,-29.530419641726,-1.4899204947158));
#675=CARTESIAN_POINT('Origin',(2.5,-39.530419641726,8.5100795052842));
#676=CARTESIAN_POINT('Origin',(-1.9,-32.8247986553015,1.96109354945609));
#677=CARTESIAN_POINT('',(-1.9,-31.8247986553015,0.961093549456088));
#678=CARTESIAN_POINT('',(-1.9,-33.8247986553015,0.961093549456088));
#679=CARTESIAN_POINT('',(-1.9,-31.8247986553015,0.961093549456088));
#680=CARTESIAN_POINT('',(-1.9,-31.8247986553015,2.96109354945609));
#681=CARTESIAN_POINT('',(-1.9,-31.8247986553015,2.96109354945609));
#682=CARTESIAN_POINT('',(-1.9,-33.8247986553015,2.96109354945609));
#683=CARTESIAN_POINT('',(-1.9,-33.8247986553015,2.96109354945609));
#684=CARTESIAN_POINT('',(-1.9,-33.8247986553015,0.961093549456088));
#685=CARTESIAN_POINT('Origin',(-1.5,-33.8247986553015,2.96109354945609));
#686=CARTESIAN_POINT('',(-1.1,-33.8247986553015,0.961093549456088));
#687=CARTESIAN_POINT('',(-1.5,-33.8247986553015,0.961093549456088));
#688=CARTESIAN_POINT('',(-1.1,-33.8247986553015,2.96109354945609));
#689=CARTESIAN_POINT('',(-1.5,-33.8247986553015,2.96109354945609));
#690=CARTESIAN_POINT('',(-1.1,-33.8247986553015,0.961093549456088));
#691=CARTESIAN_POINT('Origin',(-1.5,-31.8247986553015,2.96109354945609));
#692=CARTESIAN_POINT('',(-1.1,-31.8247986553015,2.96109354945609));
#693=CARTESIAN_POINT('',(-1.5,-31.8247986553015,2.96109354945609));
#694=CARTESIAN_POINT('',(-1.1,-33.8247986553015,2.96109354945609));
#695=CARTESIAN_POINT('Origin',(-1.5,-31.8247986553015,0.961093549456088));
#696=CARTESIAN_POINT('',(-1.1,-31.8247986553015,0.961093549456088));
#697=CARTESIAN_POINT('',(-1.5,-31.8247986553015,0.961093549456088));
#698=CARTESIAN_POINT('',(-1.1,-31.8247986553015,2.96109354945609));
#699=CARTESIAN_POINT('Origin',(-1.5,-33.8247986553015,0.961093549456088));
#700=CARTESIAN_POINT('',(-1.1,-31.8247986553015,0.961093549456088));
#701=CARTESIAN_POINT('Origin',(-1.1,-32.8247986553015,1.96109354945609));
#702=CARTESIAN_POINT('Origin',(-0.900000000000001,-37.0813816079308,6.18928935052009));
#703=CARTESIAN_POINT('',(-0.900000000000001,-36.0813816079308,5.18928935052009));
#704=CARTESIAN_POINT('',(-0.900000000000001,-38.0813816079308,5.18928935052009));
#705=CARTESIAN_POINT('',(-0.900000000000001,-36.0813816079308,5.18928935052009));
#706=CARTESIAN_POINT('',(-0.900000000000001,-36.0813816079308,7.18928935052009));
#707=CARTESIAN_POINT('',(-0.900000000000001,-36.0813816079308,7.18928935052009));
#708=CARTESIAN_POINT('',(-0.900000000000001,-38.0813816079308,7.18928935052009));
#709=CARTESIAN_POINT('',(-0.900000000000001,-38.0813816079308,7.18928935052009));
#710=CARTESIAN_POINT('',(-0.900000000000001,-38.0813816079308,5.18928935052009));
#711=CARTESIAN_POINT('Origin',(-0.5,-38.0813816079308,7.18928935052009));
#712=CARTESIAN_POINT('',(-0.1,-38.0813816079308,5.18928935052009));
#713=CARTESIAN_POINT('',(-0.5,-38.0813816079308,5.18928935052009));
#714=CARTESIAN_POINT('',(-0.1,-38.0813816079308,7.18928935052009));
#715=CARTESIAN_POINT('',(-0.5,-38.0813816079308,7.18928935052009));
#716=CARTESIAN_POINT('',(-0.1,-38.0813816079308,5.18928935052009));
#717=CARTESIAN_POINT('Origin',(-0.5,-36.0813816079308,7.18928935052009));
#718=CARTESIAN_POINT('',(-0.1,-36.0813816079308,7.18928935052009));
#719=CARTESIAN_POINT('',(-0.5,-36.0813816079308,7.18928935052009));
#720=CARTESIAN_POINT('',(-0.1,-38.0813816079308,7.18928935052009));
#721=CARTESIAN_POINT('Origin',(-0.5,-36.0813816079308,5.18928935052009));
#722=CARTESIAN_POINT('',(-0.1,-36.0813816079308,5.18928935052009));
#723=CARTESIAN_POINT('',(-0.5,-36.0813816079308,5.18928935052009));
#724=CARTESIAN_POINT('',(-0.1,-36.0813816079308,7.18928935052009));
#725=CARTESIAN_POINT('Origin',(-0.5,-38.0813816079308,5.18928935052009));
#726=CARTESIAN_POINT('',(-0.1,-36.0813816079308,5.18928935052009));
#727=CARTESIAN_POINT('Origin',(-0.1,-37.0813816079308,6.18928935052009));
#728=CARTESIAN_POINT('Origin',(1.1,-42.5971430390795,10.8557544076773));
#729=CARTESIAN_POINT('',(1.1,-41.5971430390795,9.85575440767729));
#730=CARTESIAN_POINT('',(1.1,-43.5971430390795,9.85575440767729));
#731=CARTESIAN_POINT('',(1.1,-41.5971430390795,9.85575440767729));
#732=CARTESIAN_POINT('',(1.1,-41.5971430390795,11.8557544076773));
#733=CARTESIAN_POINT('',(1.1,-41.5971430390795,11.8557544076773));
#734=CARTESIAN_POINT('',(1.1,-43.5971430390795,11.8557544076773));
#735=CARTESIAN_POINT('',(1.1,-43.5971430390795,11.8557544076773));
#736=CARTESIAN_POINT('',(1.1,-43.5971430390795,9.85575440767729));
#737=CARTESIAN_POINT('Origin',(1.5,-43.5971430390795,11.8557544076773));
#738=CARTESIAN_POINT('',(1.9,-43.5971430390795,9.85575440767729));
#739=CARTESIAN_POINT('',(1.5,-43.5971430390795,9.85575440767729));
#740=CARTESIAN_POINT('',(1.9,-43.5971430390795,11.8557544076773));
#741=CARTESIAN_POINT('',(1.5,-43.5971430390795,11.8557544076773));
#742=CARTESIAN_POINT('',(1.9,-43.5971430390795,9.85575440767729));
#743=CARTESIAN_POINT('Origin',(1.5,-41.5971430390795,11.8557544076773));
#744=CARTESIAN_POINT('',(1.9,-41.5971430390795,11.8557544076773));
#745=CARTESIAN_POINT('',(1.5,-41.5971430390795,11.8557544076773));
#746=CARTESIAN_POINT('',(1.9,-43.5971430390795,11.8557544076773));
#747=CARTESIAN_POINT('Origin',(1.5,-41.5971430390795,9.85575440767729));
#748=CARTESIAN_POINT('',(1.9,-41.5971430390795,9.85575440767729));
#749=CARTESIAN_POINT('',(1.5,-41.5971430390795,9.85575440767729));
#750=CARTESIAN_POINT('',(1.9,-41.5971430390795,11.8557544076773));
#751=CARTESIAN_POINT('Origin',(1.5,-43.5971430390795,9.85575440767729));
#752=CARTESIAN_POINT('',(1.9,-41.5971430390795,9.85575440767729));
#753=CARTESIAN_POINT('Origin',(1.9,-42.5971430390795,10.8557544076773));
#754=CARTESIAN_POINT('Origin',(-0.4,-47.0104103852692,15.5682839916056));
#755=CARTESIAN_POINT('',(-0.4,-46.0104103852692,14.5682839916056));
#756=CARTESIAN_POINT('',(-0.4,-48.0104103852692,14.5682839916056));
#757=CARTESIAN_POINT('',(-0.4,-46.0104103852692,14.5682839916056));
#758=CARTESIAN_POINT('',(-0.4,-46.0104103852692,16.5682839916056));
#759=CARTESIAN_POINT('',(-0.4,-46.0104103852692,16.5682839916056));
#760=CARTESIAN_POINT('',(-0.4,-48.0104103852692,16.5682839916056));
#761=CARTESIAN_POINT('',(-0.4,-48.0104103852692,16.5682839916056));
#762=CARTESIAN_POINT('',(-0.4,-48.0104103852692,14.5682839916056));
#763=CARTESIAN_POINT('Origin',(0.,-48.0104103852692,16.5682839916056));
#764=CARTESIAN_POINT('',(0.4,-48.0104103852692,14.5682839916056));
#765=CARTESIAN_POINT('',(0.,-48.0104103852692,14.5682839916056));
#766=CARTESIAN_POINT('',(0.4,-48.0104103852692,16.5682839916056));
#767=CARTESIAN_POINT('',(0.,-48.0104103852692,16.5682839916056));
#768=CARTESIAN_POINT('',(0.4,-48.0104103852692,14.5682839916056));
#769=CARTESIAN_POINT('Origin',(0.,-46.0104103852692,16.5682839916056));
#770=CARTESIAN_POINT('',(0.4,-46.0104103852692,16.5682839916056));
#771=CARTESIAN_POINT('',(0.,-46.0104103852692,16.5682839916056));
#772=CARTESIAN_POINT('',(0.4,-48.0104103852692,16.5682839916056));
#773=CARTESIAN_POINT('Origin',(0.,-46.0104103852692,14.5682839916056));
#774=CARTESIAN_POINT('',(0.4,-46.0104103852692,14.5682839916056));
#775=CARTESIAN_POINT('',(0.,-46.0104103852692,14.5682839916056));
#776=CARTESIAN_POINT('',(0.4,-46.0104103852692,16.5682839916056));
#777=CARTESIAN_POINT('Origin',(0.,-48.0104103852692,14.5682839916056));
#778=CARTESIAN_POINT('',(0.4,-46.0104103852692,14.5682839916056));
#779=CARTESIAN_POINT('Origin',(0.4,-47.0104103852692,15.5682839916056));
#780=UNCERTAINTY_MEASURE_WITH_UNIT(LENGTH_MEASURE(0.01),#784,
'DISTANCE_ACCURACY_VALUE',
'Maximum model space distance between geometric entities at asserted c
onnectivities');
#781=UNCERTAINTY_MEASURE_WITH_UNIT(LENGTH_MEASURE(0.01),#784,
'DISTANCE_ACCURACY_VALUE',
'Maximum model space distance between geometric entities at asserted c
onnectivities');
#782=(
GEOMETRIC_REPRESENTATION_CONTEXT(3)
GLOBAL_UNCERTAINTY_ASSIGNED_CONTEXT((#780))
GLOBAL_UNIT_ASSIGNED_CONTEXT((#784,#786,#787))
REPRESENTATION_CONTEXT('','3D')
);
#783=(
GEOMETRIC_REPRESENTATION_CONTEXT(3)
GLOBAL_UNCERTAINTY_ASSIGNED_CONTEXT((#781))
GLOBAL_UNIT_ASSIGNED_CONTEXT((#784,#786,#787))
REPRESENTATION_CONTEXT('','3D')
);
#784=(
LENGTH_UNIT()
NAMED_UNIT(*)
SI_UNIT(.MILLI.,.METRE.)
);
#785=(
LENGTH_UNIT()
NAMED_UNIT(*)
SI_UNIT($,.METRE.)
);
#786=(
NAMED_UNIT(*)
PLANE_ANGLE_UNIT()
SI_UNIT($,.RADIAN.)
);
#787=(
NAMED_UNIT(*)
SI_UNIT($,.STERADIAN.)
SOLID_ANGLE_UNIT()
);
#788=SHAPE_DEFINITION_REPRESENTATION(#789,#790);
#789=PRODUCT_DEFINITION_SHAPE('',$,#792);
#790=SHAPE_REPRESENTATION('',(#496),#782);
#791=PRODUCT_DEFINITION_CONTEXT('part definition',#796,'design');
#792=PRODUCT_DEFINITION('2026-02-10-18-19-34-215','CV03',#793,#791);
#793=PRODUCT_DEFINITION_FORMATION('',$,#798);
#794=PRODUCT_RELATED_PRODUCT_CATEGORY('CV03','CV03',(#798));
#795=APPLICATION_PROTOCOL_DEFINITION('international standard',
'automotive_design',2009,#796);
#796=APPLICATION_CONTEXT(
'Core Data for Automotive Mechanical Design Process');
#797=PRODUCT_CONTEXT('part definition',#796,'mechanical');
#798=PRODUCT('2026-02-10-18-19-34-215','CV03',$,(#797));
#799=PRESENTATION_STYLE_ASSIGNMENT((#800));
#800=SURFACE_STYLE_USAGE(.BOTH.,#801);
#801=SURFACE_SIDE_STYLE('',(#802));
#802=SURFACE_STYLE_FILL_AREA(#803);
#803=FILL_AREA_STYLE('Steel - Satin',(#804));
#804=FILL_AREA_STYLE_COLOUR('Steel - Satin',#805);
#805=COLOUR_RGB('Steel - Satin',0.627450980392157,0.627450980392157,0.627450980392157);
ENDSEC;
END-ISO-10303-21;
