ISO-10303-21;
HEADER;
/* Generated by software containing ST-Developer
 * from STEP Tools, Inc. (www.steptools.com) 
 */

FILE_DESCRIPTION(
/* description */ (''),
/* implementation_level */ '2;1');

FILE_NAME(
/* name */ 'CV04.step',
/* time_stamp */ '2026-03-17T10:47:50-04:00',
/* author */ (''),
/* organization */ (''),
/* preprocessor_version */ 'ST-DEVELOPER v20.1',
/* originating_system */ 'Autodesk Translation Framework v14.24.0.0',
/* authorisation */ '');

FILE_SCHEMA (('AUTOMOTIVE_DESIGN { 1 0 10303 214 3 1 1 }'));
ENDSEC;

DATA;
#10=MECHANICAL_DESIGN_GEOMETRIC_PRESENTATION_REPRESENTATION('',(#13),#395);
#11=SHAPE_REPRESENTATION_RELATIONSHIP('SRR','None',#402,#12);
#12=ADVANCED_BREP_SHAPE_REPRESENTATION('',(#223),#394);
#13=STYLED_ITEM('',(#411),#223);
#14=ORIENTED_CLOSED_SHELL('',*,#219,.F.);
#15=ORIENTED_CLOSED_SHELL('',*,#220,.F.);
#16=ORIENTED_CLOSED_SHELL('',*,#221,.F.);
#17=ORIENTED_CLOSED_SHELL('',*,#222,.F.);
#18=CYLINDRICAL_SURFACE('',#245,3.);
#19=CYLINDRICAL_SURFACE('',#250,3.);
#20=CYLINDRICAL_SURFACE('',#255,3.);
#21=CYLINDRICAL_SURFACE('',#260,3.);
#22=CIRCLE('',#244,3.);
#23=CIRCLE('',#246,3.);
#24=CIRCLE('',#249,3.);
#25=CIRCLE('',#251,3.);
#26=CIRCLE('',#254,3.);
#27=CIRCLE('',#256,3.);
#28=CIRCLE('',#259,3.);
#29=CIRCLE('',#261,3.);
#30=FACE_OUTER_BOUND('',#48,.T.);
#31=FACE_OUTER_BOUND('',#49,.T.);
#32=FACE_OUTER_BOUND('',#50,.T.);
#33=FACE_OUTER_BOUND('',#51,.T.);
#34=FACE_OUTER_BOUND('',#52,.T.);
#35=FACE_OUTER_BOUND('',#53,.T.);
#36=FACE_OUTER_BOUND('',#54,.T.);
#37=FACE_OUTER_BOUND('',#55,.T.);
#38=FACE_OUTER_BOUND('',#56,.T.);
#39=FACE_OUTER_BOUND('',#57,.T.);
#40=FACE_OUTER_BOUND('',#58,.T.);
#41=FACE_OUTER_BOUND('',#59,.T.);
#42=FACE_OUTER_BOUND('',#60,.T.);
#43=FACE_OUTER_BOUND('',#61,.T.);
#44=FACE_OUTER_BOUND('',#62,.T.);
#45=FACE_OUTER_BOUND('',#63,.T.);
#46=FACE_OUTER_BOUND('',#64,.T.);
#47=FACE_OUTER_BOUND('',#65,.T.);
#48=EDGE_LOOP('',(#138,#139,#140,#141));
#49=EDGE_LOOP('',(#142,#143,#144,#145));
#50=EDGE_LOOP('',(#146,#147,#148,#149));
#51=EDGE_LOOP('',(#150,#151,#152,#153));
#52=EDGE_LOOP('',(#154,#155,#156,#157));
#53=EDGE_LOOP('',(#158,#159,#160,#161));
#54=EDGE_LOOP('',(#162));
#55=EDGE_LOOP('',(#163,#164,#165,#166));
#56=EDGE_LOOP('',(#167));
#57=EDGE_LOOP('',(#168));
#58=EDGE_LOOP('',(#169,#170,#171,#172));
#59=EDGE_LOOP('',(#173));
#60=EDGE_LOOP('',(#174));
#61=EDGE_LOOP('',(#175,#176,#177,#178));
#62=EDGE_LOOP('',(#179));
#63=EDGE_LOOP('',(#180));
#64=EDGE_LOOP('',(#181,#182,#183,#184));
#65=EDGE_LOOP('',(#185));
#66=LINE('',#337,#82);
#67=LINE('',#339,#83);
#68=LINE('',#341,#84);
#69=LINE('',#342,#85);
#70=LINE('',#345,#86);
#71=LINE('',#347,#87);
#72=LINE('',#348,#88);
#73=LINE('',#351,#89);
#74=LINE('',#352,#90);
#75=LINE('',#355,#91);
#76=LINE('',#356,#92);
#77=LINE('',#358,#93);
#78=LINE('',#365,#94);
#79=LINE('',#373,#95);
#80=LINE('',#381,#96);
#81=LINE('',#389,#97);
#82=VECTOR('',#267,10.);
#83=VECTOR('',#268,10.);
#84=VECTOR('',#269,10.);
#85=VECTOR('',#270,10.);
#86=VECTOR('',#273,10.);
#87=VECTOR('',#274,10.);
#88=VECTOR('',#275,10.);
#89=VECTOR('',#278,10.);
#90=VECTOR('',#279,10.);
#91=VECTOR('',#282,10.);
#92=VECTOR('',#283,10.);
#93=VECTOR('',#286,10.);
#94=VECTOR('',#295,3.);
#95=VECTOR('',#306,3.);
#96=VECTOR('',#317,3.);
#97=VECTOR('',#328,3.);
#98=VERTEX_POINT('',#335);
#99=VERTEX_POINT('',#336);
#100=VERTEX_POINT('',#338);
#101=VERTEX_POINT('',#340);
#102=VERTEX_POINT('',#344);
#103=VERTEX_POINT('',#346);
#104=VERTEX_POINT('',#350);
#105=VERTEX_POINT('',#354);
#106=VERTEX_POINT('',#361);
#107=VERTEX_POINT('',#364);
#108=VERTEX_POINT('',#369);
#109=VERTEX_POINT('',#372);
#110=VERTEX_POINT('',#377);
#111=VERTEX_POINT('',#380);
#112=VERTEX_POINT('',#385);
#113=VERTEX_POINT('',#388);
#114=EDGE_CURVE('',#98,#99,#66,.T.);
#115=EDGE_CURVE('',#99,#100,#67,.T.);
#116=EDGE_CURVE('',#100,#101,#68,.T.);
#117=EDGE_CURVE('',#101,#98,#69,.T.);
#118=EDGE_CURVE('',#102,#99,#70,.T.);
#119=EDGE_CURVE('',#103,#102,#71,.T.);
#120=EDGE_CURVE('',#100,#103,#72,.T.);
#121=EDGE_CURVE('',#104,#103,#73,.T.);
#122=EDGE_CURVE('',#101,#104,#74,.T.);
#123=EDGE_CURVE('',#105,#104,#75,.T.);
#124=EDGE_CURVE('',#98,#105,#76,.T.);
#125=EDGE_CURVE('',#102,#105,#77,.T.);
#126=EDGE_CURVE('',#106,#106,#22,.T.);
#127=EDGE_CURVE('',#106,#107,#78,.T.);
#128=EDGE_CURVE('',#107,#107,#23,.T.);
#129=EDGE_CURVE('',#108,#108,#24,.T.);
#130=EDGE_CURVE('',#108,#109,#79,.T.);
#131=EDGE_CURVE('',#109,#109,#25,.T.);
#132=EDGE_CURVE('',#110,#110,#26,.T.);
#133=EDGE_CURVE('',#110,#111,#80,.T.);
#134=EDGE_CURVE('',#111,#111,#27,.T.);
#135=EDGE_CURVE('',#112,#112,#28,.T.);
#136=EDGE_CURVE('',#112,#113,#81,.T.);
#137=EDGE_CURVE('',#113,#113,#29,.T.);
#138=ORIENTED_EDGE('',*,*,#114,.T.);
#139=ORIENTED_EDGE('',*,*,#115,.T.);
#140=ORIENTED_EDGE('',*,*,#116,.T.);
#141=ORIENTED_EDGE('',*,*,#117,.T.);
#142=ORIENTED_EDGE('',*,*,#118,.F.);
#143=ORIENTED_EDGE('',*,*,#119,.F.);
#144=ORIENTED_EDGE('',*,*,#120,.F.);
#145=ORIENTED_EDGE('',*,*,#115,.F.);
#146=ORIENTED_EDGE('',*,*,#120,.T.);
#147=ORIENTED_EDGE('',*,*,#121,.F.);
#148=ORIENTED_EDGE('',*,*,#122,.F.);
#149=ORIENTED_EDGE('',*,*,#116,.F.);
#150=ORIENTED_EDGE('',*,*,#122,.T.);
#151=ORIENTED_EDGE('',*,*,#123,.F.);
#152=ORIENTED_EDGE('',*,*,#124,.F.);
#153=ORIENTED_EDGE('',*,*,#117,.F.);
#154=ORIENTED_EDGE('',*,*,#124,.T.);
#155=ORIENTED_EDGE('',*,*,#125,.F.);
#156=ORIENTED_EDGE('',*,*,#118,.T.);
#157=ORIENTED_EDGE('',*,*,#114,.F.);
#158=ORIENTED_EDGE('',*,*,#125,.T.);
#159=ORIENTED_EDGE('',*,*,#123,.T.);
#160=ORIENTED_EDGE('',*,*,#121,.T.);
#161=ORIENTED_EDGE('',*,*,#119,.T.);
#162=ORIENTED_EDGE('',*,*,#126,.F.);
#163=ORIENTED_EDGE('',*,*,#126,.T.);
#164=ORIENTED_EDGE('',*,*,#127,.T.);
#165=ORIENTED_EDGE('',*,*,#128,.T.);
#166=ORIENTED_EDGE('',*,*,#127,.F.);
#167=ORIENTED_EDGE('',*,*,#128,.F.);
#168=ORIENTED_EDGE('',*,*,#129,.F.);
#169=ORIENTED_EDGE('',*,*,#129,.T.);
#170=ORIENTED_EDGE('',*,*,#130,.T.);
#171=ORIENTED_EDGE('',*,*,#131,.T.);
#172=ORIENTED_EDGE('',*,*,#130,.F.);
#173=ORIENTED_EDGE('',*,*,#131,.F.);
#174=ORIENTED_EDGE('',*,*,#132,.F.);
#175=ORIENTED_EDGE('',*,*,#132,.T.);
#176=ORIENTED_EDGE('',*,*,#133,.T.);
#177=ORIENTED_EDGE('',*,*,#134,.T.);
#178=ORIENTED_EDGE('',*,*,#133,.F.);
#179=ORIENTED_EDGE('',*,*,#134,.F.);
#180=ORIENTED_EDGE('',*,*,#135,.F.);
#181=ORIENTED_EDGE('',*,*,#135,.T.);
#182=ORIENTED_EDGE('',*,*,#136,.T.);
#183=ORIENTED_EDGE('',*,*,#137,.T.);
#184=ORIENTED_EDGE('',*,*,#136,.F.);
#185=ORIENTED_EDGE('',*,*,#137,.F.);
#186=PLANE('',#237);
#187=PLANE('',#238);
#188=PLANE('',#239);
#189=PLANE('',#240);
#190=PLANE('',#241);
#191=PLANE('',#242);
#192=PLANE('',#243);
#193=PLANE('',#247);
#194=PLANE('',#248);
#195=PLANE('',#252);
#196=PLANE('',#253);
#197=PLANE('',#257);
#198=PLANE('',#258);
#199=PLANE('',#262);
#200=ADVANCED_FACE('',(#30),#186,.T.);
#201=ADVANCED_FACE('',(#31),#187,.T.);
#202=ADVANCED_FACE('',(#32),#188,.T.);
#203=ADVANCED_FACE('',(#33),#189,.T.);
#204=ADVANCED_FACE('',(#34),#190,.T.);
#205=ADVANCED_FACE('',(#35),#191,.T.);
#206=ADVANCED_FACE('',(#36),#192,.T.);
#207=ADVANCED_FACE('',(#37),#18,.F.);
#208=ADVANCED_FACE('',(#38),#193,.F.);
#209=ADVANCED_FACE('',(#39),#194,.T.);
#210=ADVANCED_FACE('',(#40),#19,.F.);
#211=ADVANCED_FACE('',(#41),#195,.F.);
#212=ADVANCED_FACE('',(#42),#196,.T.);
#213=ADVANCED_FACE('',(#43),#20,.F.);
#214=ADVANCED_FACE('',(#44),#197,.F.);
#215=ADVANCED_FACE('',(#45),#198,.T.);
#216=ADVANCED_FACE('',(#46),#21,.F.);
#217=ADVANCED_FACE('',(#47),#199,.F.);
#218=CLOSED_SHELL('',(#200,#201,#202,#203,#204,#205));
#219=CLOSED_SHELL('',(#206,#207,#208));
#220=CLOSED_SHELL('',(#209,#210,#211));
#221=CLOSED_SHELL('',(#212,#213,#214));
#222=CLOSED_SHELL('',(#215,#216,#217));
#223=BREP_WITH_VOIDS('Body1',#218,(#14,#15,#16,#17));
#224=DERIVED_UNIT_ELEMENT(#226,1.);
#225=DERIVED_UNIT_ELEMENT(#397,-3.);
#226=(
MASS_UNIT()
NAMED_UNIT(*)
SI_UNIT(.KILO.,.GRAM.)
);
#227=DERIVED_UNIT((#224,#225));
#228=MEASURE_REPRESENTATION_ITEM('density measure',
POSITIVE_RATIO_MEASURE(7850.),#227);
#229=PROPERTY_DEFINITION_REPRESENTATION(#234,#231);
#230=PROPERTY_DEFINITION_REPRESENTATION(#235,#232);
#231=REPRESENTATION('material name',(#233),#394);
#232=REPRESENTATION('density',(#228),#394);
#233=DESCRIPTIVE_REPRESENTATION_ITEM('Steel','Steel');
#234=PROPERTY_DEFINITION('material property','material name',#404);
#235=PROPERTY_DEFINITION('material property','density of part',#404);
#236=AXIS2_PLACEMENT_3D('',#333,#263,#264);
#237=AXIS2_PLACEMENT_3D('',#334,#265,#266);
#238=AXIS2_PLACEMENT_3D('',#343,#271,#272);
#239=AXIS2_PLACEMENT_3D('',#349,#276,#277);
#240=AXIS2_PLACEMENT_3D('',#353,#280,#281);
#241=AXIS2_PLACEMENT_3D('',#357,#284,#285);
#242=AXIS2_PLACEMENT_3D('',#359,#287,#288);
#243=AXIS2_PLACEMENT_3D('',#360,#289,#290);
#244=AXIS2_PLACEMENT_3D('',#362,#291,#292);
#245=AXIS2_PLACEMENT_3D('',#363,#293,#294);
#246=AXIS2_PLACEMENT_3D('',#366,#296,#297);
#247=AXIS2_PLACEMENT_3D('',#367,#298,#299);
#248=AXIS2_PLACEMENT_3D('',#368,#300,#301);
#249=AXIS2_PLACEMENT_3D('',#370,#302,#303);
#250=AXIS2_PLACEMENT_3D('',#371,#304,#305);
#251=AXIS2_PLACEMENT_3D('',#374,#307,#308);
#252=AXIS2_PLACEMENT_3D('',#375,#309,#310);
#253=AXIS2_PLACEMENT_3D('',#376,#311,#312);
#254=AXIS2_PLACEMENT_3D('',#378,#313,#314);
#255=AXIS2_PLACEMENT_3D('',#379,#315,#316);
#256=AXIS2_PLACEMENT_3D('',#382,#318,#319);
#257=AXIS2_PLACEMENT_3D('',#383,#320,#321);
#258=AXIS2_PLACEMENT_3D('',#384,#322,#323);
#259=AXIS2_PLACEMENT_3D('',#386,#324,#325);
#260=AXIS2_PLACEMENT_3D('',#387,#326,#327);
#261=AXIS2_PLACEMENT_3D('',#390,#329,#330);
#262=AXIS2_PLACEMENT_3D('',#391,#331,#332);
#263=DIRECTION('axis',(0.,0.,1.));
#264=DIRECTION('refdir',(1.,0.,0.));
#265=DIRECTION('center_axis',(0.,-1.,0.));
#266=DIRECTION('ref_axis',(0.,0.,-1.));
#267=DIRECTION('',(0.,0.,-1.));
#268=DIRECTION('',(1.,0.,0.));
#269=DIRECTION('',(0.,0.,1.));
#270=DIRECTION('',(-1.,0.,0.));
#271=DIRECTION('center_axis',(0.,0.,-1.));
#272=DIRECTION('ref_axis',(-1.,0.,0.));
#273=DIRECTION('',(0.,-1.,0.));
#274=DIRECTION('',(-1.,0.,0.));
#275=DIRECTION('',(0.,1.,0.));
#276=DIRECTION('center_axis',(1.,0.,0.));
#277=DIRECTION('ref_axis',(0.,0.,-1.));
#278=DIRECTION('',(0.,0.,-1.));
#279=DIRECTION('',(0.,1.,0.));
#280=DIRECTION('center_axis',(0.,0.,1.));
#281=DIRECTION('ref_axis',(1.,0.,0.));
#282=DIRECTION('',(1.,0.,0.));
#283=DIRECTION('',(0.,1.,0.));
#284=DIRECTION('center_axis',(-1.,0.,0.));
#285=DIRECTION('ref_axis',(0.,0.,1.));
#286=DIRECTION('',(0.,0.,1.));
#287=DIRECTION('center_axis',(0.,1.,0.));
#288=DIRECTION('ref_axis',(0.,0.,1.));
#289=DIRECTION('center_axis',(0.,-1.,0.));
#290=DIRECTION('ref_axis',(-1.,0.,0.));
#291=DIRECTION('center_axis',(0.,1.,0.));
#292=DIRECTION('ref_axis',(-1.,0.,0.));
#293=DIRECTION('center_axis',(0.,-1.,0.));
#294=DIRECTION('ref_axis',(-1.,0.,0.));
#295=DIRECTION('',(0.,-1.,0.));
#296=DIRECTION('center_axis',(0.,-1.,0.));
#297=DIRECTION('ref_axis',(-1.,0.,0.));
#298=DIRECTION('center_axis',(0.,-1.,0.));
#299=DIRECTION('ref_axis',(-1.,0.,0.));
#300=DIRECTION('center_axis',(0.,-1.,0.));
#301=DIRECTION('ref_axis',(-1.,0.,0.));
#302=DIRECTION('center_axis',(0.,1.,0.));
#303=DIRECTION('ref_axis',(-1.,0.,0.));
#304=DIRECTION('center_axis',(0.,-1.,0.));
#305=DIRECTION('ref_axis',(-1.,0.,0.));
#306=DIRECTION('',(0.,-1.,0.));
#307=DIRECTION('center_axis',(0.,-1.,0.));
#308=DIRECTION('ref_axis',(-1.,0.,0.));
#309=DIRECTION('center_axis',(0.,-1.,0.));
#310=DIRECTION('ref_axis',(-1.,0.,0.));
#311=DIRECTION('center_axis',(0.,-1.,0.));
#312=DIRECTION('ref_axis',(-1.,0.,0.));
#313=DIRECTION('center_axis',(0.,1.,0.));
#314=DIRECTION('ref_axis',(-1.,0.,0.));
#315=DIRECTION('center_axis',(0.,-1.,0.));
#316=DIRECTION('ref_axis',(-1.,0.,0.));
#317=DIRECTION('',(0.,-1.,0.));
#318=DIRECTION('center_axis',(0.,-1.,0.));
#319=DIRECTION('ref_axis',(-1.,0.,0.));
#320=DIRECTION('center_axis',(0.,-1.,0.));
#321=DIRECTION('ref_axis',(-1.,0.,0.));
#322=DIRECTION('center_axis',(0.,-1.,0.));
#323=DIRECTION('ref_axis',(-1.,0.,0.));
#324=DIRECTION('center_axis',(0.,1.,0.));
#325=DIRECTION('ref_axis',(-1.,0.,0.));
#326=DIRECTION('center_axis',(0.,-1.,0.));
#327=DIRECTION('ref_axis',(-1.,0.,0.));
#328=DIRECTION('',(0.,-1.,0.));
#329=DIRECTION('center_axis',(0.,-1.,0.));
#330=DIRECTION('ref_axis',(-1.,0.,0.));
#331=DIRECTION('center_axis',(0.,-1.,0.));
#332=DIRECTION('ref_axis',(-1.,0.,0.));
#333=CARTESIAN_POINT('',(0.,0.,0.));
#334=CARTESIAN_POINT('Origin',(-21.4939373341139,-2.5,9.58769273219282));
#335=CARTESIAN_POINT('',(-31.4939373341139,-2.5,19.5876927321928));
#336=CARTESIAN_POINT('',(-31.4939373341139,-2.5,-0.412307267807179));
#337=CARTESIAN_POINT('',(-31.4939373341139,-2.5,-0.412307267807179));
#338=CARTESIAN_POINT('',(-11.4939373341139,-2.5,-0.412307267807179));
#339=CARTESIAN_POINT('',(-11.4939373341139,-2.5,-0.412307267807179));
#340=CARTESIAN_POINT('',(-11.4939373341139,-2.5,19.5876927321928));
#341=CARTESIAN_POINT('',(-11.4939373341139,-2.5,19.5876927321928));
#342=CARTESIAN_POINT('',(-31.4939373341139,-2.5,19.5876927321928));
#343=CARTESIAN_POINT('Origin',(-11.4939373341139,0.,-0.412307267807179));
#344=CARTESIAN_POINT('',(-31.4939373341139,2.5,-0.412307267807179));
#345=CARTESIAN_POINT('',(-31.4939373341139,0.,-0.412307267807179));
#346=CARTESIAN_POINT('',(-11.4939373341139,2.5,-0.412307267807179));
#347=CARTESIAN_POINT('',(-11.4939373341139,2.5,-0.412307267807179));
#348=CARTESIAN_POINT('',(-11.4939373341139,0.,-0.412307267807179));
#349=CARTESIAN_POINT('Origin',(-11.4939373341139,0.,19.5876927321928));
#350=CARTESIAN_POINT('',(-11.4939373341139,2.5,19.5876927321928));
#351=CARTESIAN_POINT('',(-11.4939373341139,2.5,19.5876927321928));
#352=CARTESIAN_POINT('',(-11.4939373341139,0.,19.5876927321928));
#353=CARTESIAN_POINT('Origin',(-31.4939373341139,0.,19.5876927321928));
#354=CARTESIAN_POINT('',(-31.4939373341139,2.5,19.5876927321928));
#355=CARTESIAN_POINT('',(-31.4939373341139,2.5,19.5876927321928));
#356=CARTESIAN_POINT('',(-31.4939373341139,0.,19.5876927321928));
#357=CARTESIAN_POINT('Origin',(-31.4939373341139,0.,-0.412307267807179));
#358=CARTESIAN_POINT('',(-31.4939373341139,2.5,-0.412307267807179));
#359=CARTESIAN_POINT('Origin',(-21.4939373341139,2.5,9.58769273219282));
#360=CARTESIAN_POINT('Origin',(-16.1002169726802,1.75,4.29961875613633));
#361=CARTESIAN_POINT('',(-13.1002169726802,1.75,4.29961875613633));
#362=CARTESIAN_POINT('Origin',(-16.1002169726802,1.75,4.29961875613633));
#363=CARTESIAN_POINT('Origin',(-16.1002169726802,1.5,4.29961875613633));
#364=CARTESIAN_POINT('',(-13.1002169726802,1.25,4.29961875613633));
#365=CARTESIAN_POINT('',(-13.1002169726802,1.5,4.29961875613633));
#366=CARTESIAN_POINT('Origin',(-16.1002169726802,1.25,4.29961875613633));
#367=CARTESIAN_POINT('Origin',(-16.1002169726802,1.25,4.29961875613633));
#368=CARTESIAN_POINT('Origin',(-27.3298350156268,0.75,7.2854655121218));
#369=CARTESIAN_POINT('',(-24.3298350156268,0.75,7.2854655121218));
#370=CARTESIAN_POINT('Origin',(-27.3298350156268,0.75,7.2854655121218));
#371=CARTESIAN_POINT('Origin',(-27.3298350156268,0.5,7.2854655121218));
#372=CARTESIAN_POINT('',(-24.3298350156268,0.25,7.2854655121218));
#373=CARTESIAN_POINT('',(-24.3298350156268,0.5,7.2854655121218));
#374=CARTESIAN_POINT('Origin',(-27.3298350156268,0.25,7.2854655121218));
#375=CARTESIAN_POINT('Origin',(-27.3298350156268,0.25,7.2854655121218));
#376=CARTESIAN_POINT('Origin',(-19.8304929665868,-0.25,13.6530093015867));
#377=CARTESIAN_POINT('',(-16.8304929665868,-0.25,13.6530093015867));
#378=CARTESIAN_POINT('Origin',(-19.8304929665868,-0.25,13.6530093015867));
#379=CARTESIAN_POINT('Origin',(-19.8304929665868,-0.5,13.6530093015867));
#380=CARTESIAN_POINT('',(-16.8304929665868,-0.75,13.6530093015867));
#381=CARTESIAN_POINT('',(-16.8304929665868,-0.5,13.6530093015867));
#382=CARTESIAN_POINT('Origin',(-19.8304929665868,-0.75,13.6530093015867));
#383=CARTESIAN_POINT('Origin',(-19.8304929665868,-0.75,13.6530093015867));
#384=CARTESIAN_POINT('Origin',(-27.5262043005489,-1.25,15.8792825863994));
#385=CARTESIAN_POINT('',(-24.5262043005489,-1.25,15.8792825863994));
#386=CARTESIAN_POINT('Origin',(-27.5262043005489,-1.25,15.8792825863994));
#387=CARTESIAN_POINT('Origin',(-27.5262043005489,-1.5,15.8792825863994));
#388=CARTESIAN_POINT('',(-24.5262043005489,-1.75,15.8792825863994));
#389=CARTESIAN_POINT('',(-24.5262043005489,-1.5,15.8792825863994));
#390=CARTESIAN_POINT('Origin',(-27.5262043005489,-1.75,15.8792825863994));
#391=CARTESIAN_POINT('Origin',(-27.5262043005489,-1.75,15.8792825863994));
#392=UNCERTAINTY_MEASURE_WITH_UNIT(LENGTH_MEASURE(0.01),#396,
'DISTANCE_ACCURACY_VALUE',
'Maximum model space distance between geometric entities at asserted c
onnectivities');
#393=UNCERTAINTY_MEASURE_WITH_UNIT(LENGTH_MEASURE(0.01),#396,
'DISTANCE_ACCURACY_VALUE',
'Maximum model space distance between geometric entities at asserted c
onnectivities');
#394=(
GEOMETRIC_REPRESENTATION_CONTEXT(3)
GLOBAL_UNCERTAINTY_ASSIGNED_CONTEXT((#392))
GLOBAL_UNIT_ASSIGNED_CONTEXT((#396,#398,#399))
REPRESENTATION_CONTEXT('','3D')
);
#395=(
GEOMETRIC_REPRESENTATION_CONTEXT(3)
GLOBAL_UNCERTAINTY_ASSIGNED_CONTEXT((#393))
GLOBAL_UNIT_ASSIGNED_CONTEXT((#396,#398,#399))
REPRESENTATION_CONTEXT('','3D')
);
#396=(
LENGTH_UNIT()
NAMED_UNIT(*)
SI_UNIT(.MILLI.,.METRE.)
);
#397=(
LENGTH_UNIT()
NAMED_UNIT(*)
SI_UNIT($,.METRE.)
);
#398=(
NAMED_UNIT(*)
PLANE_ANGLE_UNIT()
SI_UNIT($,.RADIAN.)
);
#399=(
NAMED_UNIT(*)
SI_UNIT($,.STERADIAN.)
SOLID_ANGLE_UNIT()
);
#400=SHAPE_DEFINITION_REPRESENTATION(#401,#402);
#401=PRODUCT_DEFINITION_SHAPE('',$,#404);
#402=SHAPE_REPRESENTATION('',(#236),#394);
#403=PRODUCT_DEFINITION_CONTEXT('part definition',#408,'design');
#404=PRODUCT_DEFINITION('2026-02-11-12-51-53-816','CV04',#405,#403);
#405=PRODUCT_DEFINITION_FORMATION('',$,#410);
#406=PRODUCT_RELATED_PRODUCT_CATEGORY('CV04','CV04',(#410));
#407=APPLICATION_PROTOCOL_DEFINITION('international standard',
'automotive_design',2009,#408);
#408=APPLICATION_CONTEXT(
'Core Data for Automotive Mechanical Design Process');
#409=PRODUCT_CONTEXT('part definition',#408,'mechanical');
#410=PRODUCT('2026-02-11-12-51-53-816','CV04',$,(#409));
#411=PRESENTATION_STYLE_ASSIGNMENT((#412));
#412=SURFACE_STYLE_USAGE(.BOTH.,#413);
#413=SURFACE_SIDE_STYLE('',(#414));
#414=SURFACE_STYLE_FILL_AREA(#415);
#415=FILL_AREA_STYLE('Steel - Satin',(#416));
#416=FILL_AREA_STYLE_COLOUR('Steel - Satin',#417);
#417=COLOUR_RGB('Steel - Satin',0.627450980392157,0.627450980392157,0.627450980392157);
ENDSEC;
END-ISO-10303-21;
