ISO-10303-21;
HEADER;
/* Generated by software containing ST-Developer
 * from STEP Tools, Inc. (www.steptools.com) 
 */

FILE_DESCRIPTION(
/* description */ (''),
/* implementation_level */ '2;1');

FILE_NAME(
/* name */ 'CV05.step',
/* time_stamp */ '2026-03-17T10:48:41-04:00',
/* author */ (''),
/* organization */ (''),
/* preprocessor_version */ 'ST-DEVELOPER v20.1',
/* originating_system */ 'Autodesk Translation Framework v14.24.0.0',
/* authorisation */ '');

FILE_SCHEMA (('AUTOMOTIVE_DESIGN { 1 0 10303 214 3 1 1 }'));
ENDSEC;

DATA;
#10=MECHANICAL_DESIGN_GEOMETRIC_PRESENTATION_REPRESENTATION('',(#13),#660);
#11=SHAPE_REPRESENTATION_RELATIONSHIP('SRR','None',#667,#12);
#12=ADVANCED_BREP_SHAPE_REPRESENTATION('',(#368),#659);
#13=STYLED_ITEM('',(#676),#368);
#14=ORIENTED_CLOSED_SHELL('',*,#359,.F.);
#15=ORIENTED_CLOSED_SHELL('',*,#360,.F.);
#16=ORIENTED_CLOSED_SHELL('',*,#361,.F.);
#17=ORIENTED_CLOSED_SHELL('',*,#362,.F.);
#18=ORIENTED_CLOSED_SHELL('',*,#363,.F.);
#19=ORIENTED_CLOSED_SHELL('',*,#364,.F.);
#20=ORIENTED_CLOSED_SHELL('',*,#365,.F.);
#21=ORIENTED_CLOSED_SHELL('',*,#366,.F.);
#22=ORIENTED_CLOSED_SHELL('',*,#367,.F.);
#23=CYLINDRICAL_SURFACE('',#390,1.);
#24=CYLINDRICAL_SURFACE('',#395,1.);
#25=CYLINDRICAL_SURFACE('',#400,1.);
#26=CYLINDRICAL_SURFACE('',#405,1.);
#27=CYLINDRICAL_SURFACE('',#410,1.);
#28=CYLINDRICAL_SURFACE('',#415,1.);
#29=CYLINDRICAL_SURFACE('',#420,1.);
#30=CYLINDRICAL_SURFACE('',#425,1.);
#31=CYLINDRICAL_SURFACE('',#430,1.);
#32=CIRCLE('',#389,1.);
#33=CIRCLE('',#391,1.);
#34=CIRCLE('',#394,1.);
#35=CIRCLE('',#396,1.);
#36=CIRCLE('',#399,1.);
#37=CIRCLE('',#401,1.);
#38=CIRCLE('',#404,1.);
#39=CIRCLE('',#406,1.);
#40=CIRCLE('',#409,1.);
#41=CIRCLE('',#411,1.);
#42=CIRCLE('',#414,1.);
#43=CIRCLE('',#416,1.);
#44=CIRCLE('',#419,1.);
#45=CIRCLE('',#421,1.);
#46=CIRCLE('',#424,1.);
#47=CIRCLE('',#426,1.);
#48=CIRCLE('',#429,1.);
#49=CIRCLE('',#431,1.);
#50=FACE_OUTER_BOUND('',#83,.T.);
#51=FACE_OUTER_BOUND('',#84,.T.);
#52=FACE_OUTER_BOUND('',#85,.T.);
#53=FACE_OUTER_BOUND('',#86,.T.);
#54=FACE_OUTER_BOUND('',#87,.T.);
#55=FACE_OUTER_BOUND('',#88,.T.);
#56=FACE_OUTER_BOUND('',#89,.T.);
#57=FACE_OUTER_BOUND('',#90,.T.);
#58=FACE_OUTER_BOUND('',#91,.T.);
#59=FACE_OUTER_BOUND('',#92,.T.);
#60=FACE_OUTER_BOUND('',#93,.T.);
#61=FACE_OUTER_BOUND('',#94,.T.);
#62=FACE_OUTER_BOUND('',#95,.T.);
#63=FACE_OUTER_BOUND('',#96,.T.);
#64=FACE_OUTER_BOUND('',#97,.T.);
#65=FACE_OUTER_BOUND('',#98,.T.);
#66=FACE_OUTER_BOUND('',#99,.T.);
#67=FACE_OUTER_BOUND('',#100,.T.);
#68=FACE_OUTER_BOUND('',#101,.T.);
#69=FACE_OUTER_BOUND('',#102,.T.);
#70=FACE_OUTER_BOUND('',#103,.T.);
#71=FACE_OUTER_BOUND('',#104,.T.);
#72=FACE_OUTER_BOUND('',#105,.T.);
#73=FACE_OUTER_BOUND('',#106,.T.);
#74=FACE_OUTER_BOUND('',#107,.T.);
#75=FACE_OUTER_BOUND('',#108,.T.);
#76=FACE_OUTER_BOUND('',#109,.T.);
#77=FACE_OUTER_BOUND('',#110,.T.);
#78=FACE_OUTER_BOUND('',#111,.T.);
#79=FACE_OUTER_BOUND('',#112,.T.);
#80=FACE_OUTER_BOUND('',#113,.T.);
#81=FACE_OUTER_BOUND('',#114,.T.);
#82=FACE_OUTER_BOUND('',#115,.T.);
#83=EDGE_LOOP('',(#223,#224,#225,#226));
#84=EDGE_LOOP('',(#227,#228,#229,#230));
#85=EDGE_LOOP('',(#231,#232,#233,#234));
#86=EDGE_LOOP('',(#235,#236,#237,#238));
#87=EDGE_LOOP('',(#239,#240,#241,#242));
#88=EDGE_LOOP('',(#243,#244,#245,#246));
#89=EDGE_LOOP('',(#247));
#90=EDGE_LOOP('',(#248,#249,#250,#251));
#91=EDGE_LOOP('',(#252));
#92=EDGE_LOOP('',(#253));
#93=EDGE_LOOP('',(#254,#255,#256,#257));
#94=EDGE_LOOP('',(#258));
#95=EDGE_LOOP('',(#259));
#96=EDGE_LOOP('',(#260,#261,#262,#263));
#97=EDGE_LOOP('',(#264));
#98=EDGE_LOOP('',(#265));
#99=EDGE_LOOP('',(#266,#267,#268,#269));
#100=EDGE_LOOP('',(#270));
#101=EDGE_LOOP('',(#271));
#102=EDGE_LOOP('',(#272,#273,#274,#275));
#103=EDGE_LOOP('',(#276));
#104=EDGE_LOOP('',(#277));
#105=EDGE_LOOP('',(#278,#279,#280,#281));
#106=EDGE_LOOP('',(#282));
#107=EDGE_LOOP('',(#283));
#108=EDGE_LOOP('',(#284,#285,#286,#287));
#109=EDGE_LOOP('',(#288));
#110=EDGE_LOOP('',(#289));
#111=EDGE_LOOP('',(#290,#291,#292,#293));
#112=EDGE_LOOP('',(#294));
#113=EDGE_LOOP('',(#295));
#114=EDGE_LOOP('',(#296,#297,#298,#299));
#115=EDGE_LOOP('',(#300));
#116=LINE('',#562,#137);
#117=LINE('',#564,#138);
#118=LINE('',#566,#139);
#119=LINE('',#567,#140);
#120=LINE('',#570,#141);
#121=LINE('',#572,#142);
#122=LINE('',#573,#143);
#123=LINE('',#576,#144);
#124=LINE('',#577,#145);
#125=LINE('',#580,#146);
#126=LINE('',#581,#147);
#127=LINE('',#583,#148);
#128=LINE('',#590,#149);
#129=LINE('',#598,#150);
#130=LINE('',#606,#151);
#131=LINE('',#614,#152);
#132=LINE('',#622,#153);
#133=LINE('',#630,#154);
#134=LINE('',#638,#155);
#135=LINE('',#646,#156);
#136=LINE('',#654,#157);
#137=VECTOR('',#437,10.);
#138=VECTOR('',#438,10.);
#139=VECTOR('',#439,10.);
#140=VECTOR('',#440,10.);
#141=VECTOR('',#443,10.);
#142=VECTOR('',#444,10.);
#143=VECTOR('',#445,10.);
#144=VECTOR('',#448,10.);
#145=VECTOR('',#449,10.);
#146=VECTOR('',#452,10.);
#147=VECTOR('',#453,10.);
#148=VECTOR('',#456,10.);
#149=VECTOR('',#465,1.);
#150=VECTOR('',#476,1.);
#151=VECTOR('',#487,1.);
#152=VECTOR('',#498,1.);
#153=VECTOR('',#509,1.);
#154=VECTOR('',#520,1.);
#155=VECTOR('',#531,1.);
#156=VECTOR('',#542,1.);
#157=VECTOR('',#553,1.);
#158=VERTEX_POINT('',#560);
#159=VERTEX_POINT('',#561);
#160=VERTEX_POINT('',#563);
#161=VERTEX_POINT('',#565);
#162=VERTEX_POINT('',#569);
#163=VERTEX_POINT('',#571);
#164=VERTEX_POINT('',#575);
#165=VERTEX_POINT('',#579);
#166=VERTEX_POINT('',#586);
#167=VERTEX_POINT('',#589);
#168=VERTEX_POINT('',#594);
#169=VERTEX_POINT('',#597);
#170=VERTEX_POINT('',#602);
#171=VERTEX_POINT('',#605);
#172=VERTEX_POINT('',#610);
#173=VERTEX_POINT('',#613);
#174=VERTEX_POINT('',#618);
#175=VERTEX_POINT('',#621);
#176=VERTEX_POINT('',#626);
#177=VERTEX_POINT('',#629);
#178=VERTEX_POINT('',#634);
#179=VERTEX_POINT('',#637);
#180=VERTEX_POINT('',#642);
#181=VERTEX_POINT('',#645);
#182=VERTEX_POINT('',#650);
#183=VERTEX_POINT('',#653);
#184=EDGE_CURVE('',#158,#159,#116,.T.);
#185=EDGE_CURVE('',#159,#160,#117,.T.);
#186=EDGE_CURVE('',#160,#161,#118,.T.);
#187=EDGE_CURVE('',#161,#158,#119,.T.);
#188=EDGE_CURVE('',#162,#159,#120,.T.);
#189=EDGE_CURVE('',#163,#162,#121,.T.);
#190=EDGE_CURVE('',#160,#163,#122,.T.);
#191=EDGE_CURVE('',#164,#163,#123,.T.);
#192=EDGE_CURVE('',#161,#164,#124,.T.);
#193=EDGE_CURVE('',#165,#164,#125,.T.);
#194=EDGE_CURVE('',#158,#165,#126,.T.);
#195=EDGE_CURVE('',#162,#165,#127,.T.);
#196=EDGE_CURVE('',#166,#166,#32,.T.);
#197=EDGE_CURVE('',#166,#167,#128,.T.);
#198=EDGE_CURVE('',#167,#167,#33,.T.);
#199=EDGE_CURVE('',#168,#168,#34,.T.);
#200=EDGE_CURVE('',#168,#169,#129,.T.);
#201=EDGE_CURVE('',#169,#169,#35,.T.);
#202=EDGE_CURVE('',#170,#170,#36,.T.);
#203=EDGE_CURVE('',#170,#171,#130,.T.);
#204=EDGE_CURVE('',#171,#171,#37,.T.);
#205=EDGE_CURVE('',#172,#172,#38,.T.);
#206=EDGE_CURVE('',#172,#173,#131,.T.);
#207=EDGE_CURVE('',#173,#173,#39,.T.);
#208=EDGE_CURVE('',#174,#174,#40,.T.);
#209=EDGE_CURVE('',#174,#175,#132,.T.);
#210=EDGE_CURVE('',#175,#175,#41,.T.);
#211=EDGE_CURVE('',#176,#176,#42,.T.);
#212=EDGE_CURVE('',#176,#177,#133,.T.);
#213=EDGE_CURVE('',#177,#177,#43,.T.);
#214=EDGE_CURVE('',#178,#178,#44,.T.);
#215=EDGE_CURVE('',#178,#179,#134,.T.);
#216=EDGE_CURVE('',#179,#179,#45,.T.);
#217=EDGE_CURVE('',#180,#180,#46,.T.);
#218=EDGE_CURVE('',#180,#181,#135,.T.);
#219=EDGE_CURVE('',#181,#181,#47,.T.);
#220=EDGE_CURVE('',#182,#182,#48,.T.);
#221=EDGE_CURVE('',#182,#183,#136,.T.);
#222=EDGE_CURVE('',#183,#183,#49,.T.);
#223=ORIENTED_EDGE('',*,*,#184,.T.);
#224=ORIENTED_EDGE('',*,*,#185,.T.);
#225=ORIENTED_EDGE('',*,*,#186,.T.);
#226=ORIENTED_EDGE('',*,*,#187,.T.);
#227=ORIENTED_EDGE('',*,*,#188,.F.);
#228=ORIENTED_EDGE('',*,*,#189,.F.);
#229=ORIENTED_EDGE('',*,*,#190,.F.);
#230=ORIENTED_EDGE('',*,*,#185,.F.);
#231=ORIENTED_EDGE('',*,*,#190,.T.);
#232=ORIENTED_EDGE('',*,*,#191,.F.);
#233=ORIENTED_EDGE('',*,*,#192,.F.);
#234=ORIENTED_EDGE('',*,*,#186,.F.);
#235=ORIENTED_EDGE('',*,*,#192,.T.);
#236=ORIENTED_EDGE('',*,*,#193,.F.);
#237=ORIENTED_EDGE('',*,*,#194,.F.);
#238=ORIENTED_EDGE('',*,*,#187,.F.);
#239=ORIENTED_EDGE('',*,*,#194,.T.);
#240=ORIENTED_EDGE('',*,*,#195,.F.);
#241=ORIENTED_EDGE('',*,*,#188,.T.);
#242=ORIENTED_EDGE('',*,*,#184,.F.);
#243=ORIENTED_EDGE('',*,*,#195,.T.);
#244=ORIENTED_EDGE('',*,*,#193,.T.);
#245=ORIENTED_EDGE('',*,*,#191,.T.);
#246=ORIENTED_EDGE('',*,*,#189,.T.);
#247=ORIENTED_EDGE('',*,*,#196,.F.);
#248=ORIENTED_EDGE('',*,*,#196,.T.);
#249=ORIENTED_EDGE('',*,*,#197,.T.);
#250=ORIENTED_EDGE('',*,*,#198,.T.);
#251=ORIENTED_EDGE('',*,*,#197,.F.);
#252=ORIENTED_EDGE('',*,*,#198,.F.);
#253=ORIENTED_EDGE('',*,*,#199,.F.);
#254=ORIENTED_EDGE('',*,*,#199,.T.);
#255=ORIENTED_EDGE('',*,*,#200,.T.);
#256=ORIENTED_EDGE('',*,*,#201,.T.);
#257=ORIENTED_EDGE('',*,*,#200,.F.);
#258=ORIENTED_EDGE('',*,*,#201,.F.);
#259=ORIENTED_EDGE('',*,*,#202,.F.);
#260=ORIENTED_EDGE('',*,*,#202,.T.);
#261=ORIENTED_EDGE('',*,*,#203,.T.);
#262=ORIENTED_EDGE('',*,*,#204,.T.);
#263=ORIENTED_EDGE('',*,*,#203,.F.);
#264=ORIENTED_EDGE('',*,*,#204,.F.);
#265=ORIENTED_EDGE('',*,*,#205,.F.);
#266=ORIENTED_EDGE('',*,*,#205,.T.);
#267=ORIENTED_EDGE('',*,*,#206,.T.);
#268=ORIENTED_EDGE('',*,*,#207,.T.);
#269=ORIENTED_EDGE('',*,*,#206,.F.);
#270=ORIENTED_EDGE('',*,*,#207,.F.);
#271=ORIENTED_EDGE('',*,*,#208,.F.);
#272=ORIENTED_EDGE('',*,*,#208,.T.);
#273=ORIENTED_EDGE('',*,*,#209,.T.);
#274=ORIENTED_EDGE('',*,*,#210,.T.);
#275=ORIENTED_EDGE('',*,*,#209,.F.);
#276=ORIENTED_EDGE('',*,*,#210,.F.);
#277=ORIENTED_EDGE('',*,*,#211,.F.);
#278=ORIENTED_EDGE('',*,*,#211,.T.);
#279=ORIENTED_EDGE('',*,*,#212,.T.);
#280=ORIENTED_EDGE('',*,*,#213,.T.);
#281=ORIENTED_EDGE('',*,*,#212,.F.);
#282=ORIENTED_EDGE('',*,*,#213,.F.);
#283=ORIENTED_EDGE('',*,*,#214,.F.);
#284=ORIENTED_EDGE('',*,*,#214,.T.);
#285=ORIENTED_EDGE('',*,*,#215,.T.);
#286=ORIENTED_EDGE('',*,*,#216,.T.);
#287=ORIENTED_EDGE('',*,*,#215,.F.);
#288=ORIENTED_EDGE('',*,*,#216,.F.);
#289=ORIENTED_EDGE('',*,*,#217,.F.);
#290=ORIENTED_EDGE('',*,*,#217,.T.);
#291=ORIENTED_EDGE('',*,*,#218,.T.);
#292=ORIENTED_EDGE('',*,*,#219,.T.);
#293=ORIENTED_EDGE('',*,*,#218,.F.);
#294=ORIENTED_EDGE('',*,*,#219,.F.);
#295=ORIENTED_EDGE('',*,*,#220,.F.);
#296=ORIENTED_EDGE('',*,*,#220,.T.);
#297=ORIENTED_EDGE('',*,*,#221,.T.);
#298=ORIENTED_EDGE('',*,*,#222,.T.);
#299=ORIENTED_EDGE('',*,*,#221,.F.);
#300=ORIENTED_EDGE('',*,*,#222,.F.);
#301=PLANE('',#382);
#302=PLANE('',#383);
#303=PLANE('',#384);
#304=PLANE('',#385);
#305=PLANE('',#386);
#306=PLANE('',#387);
#307=PLANE('',#388);
#308=PLANE('',#392);
#309=PLANE('',#393);
#310=PLANE('',#397);
#311=PLANE('',#398);
#312=PLANE('',#402);
#313=PLANE('',#403);
#314=PLANE('',#407);
#315=PLANE('',#408);
#316=PLANE('',#412);
#317=PLANE('',#413);
#318=PLANE('',#417);
#319=PLANE('',#418);
#320=PLANE('',#422);
#321=PLANE('',#423);
#322=PLANE('',#427);
#323=PLANE('',#428);
#324=PLANE('',#432);
#325=ADVANCED_FACE('',(#50),#301,.T.);
#326=ADVANCED_FACE('',(#51),#302,.T.);
#327=ADVANCED_FACE('',(#52),#303,.T.);
#328=ADVANCED_FACE('',(#53),#304,.T.);
#329=ADVANCED_FACE('',(#54),#305,.T.);
#330=ADVANCED_FACE('',(#55),#306,.T.);
#331=ADVANCED_FACE('',(#56),#307,.T.);
#332=ADVANCED_FACE('',(#57),#23,.F.);
#333=ADVANCED_FACE('',(#58),#308,.F.);
#334=ADVANCED_FACE('',(#59),#309,.T.);
#335=ADVANCED_FACE('',(#60),#24,.F.);
#336=ADVANCED_FACE('',(#61),#310,.F.);
#337=ADVANCED_FACE('',(#62),#311,.T.);
#338=ADVANCED_FACE('',(#63),#25,.F.);
#339=ADVANCED_FACE('',(#64),#312,.F.);
#340=ADVANCED_FACE('',(#65),#313,.T.);
#341=ADVANCED_FACE('',(#66),#26,.F.);
#342=ADVANCED_FACE('',(#67),#314,.F.);
#343=ADVANCED_FACE('',(#68),#315,.T.);
#344=ADVANCED_FACE('',(#69),#27,.F.);
#345=ADVANCED_FACE('',(#70),#316,.F.);
#346=ADVANCED_FACE('',(#71),#317,.T.);
#347=ADVANCED_FACE('',(#72),#28,.F.);
#348=ADVANCED_FACE('',(#73),#318,.F.);
#349=ADVANCED_FACE('',(#74),#319,.T.);
#350=ADVANCED_FACE('',(#75),#29,.F.);
#351=ADVANCED_FACE('',(#76),#320,.F.);
#352=ADVANCED_FACE('',(#77),#321,.T.);
#353=ADVANCED_FACE('',(#78),#30,.F.);
#354=ADVANCED_FACE('',(#79),#322,.F.);
#355=ADVANCED_FACE('',(#80),#323,.T.);
#356=ADVANCED_FACE('',(#81),#31,.F.);
#357=ADVANCED_FACE('',(#82),#324,.F.);
#358=CLOSED_SHELL('',(#325,#326,#327,#328,#329,#330));
#359=CLOSED_SHELL('',(#331,#332,#333));
#360=CLOSED_SHELL('',(#334,#335,#336));
#361=CLOSED_SHELL('',(#337,#338,#339));
#362=CLOSED_SHELL('',(#340,#341,#342));
#363=CLOSED_SHELL('',(#343,#344,#345));
#364=CLOSED_SHELL('',(#346,#347,#348));
#365=CLOSED_SHELL('',(#349,#350,#351));
#366=CLOSED_SHELL('',(#352,#353,#354));
#367=CLOSED_SHELL('',(#355,#356,#357));
#368=BREP_WITH_VOIDS('Body1',#358,(#14,#15,#16,#17,#18,#19,#20,#21,#22));
#369=DERIVED_UNIT_ELEMENT(#371,1.);
#370=DERIVED_UNIT_ELEMENT(#662,-3.);
#371=(
MASS_UNIT()
NAMED_UNIT(*)
SI_UNIT(.KILO.,.GRAM.)
);
#372=DERIVED_UNIT((#369,#370));
#373=MEASURE_REPRESENTATION_ITEM('density measure',
POSITIVE_RATIO_MEASURE(7850.),#372);
#374=PROPERTY_DEFINITION_REPRESENTATION(#379,#376);
#375=PROPERTY_DEFINITION_REPRESENTATION(#380,#377);
#376=REPRESENTATION('material name',(#378),#659);
#377=REPRESENTATION('density',(#373),#659);
#378=DESCRIPTIVE_REPRESENTATION_ITEM('Steel','Steel');
#379=PROPERTY_DEFINITION('material property','material name',#669);
#380=PROPERTY_DEFINITION('material property','density of part',#669);
#381=AXIS2_PLACEMENT_3D('',#558,#433,#434);
#382=AXIS2_PLACEMENT_3D('',#559,#435,#436);
#383=AXIS2_PLACEMENT_3D('',#568,#441,#442);
#384=AXIS2_PLACEMENT_3D('',#574,#446,#447);
#385=AXIS2_PLACEMENT_3D('',#578,#450,#451);
#386=AXIS2_PLACEMENT_3D('',#582,#454,#455);
#387=AXIS2_PLACEMENT_3D('',#584,#457,#458);
#388=AXIS2_PLACEMENT_3D('',#585,#459,#460);
#389=AXIS2_PLACEMENT_3D('',#587,#461,#462);
#390=AXIS2_PLACEMENT_3D('',#588,#463,#464);
#391=AXIS2_PLACEMENT_3D('',#591,#466,#467);
#392=AXIS2_PLACEMENT_3D('',#592,#468,#469);
#393=AXIS2_PLACEMENT_3D('',#593,#470,#471);
#394=AXIS2_PLACEMENT_3D('',#595,#472,#473);
#395=AXIS2_PLACEMENT_3D('',#596,#474,#475);
#396=AXIS2_PLACEMENT_3D('',#599,#477,#478);
#397=AXIS2_PLACEMENT_3D('',#600,#479,#480);
#398=AXIS2_PLACEMENT_3D('',#601,#481,#482);
#399=AXIS2_PLACEMENT_3D('',#603,#483,#484);
#400=AXIS2_PLACEMENT_3D('',#604,#485,#486);
#401=AXIS2_PLACEMENT_3D('',#607,#488,#489);
#402=AXIS2_PLACEMENT_3D('',#608,#490,#491);
#403=AXIS2_PLACEMENT_3D('',#609,#492,#493);
#404=AXIS2_PLACEMENT_3D('',#611,#494,#495);
#405=AXIS2_PLACEMENT_3D('',#612,#496,#497);
#406=AXIS2_PLACEMENT_3D('',#615,#499,#500);
#407=AXIS2_PLACEMENT_3D('',#616,#501,#502);
#408=AXIS2_PLACEMENT_3D('',#617,#503,#504);
#409=AXIS2_PLACEMENT_3D('',#619,#505,#506);
#410=AXIS2_PLACEMENT_3D('',#620,#507,#508);
#411=AXIS2_PLACEMENT_3D('',#623,#510,#511);
#412=AXIS2_PLACEMENT_3D('',#624,#512,#513);
#413=AXIS2_PLACEMENT_3D('',#625,#514,#515);
#414=AXIS2_PLACEMENT_3D('',#627,#516,#517);
#415=AXIS2_PLACEMENT_3D('',#628,#518,#519);
#416=AXIS2_PLACEMENT_3D('',#631,#521,#522);
#417=AXIS2_PLACEMENT_3D('',#632,#523,#524);
#418=AXIS2_PLACEMENT_3D('',#633,#525,#526);
#419=AXIS2_PLACEMENT_3D('',#635,#527,#528);
#420=AXIS2_PLACEMENT_3D('',#636,#529,#530);
#421=AXIS2_PLACEMENT_3D('',#639,#532,#533);
#422=AXIS2_PLACEMENT_3D('',#640,#534,#535);
#423=AXIS2_PLACEMENT_3D('',#641,#536,#537);
#424=AXIS2_PLACEMENT_3D('',#643,#538,#539);
#425=AXIS2_PLACEMENT_3D('',#644,#540,#541);
#426=AXIS2_PLACEMENT_3D('',#647,#543,#544);
#427=AXIS2_PLACEMENT_3D('',#648,#545,#546);
#428=AXIS2_PLACEMENT_3D('',#649,#547,#548);
#429=AXIS2_PLACEMENT_3D('',#651,#549,#550);
#430=AXIS2_PLACEMENT_3D('',#652,#551,#552);
#431=AXIS2_PLACEMENT_3D('',#655,#554,#555);
#432=AXIS2_PLACEMENT_3D('',#656,#556,#557);
#433=DIRECTION('axis',(0.,0.,1.));
#434=DIRECTION('refdir',(1.,0.,0.));
#435=DIRECTION('center_axis',(0.,-1.,0.));
#436=DIRECTION('ref_axis',(0.,0.,-1.));
#437=DIRECTION('',(0.,0.,-1.));
#438=DIRECTION('',(1.,0.,0.));
#439=DIRECTION('',(0.,0.,1.));
#440=DIRECTION('',(-1.,0.,0.));
#441=DIRECTION('center_axis',(0.,0.,-1.));
#442=DIRECTION('ref_axis',(-1.,0.,0.));
#443=DIRECTION('',(0.,-1.,0.));
#444=DIRECTION('',(-1.,0.,0.));
#445=DIRECTION('',(0.,1.,0.));
#446=DIRECTION('center_axis',(1.,0.,0.));
#447=DIRECTION('ref_axis',(0.,0.,-1.));
#448=DIRECTION('',(0.,0.,-1.));
#449=DIRECTION('',(0.,1.,0.));
#450=DIRECTION('center_axis',(0.,0.,1.));
#451=DIRECTION('ref_axis',(1.,0.,0.));
#452=DIRECTION('',(1.,0.,0.));
#453=DIRECTION('',(0.,1.,0.));
#454=DIRECTION('center_axis',(-1.,0.,0.));
#455=DIRECTION('ref_axis',(0.,0.,1.));
#456=DIRECTION('',(0.,0.,1.));
#457=DIRECTION('center_axis',(0.,1.,0.));
#458=DIRECTION('ref_axis',(0.,0.,1.));
#459=DIRECTION('center_axis',(0.,-1.,0.));
#460=DIRECTION('ref_axis',(-1.,0.,0.));
#461=DIRECTION('center_axis',(0.,1.,0.));
#462=DIRECTION('ref_axis',(-1.,0.,0.));
#463=DIRECTION('center_axis',(0.,-1.,0.));
#464=DIRECTION('ref_axis',(-1.,0.,0.));
#465=DIRECTION('',(0.,-1.,0.));
#466=DIRECTION('center_axis',(0.,-1.,0.));
#467=DIRECTION('ref_axis',(-1.,0.,0.));
#468=DIRECTION('center_axis',(0.,-1.,0.));
#469=DIRECTION('ref_axis',(-1.,0.,0.));
#470=DIRECTION('center_axis',(0.,-1.,0.));
#471=DIRECTION('ref_axis',(-1.,0.,0.));
#472=DIRECTION('center_axis',(0.,1.,0.));
#473=DIRECTION('ref_axis',(-1.,0.,0.));
#474=DIRECTION('center_axis',(0.,-1.,0.));
#475=DIRECTION('ref_axis',(-1.,0.,0.));
#476=DIRECTION('',(0.,-1.,0.));
#477=DIRECTION('center_axis',(0.,-1.,0.));
#478=DIRECTION('ref_axis',(-1.,0.,0.));
#479=DIRECTION('center_axis',(0.,-1.,0.));
#480=DIRECTION('ref_axis',(-1.,0.,0.));
#481=DIRECTION('center_axis',(0.,-1.,0.));
#482=DIRECTION('ref_axis',(-1.,0.,0.));
#483=DIRECTION('center_axis',(0.,1.,0.));
#484=DIRECTION('ref_axis',(-1.,0.,0.));
#485=DIRECTION('center_axis',(0.,-1.,0.));
#486=DIRECTION('ref_axis',(-1.,0.,0.));
#487=DIRECTION('',(0.,-1.,0.));
#488=DIRECTION('center_axis',(0.,-1.,0.));
#489=DIRECTION('ref_axis',(-1.,0.,0.));
#490=DIRECTION('center_axis',(0.,-1.,0.));
#491=DIRECTION('ref_axis',(-1.,0.,0.));
#492=DIRECTION('center_axis',(0.,-1.,0.));
#493=DIRECTION('ref_axis',(-1.,0.,0.));
#494=DIRECTION('center_axis',(0.,1.,0.));
#495=DIRECTION('ref_axis',(-1.,0.,0.));
#496=DIRECTION('center_axis',(0.,-1.,0.));
#497=DIRECTION('ref_axis',(-1.,0.,0.));
#498=DIRECTION('',(0.,-1.,0.));
#499=DIRECTION('center_axis',(0.,-1.,0.));
#500=DIRECTION('ref_axis',(-1.,0.,0.));
#501=DIRECTION('center_axis',(0.,-1.,0.));
#502=DIRECTION('ref_axis',(-1.,0.,0.));
#503=DIRECTION('center_axis',(0.,-1.,0.));
#504=DIRECTION('ref_axis',(-1.,0.,0.));
#505=DIRECTION('center_axis',(0.,1.,0.));
#506=DIRECTION('ref_axis',(-1.,0.,0.));
#507=DIRECTION('center_axis',(0.,-1.,0.));
#508=DIRECTION('ref_axis',(-1.,0.,0.));
#509=DIRECTION('',(0.,-1.,0.));
#510=DIRECTION('center_axis',(0.,-1.,0.));
#511=DIRECTION('ref_axis',(-1.,0.,0.));
#512=DIRECTION('center_axis',(0.,-1.,0.));
#513=DIRECTION('ref_axis',(-1.,0.,0.));
#514=DIRECTION('center_axis',(0.,-1.,0.));
#515=DIRECTION('ref_axis',(-1.,0.,0.));
#516=DIRECTION('center_axis',(0.,1.,0.));
#517=DIRECTION('ref_axis',(-1.,0.,0.));
#518=DIRECTION('center_axis',(0.,-1.,0.));
#519=DIRECTION('ref_axis',(-1.,0.,0.));
#520=DIRECTION('',(0.,-1.,0.));
#521=DIRECTION('center_axis',(0.,-1.,0.));
#522=DIRECTION('ref_axis',(-1.,0.,0.));
#523=DIRECTION('center_axis',(0.,-1.,0.));
#524=DIRECTION('ref_axis',(-1.,0.,0.));
#525=DIRECTION('center_axis',(0.,-1.,0.));
#526=DIRECTION('ref_axis',(-1.,0.,0.));
#527=DIRECTION('center_axis',(0.,1.,0.));
#528=DIRECTION('ref_axis',(-1.,0.,0.));
#529=DIRECTION('center_axis',(0.,-1.,0.));
#530=DIRECTION('ref_axis',(-1.,0.,0.));
#531=DIRECTION('',(0.,-1.,0.));
#532=DIRECTION('center_axis',(0.,-1.,0.));
#533=DIRECTION('ref_axis',(-1.,0.,0.));
#534=DIRECTION('center_axis',(0.,-1.,0.));
#535=DIRECTION('ref_axis',(-1.,0.,0.));
#536=DIRECTION('center_axis',(0.,-1.,0.));
#537=DIRECTION('ref_axis',(-1.,0.,0.));
#538=DIRECTION('center_axis',(0.,1.,0.));
#539=DIRECTION('ref_axis',(-1.,0.,0.));
#540=DIRECTION('center_axis',(0.,-1.,0.));
#541=DIRECTION('ref_axis',(-1.,0.,0.));
#542=DIRECTION('',(0.,-1.,0.));
#543=DIRECTION('center_axis',(0.,-1.,0.));
#544=DIRECTION('ref_axis',(-1.,0.,0.));
#545=DIRECTION('center_axis',(0.,-1.,0.));
#546=DIRECTION('ref_axis',(-1.,0.,0.));
#547=DIRECTION('center_axis',(0.,-1.,0.));
#548=DIRECTION('ref_axis',(-1.,0.,0.));
#549=DIRECTION('center_axis',(0.,1.,0.));
#550=DIRECTION('ref_axis',(-1.,0.,0.));
#551=DIRECTION('center_axis',(0.,-1.,0.));
#552=DIRECTION('ref_axis',(-1.,0.,0.));
#553=DIRECTION('',(0.,-1.,0.));
#554=DIRECTION('center_axis',(0.,-1.,0.));
#555=DIRECTION('ref_axis',(-1.,0.,0.));
#556=DIRECTION('center_axis',(0.,-1.,0.));
#557=DIRECTION('ref_axis',(-1.,0.,0.));
#558=CARTESIAN_POINT('',(0.,0.,0.));
#559=CARTESIAN_POINT('Origin',(-20.,-2.5,20.));
#560=CARTESIAN_POINT('',(-30.,-2.5,30.));
#561=CARTESIAN_POINT('',(-30.,-2.5,10.));
#562=CARTESIAN_POINT('',(-30.,-2.5,10.));
#563=CARTESIAN_POINT('',(-10.,-2.5,10.));
#564=CARTESIAN_POINT('',(-10.,-2.5,10.));
#565=CARTESIAN_POINT('',(-10.,-2.5,30.));
#566=CARTESIAN_POINT('',(-10.,-2.5,30.));
#567=CARTESIAN_POINT('',(-30.,-2.5,30.));
#568=CARTESIAN_POINT('Origin',(-10.,0.,10.));
#569=CARTESIAN_POINT('',(-30.,2.5,10.));
#570=CARTESIAN_POINT('',(-30.,0.,10.));
#571=CARTESIAN_POINT('',(-10.,2.5,10.));
#572=CARTESIAN_POINT('',(-10.,2.5,10.));
#573=CARTESIAN_POINT('',(-10.,0.,10.));
#574=CARTESIAN_POINT('Origin',(-10.,0.,30.));
#575=CARTESIAN_POINT('',(-10.,2.5,30.));
#576=CARTESIAN_POINT('',(-10.,2.5,30.));
#577=CARTESIAN_POINT('',(-10.,0.,30.));
#578=CARTESIAN_POINT('Origin',(-30.,0.,30.));
#579=CARTESIAN_POINT('',(-30.,2.5,30.));
#580=CARTESIAN_POINT('',(-30.,2.5,30.));
#581=CARTESIAN_POINT('',(-30.,0.,30.));
#582=CARTESIAN_POINT('Origin',(-30.,0.,10.));
#583=CARTESIAN_POINT('',(-30.,2.5,10.));
#584=CARTESIAN_POINT('Origin',(-20.,2.5,20.));
#585=CARTESIAN_POINT('Origin',(-13.6279929755994,0.5,15.4392883232942));
#586=CARTESIAN_POINT('',(-12.6279929755994,0.5,15.4392883232942));
#587=CARTESIAN_POINT('Origin',(-13.6279929755994,0.5,15.4392883232942));
#588=CARTESIAN_POINT('Origin',(-13.6279929755994,0.,15.4392883232942));
#589=CARTESIAN_POINT('',(-12.6279929755994,-0.5,15.4392883232942));
#590=CARTESIAN_POINT('',(-12.6279929755994,0.,15.4392883232942));
#591=CARTESIAN_POINT('Origin',(-13.6279929755994,-0.5,15.4392883232942));
#592=CARTESIAN_POINT('Origin',(-13.6279929755994,-0.5,15.4392883232942));
#593=CARTESIAN_POINT('Origin',(-20.2272009986505,0.5,15.4392883232942));
#594=CARTESIAN_POINT('',(-19.2272009986505,0.5,15.4392883232942));
#595=CARTESIAN_POINT('Origin',(-20.2272009986505,0.5,15.4392883232942));
#596=CARTESIAN_POINT('Origin',(-20.2272009986505,0.,15.4392883232942));
#597=CARTESIAN_POINT('',(-19.2272009986505,-0.5,15.4392883232942));
#598=CARTESIAN_POINT('',(-19.2272009986505,0.,15.4392883232942));
#599=CARTESIAN_POINT('Origin',(-20.2272009986505,-0.5,15.4392883232942));
#600=CARTESIAN_POINT('Origin',(-20.2272009986505,-0.5,15.4392883232942));
#601=CARTESIAN_POINT('Origin',(-27.6623087046214,0.5,15.4392883232942));
#602=CARTESIAN_POINT('',(-26.6623087046214,0.5,15.4392883232942));
#603=CARTESIAN_POINT('Origin',(-27.6623087046214,0.5,15.4392883232942));
#604=CARTESIAN_POINT('Origin',(-27.6623087046214,0.,15.4392883232942));
#605=CARTESIAN_POINT('',(-26.6623087046214,-0.5,15.4392883232942));
#606=CARTESIAN_POINT('',(-26.6623087046214,0.,15.4392883232942));
#607=CARTESIAN_POINT('Origin',(-27.6623087046214,-0.5,15.4392883232942));
#608=CARTESIAN_POINT('Origin',(-27.6623087046214,-0.5,15.4392883232942));
#609=CARTESIAN_POINT('Origin',(-13.6279929755994,0.125,20.9826230626572));
#610=CARTESIAN_POINT('',(-12.6279929755994,0.125,20.9826230626572));
#611=CARTESIAN_POINT('Origin',(-13.6279929755994,0.125,20.9826230626572));
#612=CARTESIAN_POINT('Origin',(-13.6279929755994,0.,20.9826230626572));
#613=CARTESIAN_POINT('',(-12.6279929755994,-0.125,20.9826230626572));
#614=CARTESIAN_POINT('',(-12.6279929755994,0.,20.9826230626572));
#615=CARTESIAN_POINT('Origin',(-13.6279929755994,-0.125,20.9826230626572));
#616=CARTESIAN_POINT('Origin',(-13.6279929755994,-0.125,20.9826230626572));
#617=CARTESIAN_POINT('Origin',(-20.2272009986505,0.125,20.9826230626572));
#618=CARTESIAN_POINT('',(-19.2272009986505,0.125,20.9826230626572));
#619=CARTESIAN_POINT('Origin',(-20.2272009986505,0.125,20.9826230626572));
#620=CARTESIAN_POINT('Origin',(-20.2272009986505,0.,20.9826230626572));
#621=CARTESIAN_POINT('',(-19.2272009986505,-0.125,20.9826230626572));
#622=CARTESIAN_POINT('',(-19.2272009986505,0.,20.9826230626572));
#623=CARTESIAN_POINT('Origin',(-20.2272009986505,-0.125,20.9826230626572));
#624=CARTESIAN_POINT('Origin',(-20.2272009986505,-0.125,20.9826230626572));
#625=CARTESIAN_POINT('Origin',(-27.6623087046214,0.125,20.9826230626572));
#626=CARTESIAN_POINT('',(-26.6623087046214,0.125,20.9826230626572));
#627=CARTESIAN_POINT('Origin',(-27.6623087046214,0.125,20.9826230626572));
#628=CARTESIAN_POINT('Origin',(-27.6623087046214,0.,20.9826230626572));
#629=CARTESIAN_POINT('',(-26.6623087046214,-0.125,20.9826230626572));
#630=CARTESIAN_POINT('',(-26.6623087046214,0.,20.9826230626572));
#631=CARTESIAN_POINT('Origin',(-27.6623087046214,-0.125,20.9826230626572));
#632=CARTESIAN_POINT('Origin',(-27.6623087046214,-0.125,20.9826230626572));
#633=CARTESIAN_POINT('Origin',(-13.6279929755994,0.25,26.4379683617128));
#634=CARTESIAN_POINT('',(-12.6279929755994,0.25,26.4379683617128));
#635=CARTESIAN_POINT('Origin',(-13.6279929755994,0.25,26.4379683617128));
#636=CARTESIAN_POINT('Origin',(-13.6279929755994,0.,26.4379683617128));
#637=CARTESIAN_POINT('',(-12.6279929755994,-0.25,26.4379683617128));
#638=CARTESIAN_POINT('',(-12.6279929755994,0.,26.4379683617128));
#639=CARTESIAN_POINT('Origin',(-13.6279929755994,-0.25,26.4379683617128));
#640=CARTESIAN_POINT('Origin',(-13.6279929755994,-0.25,26.4379683617128));
#641=CARTESIAN_POINT('Origin',(-20.4471745994189,0.25,26.4379683617128));
#642=CARTESIAN_POINT('',(-19.4471745994189,0.25,26.4379683617128));
#643=CARTESIAN_POINT('Origin',(-20.4471745994189,0.25,26.4379683617128));
#644=CARTESIAN_POINT('Origin',(-20.4471745994189,0.,26.4379683617128));
#645=CARTESIAN_POINT('',(-19.4471745994189,-0.25,26.4379683617128));
#646=CARTESIAN_POINT('',(-19.4471745994189,0.,26.4379683617128));
#647=CARTESIAN_POINT('Origin',(-20.4471745994189,-0.25,26.4379683617128));
#648=CARTESIAN_POINT('Origin',(-20.4471745994189,-0.25,26.4379683617128));
#649=CARTESIAN_POINT('Origin',(-27.6623087046214,0.25,26.4379683617128));
#650=CARTESIAN_POINT('',(-26.6623087046214,0.25,26.4379683617128));
#651=CARTESIAN_POINT('Origin',(-27.6623087046214,0.25,26.4379683617128));
#652=CARTESIAN_POINT('Origin',(-27.6623087046214,0.,26.4379683617128));
#653=CARTESIAN_POINT('',(-26.6623087046214,-0.25,26.4379683617128));
#654=CARTESIAN_POINT('',(-26.6623087046214,0.,26.4379683617128));
#655=CARTESIAN_POINT('Origin',(-27.6623087046214,-0.25,26.4379683617128));
#656=CARTESIAN_POINT('Origin',(-27.6623087046214,-0.25,26.4379683617128));
#657=UNCERTAINTY_MEASURE_WITH_UNIT(LENGTH_MEASURE(0.01),#661,
'DISTANCE_ACCURACY_VALUE',
'Maximum model space distance between geometric entities at asserted c
onnectivities');
#658=UNCERTAINTY_MEASURE_WITH_UNIT(LENGTH_MEASURE(0.01),#661,
'DISTANCE_ACCURACY_VALUE',
'Maximum model space distance between geometric entities at asserted c
onnectivities');
#659=(
GEOMETRIC_REPRESENTATION_CONTEXT(3)
GLOBAL_UNCERTAINTY_ASSIGNED_CONTEXT((#657))
GLOBAL_UNIT_ASSIGNED_CONTEXT((#661,#663,#664))
REPRESENTATION_CONTEXT('','3D')
);
#660=(
GEOMETRIC_REPRESENTATION_CONTEXT(3)
GLOBAL_UNCERTAINTY_ASSIGNED_CONTEXT((#658))
GLOBAL_UNIT_ASSIGNED_CONTEXT((#661,#663,#664))
REPRESENTATION_CONTEXT('','3D')
);
#661=(
LENGTH_UNIT()
NAMED_UNIT(*)
SI_UNIT(.MILLI.,.METRE.)
);
#662=(
LENGTH_UNIT()
NAMED_UNIT(*)
SI_UNIT($,.METRE.)
);
#663=(
NAMED_UNIT(*)
PLANE_ANGLE_UNIT()
SI_UNIT($,.RADIAN.)
);
#664=(
NAMED_UNIT(*)
SI_UNIT($,.STERADIAN.)
SOLID_ANGLE_UNIT()
);
#665=SHAPE_DEFINITION_REPRESENTATION(#666,#667);
#666=PRODUCT_DEFINITION_SHAPE('',$,#669);
#667=SHAPE_REPRESENTATION('',(#381),#659);
#668=PRODUCT_DEFINITION_CONTEXT('part definition',#673,'design');
#669=PRODUCT_DEFINITION('2026-02-11-13-06-32-575','CV05',#670,#668);
#670=PRODUCT_DEFINITION_FORMATION('',$,#675);
#671=PRODUCT_RELATED_PRODUCT_CATEGORY('CV05','CV05',(#675));
#672=APPLICATION_PROTOCOL_DEFINITION('international standard',
'automotive_design',2009,#673);
#673=APPLICATION_CONTEXT(
'Core Data for Automotive Mechanical Design Process');
#674=PRODUCT_CONTEXT('part definition',#673,'mechanical');
#675=PRODUCT('2026-02-11-13-06-32-575','CV05',$,(#674));
#676=PRESENTATION_STYLE_ASSIGNMENT((#677));
#677=SURFACE_STYLE_USAGE(.BOTH.,#678);
#678=SURFACE_SIDE_STYLE('',(#679));
#679=SURFACE_STYLE_FILL_AREA(#680);
#680=FILL_AREA_STYLE('Steel - Satin',(#681));
#681=FILL_AREA_STYLE_COLOUR('Steel - Satin',#682);
#682=COLOUR_RGB('Steel - Satin',0.627450980392157,0.627450980392157,0.627450980392157);
ENDSEC;
END-ISO-10303-21;
