ISO-10303-21;
HEADER;
/* Generated by software containing ST-Developer
 * from STEP Tools, Inc. (www.steptools.com) 
 */

FILE_DESCRIPTION(
/* description */ (''),
/* implementation_level */ '2;1');

FILE_NAME(
/* name */ 'CV08.step',
/* time_stamp */ '2026-03-17T10:48:55-04:00',
/* author */ (''),
/* organization */ (''),
/* preprocessor_version */ 'ST-DEVELOPER v20.1',
/* originating_system */ 'Autodesk Translation Framework v14.24.0.0',
/* authorisation */ '');

FILE_SCHEMA (('AUTOMOTIVE_DESIGN { 1 0 10303 214 3 1 1 }'));
ENDSEC;

DATA;
#10=MECHANICAL_DESIGN_GEOMETRIC_PRESENTATION_REPRESENTATION('',(#13),#601);
#11=SHAPE_REPRESENTATION_RELATIONSHIP('SRR','None',#608,#12);
#12=ADVANCED_BREP_SHAPE_REPRESENTATION('',(#335),#600);
#13=STYLED_ITEM('',(#617),#335);
#14=ORIENTED_CLOSED_SHELL('',*,#316,.F.);
#15=ORIENTED_CLOSED_SHELL('',*,#317,.F.);
#16=ORIENTED_CLOSED_SHELL('',*,#318,.F.);
#17=ORIENTED_CLOSED_SHELL('',*,#319,.F.);
#18=ORIENTED_CLOSED_SHELL('',*,#320,.F.);
#19=ORIENTED_CLOSED_SHELL('',*,#321,.F.);
#20=ORIENTED_CLOSED_SHELL('',*,#322,.F.);
#21=ORIENTED_CLOSED_SHELL('',*,#323,.F.);
#22=ORIENTED_CLOSED_SHELL('',*,#324,.F.);
#23=ORIENTED_CLOSED_SHELL('',*,#325,.F.);
#24=ORIENTED_CLOSED_SHELL('',*,#326,.F.);
#25=ORIENTED_CLOSED_SHELL('',*,#327,.F.);
#26=ORIENTED_CLOSED_SHELL('',*,#328,.F.);
#27=ORIENTED_CLOSED_SHELL('',*,#329,.F.);
#28=ORIENTED_CLOSED_SHELL('',*,#330,.F.);
#29=ORIENTED_CLOSED_SHELL('',*,#331,.F.);
#30=ORIENTED_CLOSED_SHELL('',*,#332,.F.);
#31=ORIENTED_CLOSED_SHELL('',*,#333,.F.);
#32=ORIENTED_CLOSED_SHELL('',*,#334,.F.);
#33=CIRCLE('',#356,0.5);
#34=CIRCLE('',#358,0.5);
#35=CIRCLE('',#360,0.5);
#36=CIRCLE('',#362,0.400000000000003);
#37=CIRCLE('',#364,0.4);
#38=CIRCLE('',#366,0.4);
#39=CIRCLE('',#368,0.4);
#40=CIRCLE('',#370,0.3);
#41=CIRCLE('',#372,0.3);
#42=CIRCLE('',#374,0.300000000000002);
#43=CIRCLE('',#376,0.5);
#44=CIRCLE('',#378,0.500000000000001);
#45=CIRCLE('',#380,0.4);
#46=CIRCLE('',#382,0.4);
#47=CIRCLE('',#384,0.4);
#48=CIRCLE('',#386,0.300000000000002);
#49=CIRCLE('',#388,0.300000000000001);
#50=CIRCLE('',#390,0.300000000000001);
#51=CIRCLE('',#392,0.300000000000001);
#52=SPHERICAL_SURFACE('',#355,0.500000000000001);
#53=SPHERICAL_SURFACE('',#357,0.500000000000001);
#54=SPHERICAL_SURFACE('',#359,0.500000000000001);
#55=SPHERICAL_SURFACE('',#361,0.400000000000002);
#56=SPHERICAL_SURFACE('',#363,0.399999999999999);
#57=SPHERICAL_SURFACE('',#365,0.400000000000001);
#58=SPHERICAL_SURFACE('',#367,0.4);
#59=SPHERICAL_SURFACE('',#369,0.300000000000001);
#60=SPHERICAL_SURFACE('',#371,0.3);
#61=SPHERICAL_SURFACE('',#373,0.300000000000001);
#62=SPHERICAL_SURFACE('',#375,0.500000000000001);
#63=SPHERICAL_SURFACE('',#377,0.500000000000001);
#64=SPHERICAL_SURFACE('',#379,0.4);
#65=SPHERICAL_SURFACE('',#381,0.4);
#66=SPHERICAL_SURFACE('',#383,0.4);
#67=SPHERICAL_SURFACE('',#385,0.300000000000002);
#68=SPHERICAL_SURFACE('',#387,0.300000000000001);
#69=SPHERICAL_SURFACE('',#389,0.300000000000002);
#70=SPHERICAL_SURFACE('',#391,0.300000000000001);
#71=FACE_OUTER_BOUND('',#96,.T.);
#72=FACE_OUTER_BOUND('',#97,.T.);
#73=FACE_OUTER_BOUND('',#98,.T.);
#74=FACE_OUTER_BOUND('',#99,.T.);
#75=FACE_OUTER_BOUND('',#100,.T.);
#76=FACE_OUTER_BOUND('',#101,.T.);
#77=FACE_OUTER_BOUND('',#102,.T.);
#78=FACE_OUTER_BOUND('',#103,.T.);
#79=FACE_OUTER_BOUND('',#104,.T.);
#80=FACE_OUTER_BOUND('',#105,.T.);
#81=FACE_OUTER_BOUND('',#106,.T.);
#82=FACE_OUTER_BOUND('',#107,.T.);
#83=FACE_OUTER_BOUND('',#108,.T.);
#84=FACE_OUTER_BOUND('',#109,.T.);
#85=FACE_OUTER_BOUND('',#110,.T.);
#86=FACE_OUTER_BOUND('',#111,.T.);
#87=FACE_OUTER_BOUND('',#112,.T.);
#88=FACE_OUTER_BOUND('',#113,.T.);
#89=FACE_OUTER_BOUND('',#114,.T.);
#90=FACE_OUTER_BOUND('',#115,.T.);
#91=FACE_OUTER_BOUND('',#116,.T.);
#92=FACE_OUTER_BOUND('',#117,.T.);
#93=FACE_OUTER_BOUND('',#118,.T.);
#94=FACE_OUTER_BOUND('',#119,.T.);
#95=FACE_OUTER_BOUND('',#120,.T.);
#96=EDGE_LOOP('',(#222,#223,#224,#225));
#97=EDGE_LOOP('',(#226,#227,#228,#229));
#98=EDGE_LOOP('',(#230,#231,#232,#233));
#99=EDGE_LOOP('',(#234,#235,#236,#237));
#100=EDGE_LOOP('',(#238,#239,#240,#241));
#101=EDGE_LOOP('',(#242,#243,#244,#245));
#102=EDGE_LOOP('',(#246,#247));
#103=EDGE_LOOP('',(#248,#249));
#104=EDGE_LOOP('',(#250,#251));
#105=EDGE_LOOP('',(#252,#253));
#106=EDGE_LOOP('',(#254,#255));
#107=EDGE_LOOP('',(#256,#257));
#108=EDGE_LOOP('',(#258,#259));
#109=EDGE_LOOP('',(#260,#261));
#110=EDGE_LOOP('',(#262,#263));
#111=EDGE_LOOP('',(#264,#265));
#112=EDGE_LOOP('',(#266,#267));
#113=EDGE_LOOP('',(#268,#269));
#114=EDGE_LOOP('',(#270,#271));
#115=EDGE_LOOP('',(#272,#273));
#116=EDGE_LOOP('',(#274,#275));
#117=EDGE_LOOP('',(#276,#277));
#118=EDGE_LOOP('',(#278,#279));
#119=EDGE_LOOP('',(#280,#281));
#120=EDGE_LOOP('',(#282,#283));
#121=LINE('',#499,#133);
#122=LINE('',#501,#134);
#123=LINE('',#503,#135);
#124=LINE('',#504,#136);
#125=LINE('',#507,#137);
#126=LINE('',#509,#138);
#127=LINE('',#510,#139);
#128=LINE('',#513,#140);
#129=LINE('',#514,#141);
#130=LINE('',#517,#142);
#131=LINE('',#518,#143);
#132=LINE('',#520,#144);
#133=VECTOR('',#397,10.);
#134=VECTOR('',#398,10.);
#135=VECTOR('',#399,10.);
#136=VECTOR('',#400,10.);
#137=VECTOR('',#403,10.);
#138=VECTOR('',#404,10.);
#139=VECTOR('',#405,10.);
#140=VECTOR('',#408,10.);
#141=VECTOR('',#409,10.);
#142=VECTOR('',#412,10.);
#143=VECTOR('',#413,10.);
#144=VECTOR('',#416,10.);
#145=VERTEX_POINT('',#497);
#146=VERTEX_POINT('',#498);
#147=VERTEX_POINT('',#500);
#148=VERTEX_POINT('',#502);
#149=VERTEX_POINT('',#506);
#150=VERTEX_POINT('',#508);
#151=VERTEX_POINT('',#512);
#152=VERTEX_POINT('',#516);
#153=VERTEX_POINT('',#523);
#154=VERTEX_POINT('',#524);
#155=VERTEX_POINT('',#527);
#156=VERTEX_POINT('',#528);
#157=VERTEX_POINT('',#531);
#158=VERTEX_POINT('',#532);
#159=VERTEX_POINT('',#535);
#160=VERTEX_POINT('',#536);
#161=VERTEX_POINT('',#539);
#162=VERTEX_POINT('',#540);
#163=VERTEX_POINT('',#543);
#164=VERTEX_POINT('',#544);
#165=VERTEX_POINT('',#547);
#166=VERTEX_POINT('',#548);
#167=VERTEX_POINT('',#551);
#168=VERTEX_POINT('',#552);
#169=VERTEX_POINT('',#555);
#170=VERTEX_POINT('',#556);
#171=VERTEX_POINT('',#559);
#172=VERTEX_POINT('',#560);
#173=VERTEX_POINT('',#563);
#174=VERTEX_POINT('',#564);
#175=VERTEX_POINT('',#567);
#176=VERTEX_POINT('',#568);
#177=VERTEX_POINT('',#571);
#178=VERTEX_POINT('',#572);
#179=VERTEX_POINT('',#575);
#180=VERTEX_POINT('',#576);
#181=VERTEX_POINT('',#579);
#182=VERTEX_POINT('',#580);
#183=VERTEX_POINT('',#583);
#184=VERTEX_POINT('',#584);
#185=VERTEX_POINT('',#587);
#186=VERTEX_POINT('',#588);
#187=VERTEX_POINT('',#591);
#188=VERTEX_POINT('',#592);
#189=VERTEX_POINT('',#595);
#190=VERTEX_POINT('',#596);
#191=EDGE_CURVE('',#145,#146,#121,.T.);
#192=EDGE_CURVE('',#146,#147,#122,.T.);
#193=EDGE_CURVE('',#147,#148,#123,.T.);
#194=EDGE_CURVE('',#148,#145,#124,.T.);
#195=EDGE_CURVE('',#149,#146,#125,.T.);
#196=EDGE_CURVE('',#150,#149,#126,.T.);
#197=EDGE_CURVE('',#147,#150,#127,.T.);
#198=EDGE_CURVE('',#151,#150,#128,.T.);
#199=EDGE_CURVE('',#148,#151,#129,.T.);
#200=EDGE_CURVE('',#152,#151,#130,.T.);
#201=EDGE_CURVE('',#145,#152,#131,.T.);
#202=EDGE_CURVE('',#149,#152,#132,.T.);
#203=EDGE_CURVE('',#153,#154,#33,.T.);
#204=EDGE_CURVE('',#155,#156,#34,.T.);
#205=EDGE_CURVE('',#157,#158,#35,.T.);
#206=EDGE_CURVE('',#159,#160,#36,.T.);
#207=EDGE_CURVE('',#161,#162,#37,.T.);
#208=EDGE_CURVE('',#163,#164,#38,.T.);
#209=EDGE_CURVE('',#165,#166,#39,.T.);
#210=EDGE_CURVE('',#167,#168,#40,.T.);
#211=EDGE_CURVE('',#169,#170,#41,.T.);
#212=EDGE_CURVE('',#171,#172,#42,.T.);
#213=EDGE_CURVE('',#173,#174,#43,.T.);
#214=EDGE_CURVE('',#175,#176,#44,.T.);
#215=EDGE_CURVE('',#177,#178,#45,.T.);
#216=EDGE_CURVE('',#179,#180,#46,.T.);
#217=EDGE_CURVE('',#181,#182,#47,.T.);
#218=EDGE_CURVE('',#183,#184,#48,.T.);
#219=EDGE_CURVE('',#185,#186,#49,.T.);
#220=EDGE_CURVE('',#187,#188,#50,.T.);
#221=EDGE_CURVE('',#189,#190,#51,.T.);
#222=ORIENTED_EDGE('',*,*,#191,.T.);
#223=ORIENTED_EDGE('',*,*,#192,.T.);
#224=ORIENTED_EDGE('',*,*,#193,.T.);
#225=ORIENTED_EDGE('',*,*,#194,.T.);
#226=ORIENTED_EDGE('',*,*,#195,.F.);
#227=ORIENTED_EDGE('',*,*,#196,.F.);
#228=ORIENTED_EDGE('',*,*,#197,.F.);
#229=ORIENTED_EDGE('',*,*,#192,.F.);
#230=ORIENTED_EDGE('',*,*,#197,.T.);
#231=ORIENTED_EDGE('',*,*,#198,.F.);
#232=ORIENTED_EDGE('',*,*,#199,.F.);
#233=ORIENTED_EDGE('',*,*,#193,.F.);
#234=ORIENTED_EDGE('',*,*,#199,.T.);
#235=ORIENTED_EDGE('',*,*,#200,.F.);
#236=ORIENTED_EDGE('',*,*,#201,.F.);
#237=ORIENTED_EDGE('',*,*,#194,.F.);
#238=ORIENTED_EDGE('',*,*,#201,.T.);
#239=ORIENTED_EDGE('',*,*,#202,.F.);
#240=ORIENTED_EDGE('',*,*,#195,.T.);
#241=ORIENTED_EDGE('',*,*,#191,.F.);
#242=ORIENTED_EDGE('',*,*,#202,.T.);
#243=ORIENTED_EDGE('',*,*,#200,.T.);
#244=ORIENTED_EDGE('',*,*,#198,.T.);
#245=ORIENTED_EDGE('',*,*,#196,.T.);
#246=ORIENTED_EDGE('',*,*,#203,.T.);
#247=ORIENTED_EDGE('',*,*,#203,.F.);
#248=ORIENTED_EDGE('',*,*,#204,.T.);
#249=ORIENTED_EDGE('',*,*,#204,.F.);
#250=ORIENTED_EDGE('',*,*,#205,.T.);
#251=ORIENTED_EDGE('',*,*,#205,.F.);
#252=ORIENTED_EDGE('',*,*,#206,.T.);
#253=ORIENTED_EDGE('',*,*,#206,.F.);
#254=ORIENTED_EDGE('',*,*,#207,.T.);
#255=ORIENTED_EDGE('',*,*,#207,.F.);
#256=ORIENTED_EDGE('',*,*,#208,.T.);
#257=ORIENTED_EDGE('',*,*,#208,.F.);
#258=ORIENTED_EDGE('',*,*,#209,.T.);
#259=ORIENTED_EDGE('',*,*,#209,.F.);
#260=ORIENTED_EDGE('',*,*,#210,.T.);
#261=ORIENTED_EDGE('',*,*,#210,.F.);
#262=ORIENTED_EDGE('',*,*,#211,.T.);
#263=ORIENTED_EDGE('',*,*,#211,.F.);
#264=ORIENTED_EDGE('',*,*,#212,.T.);
#265=ORIENTED_EDGE('',*,*,#212,.F.);
#266=ORIENTED_EDGE('',*,*,#213,.T.);
#267=ORIENTED_EDGE('',*,*,#213,.F.);
#268=ORIENTED_EDGE('',*,*,#214,.T.);
#269=ORIENTED_EDGE('',*,*,#214,.F.);
#270=ORIENTED_EDGE('',*,*,#215,.T.);
#271=ORIENTED_EDGE('',*,*,#215,.F.);
#272=ORIENTED_EDGE('',*,*,#216,.T.);
#273=ORIENTED_EDGE('',*,*,#216,.F.);
#274=ORIENTED_EDGE('',*,*,#217,.T.);
#275=ORIENTED_EDGE('',*,*,#217,.F.);
#276=ORIENTED_EDGE('',*,*,#218,.T.);
#277=ORIENTED_EDGE('',*,*,#218,.F.);
#278=ORIENTED_EDGE('',*,*,#219,.T.);
#279=ORIENTED_EDGE('',*,*,#219,.F.);
#280=ORIENTED_EDGE('',*,*,#220,.T.);
#281=ORIENTED_EDGE('',*,*,#220,.F.);
#282=ORIENTED_EDGE('',*,*,#221,.T.);
#283=ORIENTED_EDGE('',*,*,#221,.F.);
#284=PLANE('',#349);
#285=PLANE('',#350);
#286=PLANE('',#351);
#287=PLANE('',#352);
#288=PLANE('',#353);
#289=PLANE('',#354);
#290=ADVANCED_FACE('',(#71),#284,.T.);
#291=ADVANCED_FACE('',(#72),#285,.T.);
#292=ADVANCED_FACE('',(#73),#286,.T.);
#293=ADVANCED_FACE('',(#74),#287,.T.);
#294=ADVANCED_FACE('',(#75),#288,.T.);
#295=ADVANCED_FACE('',(#76),#289,.T.);
#296=ADVANCED_FACE('',(#77),#52,.F.);
#297=ADVANCED_FACE('',(#78),#53,.F.);
#298=ADVANCED_FACE('',(#79),#54,.F.);
#299=ADVANCED_FACE('',(#80),#55,.F.);
#300=ADVANCED_FACE('',(#81),#56,.F.);
#301=ADVANCED_FACE('',(#82),#57,.F.);
#302=ADVANCED_FACE('',(#83),#58,.F.);
#303=ADVANCED_FACE('',(#84),#59,.F.);
#304=ADVANCED_FACE('',(#85),#60,.F.);
#305=ADVANCED_FACE('',(#86),#61,.F.);
#306=ADVANCED_FACE('',(#87),#62,.F.);
#307=ADVANCED_FACE('',(#88),#63,.F.);
#308=ADVANCED_FACE('',(#89),#64,.F.);
#309=ADVANCED_FACE('',(#90),#65,.F.);
#310=ADVANCED_FACE('',(#91),#66,.F.);
#311=ADVANCED_FACE('',(#92),#67,.F.);
#312=ADVANCED_FACE('',(#93),#68,.F.);
#313=ADVANCED_FACE('',(#94),#69,.F.);
#314=ADVANCED_FACE('',(#95),#70,.F.);
#315=CLOSED_SHELL('',(#290,#291,#292,#293,#294,#295));
#316=CLOSED_SHELL('',(#296));
#317=CLOSED_SHELL('',(#297));
#318=CLOSED_SHELL('',(#298));
#319=CLOSED_SHELL('',(#299));
#320=CLOSED_SHELL('',(#300));
#321=CLOSED_SHELL('',(#301));
#322=CLOSED_SHELL('',(#302));
#323=CLOSED_SHELL('',(#303));
#324=CLOSED_SHELL('',(#304));
#325=CLOSED_SHELL('',(#305));
#326=CLOSED_SHELL('',(#306));
#327=CLOSED_SHELL('',(#307));
#328=CLOSED_SHELL('',(#308));
#329=CLOSED_SHELL('',(#309));
#330=CLOSED_SHELL('',(#310));
#331=CLOSED_SHELL('',(#311));
#332=CLOSED_SHELL('',(#312));
#333=CLOSED_SHELL('',(#313));
#334=CLOSED_SHELL('',(#314));
#335=BREP_WITH_VOIDS('Body1',#315,(#14,#15,#16,#17,#18,#19,#20,#21,#22,
#23,#24,#25,#26,#27,#28,#29,#30,#31,#32));
#336=DERIVED_UNIT_ELEMENT(#338,1.);
#337=DERIVED_UNIT_ELEMENT(#603,-3.);
#338=(
MASS_UNIT()
NAMED_UNIT(*)
SI_UNIT(.KILO.,.GRAM.)
);
#339=DERIVED_UNIT((#336,#337));
#340=MEASURE_REPRESENTATION_ITEM('density measure',
POSITIVE_RATIO_MEASURE(7850.),#339);
#341=PROPERTY_DEFINITION_REPRESENTATION(#346,#343);
#342=PROPERTY_DEFINITION_REPRESENTATION(#347,#344);
#343=REPRESENTATION('material name',(#345),#600);
#344=REPRESENTATION('density',(#340),#600);
#345=DESCRIPTIVE_REPRESENTATION_ITEM('Steel','Steel');
#346=PROPERTY_DEFINITION('material property','material name',#610);
#347=PROPERTY_DEFINITION('material property','density of part',#610);
#348=AXIS2_PLACEMENT_3D('',#495,#393,#394);
#349=AXIS2_PLACEMENT_3D('',#496,#395,#396);
#350=AXIS2_PLACEMENT_3D('',#505,#401,#402);
#351=AXIS2_PLACEMENT_3D('',#511,#406,#407);
#352=AXIS2_PLACEMENT_3D('',#515,#410,#411);
#353=AXIS2_PLACEMENT_3D('',#519,#414,#415);
#354=AXIS2_PLACEMENT_3D('',#521,#417,#418);
#355=AXIS2_PLACEMENT_3D('',#522,#419,#420);
#356=AXIS2_PLACEMENT_3D('',#525,#421,#422);
#357=AXIS2_PLACEMENT_3D('',#526,#423,#424);
#358=AXIS2_PLACEMENT_3D('',#529,#425,#426);
#359=AXIS2_PLACEMENT_3D('',#530,#427,#428);
#360=AXIS2_PLACEMENT_3D('',#533,#429,#430);
#361=AXIS2_PLACEMENT_3D('',#534,#431,#432);
#362=AXIS2_PLACEMENT_3D('',#537,#433,#434);
#363=AXIS2_PLACEMENT_3D('',#538,#435,#436);
#364=AXIS2_PLACEMENT_3D('',#541,#437,#438);
#365=AXIS2_PLACEMENT_3D('',#542,#439,#440);
#366=AXIS2_PLACEMENT_3D('',#545,#441,#442);
#367=AXIS2_PLACEMENT_3D('',#546,#443,#444);
#368=AXIS2_PLACEMENT_3D('',#549,#445,#446);
#369=AXIS2_PLACEMENT_3D('',#550,#447,#448);
#370=AXIS2_PLACEMENT_3D('',#553,#449,#450);
#371=AXIS2_PLACEMENT_3D('',#554,#451,#452);
#372=AXIS2_PLACEMENT_3D('',#557,#453,#454);
#373=AXIS2_PLACEMENT_3D('',#558,#455,#456);
#374=AXIS2_PLACEMENT_3D('',#561,#457,#458);
#375=AXIS2_PLACEMENT_3D('',#562,#459,#460);
#376=AXIS2_PLACEMENT_3D('',#565,#461,#462);
#377=AXIS2_PLACEMENT_3D('',#566,#463,#464);
#378=AXIS2_PLACEMENT_3D('',#569,#465,#466);
#379=AXIS2_PLACEMENT_3D('',#570,#467,#468);
#380=AXIS2_PLACEMENT_3D('',#573,#469,#470);
#381=AXIS2_PLACEMENT_3D('',#574,#471,#472);
#382=AXIS2_PLACEMENT_3D('',#577,#473,#474);
#383=AXIS2_PLACEMENT_3D('',#578,#475,#476);
#384=AXIS2_PLACEMENT_3D('',#581,#477,#478);
#385=AXIS2_PLACEMENT_3D('',#582,#479,#480);
#386=AXIS2_PLACEMENT_3D('',#585,#481,#482);
#387=AXIS2_PLACEMENT_3D('',#586,#483,#484);
#388=AXIS2_PLACEMENT_3D('',#589,#485,#486);
#389=AXIS2_PLACEMENT_3D('',#590,#487,#488);
#390=AXIS2_PLACEMENT_3D('',#593,#489,#490);
#391=AXIS2_PLACEMENT_3D('',#594,#491,#492);
#392=AXIS2_PLACEMENT_3D('',#597,#493,#494);
#393=DIRECTION('axis',(0.,0.,1.));
#394=DIRECTION('refdir',(1.,0.,0.));
#395=DIRECTION('center_axis',(-1.,0.,0.));
#396=DIRECTION('ref_axis',(0.,0.,1.));
#397=DIRECTION('',(0.,-1.,0.));
#398=DIRECTION('',(0.,0.,1.));
#399=DIRECTION('',(0.,1.,0.));
#400=DIRECTION('',(0.,0.,-1.));
#401=DIRECTION('center_axis',(0.,-1.,0.));
#402=DIRECTION('ref_axis',(0.,0.,-1.));
#403=DIRECTION('',(-1.,0.,0.));
#404=DIRECTION('',(0.,0.,-1.));
#405=DIRECTION('',(1.,0.,0.));
#406=DIRECTION('center_axis',(0.,0.,1.));
#407=DIRECTION('ref_axis',(0.,-1.,0.));
#408=DIRECTION('',(0.,-1.,0.));
#409=DIRECTION('',(1.,0.,0.));
#410=DIRECTION('center_axis',(0.,1.,0.));
#411=DIRECTION('ref_axis',(0.,0.,1.));
#412=DIRECTION('',(0.,0.,1.));
#413=DIRECTION('',(1.,0.,0.));
#414=DIRECTION('center_axis',(0.,0.,-1.));
#415=DIRECTION('ref_axis',(0.,1.,0.));
#416=DIRECTION('',(0.,1.,0.));
#417=DIRECTION('center_axis',(1.,0.,0.));
#418=DIRECTION('ref_axis',(0.,0.,-1.));
#419=DIRECTION('center_axis',(1.,0.,0.));
#420=DIRECTION('ref_axis',(0.,-1.,0.));
#421=DIRECTION('center_axis',(0.,0.,-1.));
#422=DIRECTION('ref_axis',(0.,1.,0.));
#423=DIRECTION('center_axis',(1.,0.,0.));
#424=DIRECTION('ref_axis',(0.,-1.,0.));
#425=DIRECTION('center_axis',(0.,0.,-1.));
#426=DIRECTION('ref_axis',(0.,1.,0.));
#427=DIRECTION('center_axis',(1.,0.,0.));
#428=DIRECTION('ref_axis',(0.,-1.,0.));
#429=DIRECTION('center_axis',(0.,0.,-1.));
#430=DIRECTION('ref_axis',(0.,1.,0.));
#431=DIRECTION('center_axis',(1.,0.,0.));
#432=DIRECTION('ref_axis',(0.,-1.,0.));
#433=DIRECTION('center_axis',(0.,0.,-1.));
#434=DIRECTION('ref_axis',(0.,1.,0.));
#435=DIRECTION('center_axis',(1.,0.,0.));
#436=DIRECTION('ref_axis',(0.,-1.,0.));
#437=DIRECTION('center_axis',(0.,0.,-1.));
#438=DIRECTION('ref_axis',(0.,1.,0.));
#439=DIRECTION('center_axis',(1.,0.,0.));
#440=DIRECTION('ref_axis',(0.,-1.,0.));
#441=DIRECTION('center_axis',(0.,0.,-1.));
#442=DIRECTION('ref_axis',(0.,1.,0.));
#443=DIRECTION('center_axis',(1.,0.,0.));
#444=DIRECTION('ref_axis',(0.,-1.,0.));
#445=DIRECTION('center_axis',(0.,0.,-1.));
#446=DIRECTION('ref_axis',(0.,1.,0.));
#447=DIRECTION('center_axis',(1.,0.,0.));
#448=DIRECTION('ref_axis',(0.,-1.,0.));
#449=DIRECTION('center_axis',(0.,0.,-1.));
#450=DIRECTION('ref_axis',(0.,1.,0.));
#451=DIRECTION('center_axis',(1.,0.,0.));
#452=DIRECTION('ref_axis',(0.,-1.,0.));
#453=DIRECTION('center_axis',(0.,0.,-1.));
#454=DIRECTION('ref_axis',(0.,1.,0.));
#455=DIRECTION('center_axis',(1.,0.,0.));
#456=DIRECTION('ref_axis',(0.,-1.,0.));
#457=DIRECTION('center_axis',(0.,0.,-1.));
#458=DIRECTION('ref_axis',(0.,1.,0.));
#459=DIRECTION('center_axis',(1.,0.,0.));
#460=DIRECTION('ref_axis',(0.,-1.,0.));
#461=DIRECTION('center_axis',(0.,0.,-1.));
#462=DIRECTION('ref_axis',(0.,1.,0.));
#463=DIRECTION('center_axis',(1.,0.,0.));
#464=DIRECTION('ref_axis',(0.,-1.,0.));
#465=DIRECTION('center_axis',(0.,0.,-1.));
#466=DIRECTION('ref_axis',(0.,1.,0.));
#467=DIRECTION('center_axis',(1.,0.,0.));
#468=DIRECTION('ref_axis',(0.,-1.,0.));
#469=DIRECTION('center_axis',(0.,0.,-1.));
#470=DIRECTION('ref_axis',(0.,1.,0.));
#471=DIRECTION('center_axis',(1.,0.,0.));
#472=DIRECTION('ref_axis',(0.,-1.,0.));
#473=DIRECTION('center_axis',(0.,0.,-1.));
#474=DIRECTION('ref_axis',(0.,1.,0.));
#475=DIRECTION('center_axis',(0.,0.,1.));
#476=DIRECTION('ref_axis',(1.,0.,0.));
#477=DIRECTION('center_axis',(0.,1.,0.));
#478=DIRECTION('ref_axis',(-1.,0.,0.));
#479=DIRECTION('center_axis',(1.,0.,0.));
#480=DIRECTION('ref_axis',(0.,-1.,0.));
#481=DIRECTION('center_axis',(0.,0.,-1.));
#482=DIRECTION('ref_axis',(0.,1.,0.));
#483=DIRECTION('center_axis',(1.,0.,0.));
#484=DIRECTION('ref_axis',(0.,-1.,0.));
#485=DIRECTION('center_axis',(0.,0.,-1.));
#486=DIRECTION('ref_axis',(0.,1.,0.));
#487=DIRECTION('center_axis',(1.,0.,0.));
#488=DIRECTION('ref_axis',(0.,-1.,0.));
#489=DIRECTION('center_axis',(0.,0.,-1.));
#490=DIRECTION('ref_axis',(0.,1.,0.));
#491=DIRECTION('center_axis',(1.,0.,0.));
#492=DIRECTION('ref_axis',(0.,-1.,0.));
#493=DIRECTION('center_axis',(0.,0.,-1.));
#494=DIRECTION('ref_axis',(0.,1.,0.));
#495=CARTESIAN_POINT('',(0.,0.,0.));
#496=CARTESIAN_POINT('Origin',(-2.5,-10.,10.));
#497=CARTESIAN_POINT('',(-2.5,0.,0.));
#498=CARTESIAN_POINT('',(-2.5,-20.,0.));
#499=CARTESIAN_POINT('',(-2.5,0.,0.));
#500=CARTESIAN_POINT('',(-2.5,-20.,20.));
#501=CARTESIAN_POINT('',(-2.5,-20.,0.));
#502=CARTESIAN_POINT('',(-2.5,0.,20.));
#503=CARTESIAN_POINT('',(-2.5,-20.,20.));
#504=CARTESIAN_POINT('',(-2.5,0.,20.));
#505=CARTESIAN_POINT('Origin',(0.,-20.,20.));
#506=CARTESIAN_POINT('',(2.5,-20.,0.));
#507=CARTESIAN_POINT('',(0.,-20.,0.));
#508=CARTESIAN_POINT('',(2.5,-20.,20.));
#509=CARTESIAN_POINT('',(2.5,-20.,0.));
#510=CARTESIAN_POINT('',(0.,-20.,20.));
#511=CARTESIAN_POINT('Origin',(0.,0.,20.));
#512=CARTESIAN_POINT('',(2.5,0.,20.));
#513=CARTESIAN_POINT('',(2.5,-20.,20.));
#514=CARTESIAN_POINT('',(0.,0.,20.));
#515=CARTESIAN_POINT('Origin',(0.,0.,0.));
#516=CARTESIAN_POINT('',(2.5,0.,0.));
#517=CARTESIAN_POINT('',(2.5,0.,20.));
#518=CARTESIAN_POINT('',(0.,0.,0.));
#519=CARTESIAN_POINT('Origin',(0.,-20.,0.));
#520=CARTESIAN_POINT('',(2.5,0.,0.));
#521=CARTESIAN_POINT('Origin',(2.5,-10.,10.));
#522=CARTESIAN_POINT('Origin',(0.5,-16.1386964609869,3.68704823726083));
#523=CARTESIAN_POINT('',(0.,-16.1386964609869,3.68704823726083));
#524=CARTESIAN_POINT('',(1.,-16.1386964609869,3.68704823726083));
#525=CARTESIAN_POINT('Origin',(0.5,-16.1386964609869,3.68704823726083));
#526=CARTESIAN_POINT('Origin',(0.5,-15.0300177687394,3.7032247972885));
#527=CARTESIAN_POINT('',(0.,-15.0300177687394,3.7032247972885));
#528=CARTESIAN_POINT('',(1.,-15.0300177687394,3.7032247972885));
#529=CARTESIAN_POINT('Origin',(0.5,-15.0300177687394,3.7032247972885));
#530=CARTESIAN_POINT('Origin',(0.5,-13.925880366158,3.72954625638196));
#531=CARTESIAN_POINT('',(0.,-13.925880366158,3.72954625638196));
#532=CARTESIAN_POINT('',(1.,-13.925880366158,3.72954625638196));
#533=CARTESIAN_POINT('Origin',(0.5,-13.925880366158,3.72954625638196));
#534=CARTESIAN_POINT('Origin',(0.5,-16.3693059216422,4.66488940800605));
#535=CARTESIAN_POINT('',(0.0999999999999979,-16.3693059216422,4.66488940800605));
#536=CARTESIAN_POINT('',(0.900000000000003,-16.3693059216422,4.66488940800605));
#537=CARTESIAN_POINT('Origin',(0.5,-16.3693059216422,4.66488940800605));
#538=CARTESIAN_POINT('Origin',(0.5,-15.4874647446981,4.67793888495716));
#539=CARTESIAN_POINT('',(0.1,-15.4874647446981,4.67793888495716));
#540=CARTESIAN_POINT('',(0.900000000000001,-15.4874647446981,4.67793888495716));
#541=CARTESIAN_POINT('Origin',(0.5,-15.4874647446981,4.67793888495716));
#542=CARTESIAN_POINT('Origin',(0.5,-14.6052979648765,4.70549703432509));
#543=CARTESIAN_POINT('',(0.1,-14.6052979648765,4.70549703432509));
#544=CARTESIAN_POINT('',(0.900000000000001,-14.6052979648765,4.70549703432509));
#545=CARTESIAN_POINT('Origin',(0.5,-14.6052979648765,4.70549703432509));
#546=CARTESIAN_POINT('Origin',(0.5,-13.7132601781202,4.72987248521353));
#547=CARTESIAN_POINT('',(0.1,-13.7132601781202,4.72987248521353));
#548=CARTESIAN_POINT('',(0.900000000000001,-13.7132601781202,4.72987248521353));
#549=CARTESIAN_POINT('Origin',(0.5,-13.7132601781202,4.72987248521353));
#550=CARTESIAN_POINT('Origin',(0.5,-15.7274352833214,5.56589290872735));
#551=CARTESIAN_POINT('',(0.2,-15.7274352833214,5.56589290872735));
#552=CARTESIAN_POINT('',(0.800000000000001,-15.7274352833214,5.56589290872735));
#553=CARTESIAN_POINT('Origin',(0.5,-15.7274352833214,5.56589290872735));
#554=CARTESIAN_POINT('Origin',(0.5,-15.0249107565862,5.57017348687489));
#555=CARTESIAN_POINT('',(0.2,-15.0249107565862,5.57017348687489));
#556=CARTESIAN_POINT('',(0.800000000000001,-15.0249107565862,5.57017348687489));
#557=CARTESIAN_POINT('Origin',(0.5,-15.0249107565862,5.57017348687489));
#558=CARTESIAN_POINT('Origin',(0.5,-14.3042073723813,5.56478236819674));
#559=CARTESIAN_POINT('',(0.199999999999998,-14.3042073723813,5.56478236819674));
#560=CARTESIAN_POINT('',(0.800000000000003,-14.3042073723813,5.56478236819674));
#561=CARTESIAN_POINT('Origin',(0.5,-14.3042073723813,5.56478236819674));
#562=CARTESIAN_POINT('Origin',(-0.5,-4.19173158064186,15.1018306943167));
#563=CARTESIAN_POINT('',(-1.,-4.19173158064186,15.1018306943167));
#564=CARTESIAN_POINT('',(5.55111512312578E-16,-4.19173158064186,15.1018306943167));
#565=CARTESIAN_POINT('Origin',(-0.5,-4.19173158064186,15.1018306943167));
#566=CARTESIAN_POINT('Origin',(-0.5,-3.01616267511705,15.1067674991145));
#567=CARTESIAN_POINT('',(-1.,-3.01616267511705,15.1067674991145));
#568=CARTESIAN_POINT('',(1.11022302462516E-15,-3.01616267511705,15.1067674991145));
#569=CARTESIAN_POINT('Origin',(-0.5,-3.01616267511705,15.1067674991145));
#570=CARTESIAN_POINT('Origin',(-0.5,-4.56659015342875,16.1030007066795));
#571=CARTESIAN_POINT('',(-0.9,-4.56659015342875,16.1030007066795));
#572=CARTESIAN_POINT('',(-0.0999999999999995,-4.56659015342875,16.1030007066795));
#573=CARTESIAN_POINT('Origin',(-0.5,-4.56659015342875,16.1030007066795));
#574=CARTESIAN_POINT('Origin',(-0.5,-3.60693278458099,16.1085247425644));
#575=CARTESIAN_POINT('',(-0.9,-3.60693278458099,16.1085247425644));
#576=CARTESIAN_POINT('',(-0.1,-3.60693278458099,16.1085247425644));
#577=CARTESIAN_POINT('Origin',(-0.5,-3.60693278458099,16.1085247425644));
#578=CARTESIAN_POINT('Origin',(-0.5,-2.63770199088791,16.114056866545));
#579=CARTESIAN_POINT('',(-0.5,-2.63770199088791,15.714056866545));
#580=CARTESIAN_POINT('',(-0.5,-2.63770199088791,16.514056866545));
#581=CARTESIAN_POINT('Origin',(-0.5,-2.63770199088791,16.114056866545));
#582=CARTESIAN_POINT('Origin',(-0.5,-4.6564356407914,17.0000002533197));
#583=CARTESIAN_POINT('',(-0.800000000000002,-4.6564356407914,17.0000002533197));
#584=CARTESIAN_POINT('',(-0.199999999999998,-4.6564356407914,17.0000002533197));
#585=CARTESIAN_POINT('Origin',(-0.5,-4.6564356407914,17.0000002533197));
#586=CARTESIAN_POINT('Origin',(-0.5,-4.00000005960464,17.0000002533197));
#587=CARTESIAN_POINT('',(-0.800000000000001,-4.00000005960464,17.0000002533197));
#588=CARTESIAN_POINT('',(-0.199999999999999,-4.00000005960464,17.0000002533197));
#589=CARTESIAN_POINT('Origin',(-0.5,-4.00000005960464,17.0000002533197));
#590=CARTESIAN_POINT('Origin',(-0.5,-3.24092854880817,17.0000002533197));
#591=CARTESIAN_POINT('',(-0.800000000000001,-3.24092854880817,17.0000002533197));
#592=CARTESIAN_POINT('',(-0.199999999999999,-3.24092854880817,17.0000002533197));
#593=CARTESIAN_POINT('Origin',(-0.5,-3.24092854880817,17.0000002533197));
#594=CARTESIAN_POINT('Origin',(-0.5,-2.5000000372529,17.0000002533197));
#595=CARTESIAN_POINT('',(-0.800000000000001,-2.5000000372529,17.0000002533197));
#596=CARTESIAN_POINT('',(-0.199999999999999,-2.5000000372529,17.0000002533197));
#597=CARTESIAN_POINT('Origin',(-0.5,-2.5000000372529,17.0000002533197));
#598=UNCERTAINTY_MEASURE_WITH_UNIT(LENGTH_MEASURE(0.01),#602,
'DISTANCE_ACCURACY_VALUE',
'Maximum model space distance between geometric entities at asserted c
onnectivities');
#599=UNCERTAINTY_MEASURE_WITH_UNIT(LENGTH_MEASURE(0.01),#602,
'DISTANCE_ACCURACY_VALUE',
'Maximum model space distance between geometric entities at asserted c
onnectivities');
#600=(
GEOMETRIC_REPRESENTATION_CONTEXT(3)
GLOBAL_UNCERTAINTY_ASSIGNED_CONTEXT((#598))
GLOBAL_UNIT_ASSIGNED_CONTEXT((#602,#604,#605))
REPRESENTATION_CONTEXT('','3D')
);
#601=(
GEOMETRIC_REPRESENTATION_CONTEXT(3)
GLOBAL_UNCERTAINTY_ASSIGNED_CONTEXT((#599))
GLOBAL_UNIT_ASSIGNED_CONTEXT((#602,#604,#605))
REPRESENTATION_CONTEXT('','3D')
);
#602=(
LENGTH_UNIT()
NAMED_UNIT(*)
SI_UNIT(.MILLI.,.METRE.)
);
#603=(
LENGTH_UNIT()
NAMED_UNIT(*)
SI_UNIT($,.METRE.)
);
#604=(
NAMED_UNIT(*)
PLANE_ANGLE_UNIT()
SI_UNIT($,.RADIAN.)
);
#605=(
NAMED_UNIT(*)
SI_UNIT($,.STERADIAN.)
SOLID_ANGLE_UNIT()
);
#606=SHAPE_DEFINITION_REPRESENTATION(#607,#608);
#607=PRODUCT_DEFINITION_SHAPE('',$,#610);
#608=SHAPE_REPRESENTATION('',(#348),#600);
#609=PRODUCT_DEFINITION_CONTEXT('part definition',#614,'design');
#610=PRODUCT_DEFINITION('2026-02-26-17-41-50-743','CV08',#611,#609);
#611=PRODUCT_DEFINITION_FORMATION('',$,#616);
#612=PRODUCT_RELATED_PRODUCT_CATEGORY('CV08','CV08',(#616));
#613=APPLICATION_PROTOCOL_DEFINITION('international standard',
'automotive_design',2009,#614);
#614=APPLICATION_CONTEXT(
'Core Data for Automotive Mechanical Design Process');
#615=PRODUCT_CONTEXT('part definition',#614,'mechanical');
#616=PRODUCT('2026-02-26-17-41-50-743','CV08',$,(#615));
#617=PRESENTATION_STYLE_ASSIGNMENT((#618));
#618=SURFACE_STYLE_USAGE(.BOTH.,#619);
#619=SURFACE_SIDE_STYLE('',(#620));
#620=SURFACE_STYLE_FILL_AREA(#621);
#621=FILL_AREA_STYLE('Steel - Satin',(#622));
#622=FILL_AREA_STYLE_COLOUR('Steel - Satin',#623);
#623=COLOUR_RGB('Steel - Satin',0.627450980392157,0.627450980392157,0.627450980392157);
ENDSEC;
END-ISO-10303-21;
