ISO-10303-21;
HEADER;
/* Generated by software containing ST-Developer
 * from STEP Tools, Inc. (www.steptools.com) 
 */

FILE_DESCRIPTION(
/* description */ (''),
/* implementation_level */ '2;1');

FILE_NAME(
/* name */ 'Inclinedplanes_CV16.step',
/* time_stamp */ '2026-03-17T10:48:44-04:00',
/* author */ (''),
/* organization */ (''),
/* preprocessor_version */ 'ST-DEVELOPER v20.1',
/* originating_system */ 'Autodesk Translation Framework v14.24.0.0',
/* authorisation */ '');

FILE_SCHEMA (('AUTOMOTIVE_DESIGN { 1 0 10303 214 3 1 1 }'));
ENDSEC;

DATA;
#10=MECHANICAL_DESIGN_GEOMETRIC_PRESENTATION_REPRESENTATION('',(#13),#483);
#11=SHAPE_REPRESENTATION_RELATIONSHIP('SRR','None',#490,#12);
#12=ADVANCED_BREP_SHAPE_REPRESENTATION('',(#295),#482);
#13=STYLED_ITEM('',(#499),#295);
#14=ORIENTED_CLOSED_SHELL('',*,#293,.F.);
#15=ORIENTED_CLOSED_SHELL('',*,#294,.F.);
#16=FACE_OUTER_BOUND('',#34,.T.);
#17=FACE_OUTER_BOUND('',#35,.T.);
#18=FACE_OUTER_BOUND('',#36,.T.);
#19=FACE_OUTER_BOUND('',#37,.T.);
#20=FACE_OUTER_BOUND('',#38,.T.);
#21=FACE_OUTER_BOUND('',#39,.T.);
#22=FACE_OUTER_BOUND('',#40,.T.);
#23=FACE_OUTER_BOUND('',#41,.T.);
#24=FACE_OUTER_BOUND('',#42,.T.);
#25=FACE_OUTER_BOUND('',#43,.T.);
#26=FACE_OUTER_BOUND('',#44,.T.);
#27=FACE_OUTER_BOUND('',#45,.T.);
#28=FACE_OUTER_BOUND('',#46,.T.);
#29=FACE_OUTER_BOUND('',#47,.T.);
#30=FACE_OUTER_BOUND('',#48,.T.);
#31=FACE_OUTER_BOUND('',#49,.T.);
#32=FACE_OUTER_BOUND('',#50,.T.);
#33=FACE_OUTER_BOUND('',#51,.T.);
#34=EDGE_LOOP('',(#184,#185,#186,#187));
#35=EDGE_LOOP('',(#188,#189,#190,#191));
#36=EDGE_LOOP('',(#192,#193,#194,#195));
#37=EDGE_LOOP('',(#196,#197,#198,#199));
#38=EDGE_LOOP('',(#200,#201,#202,#203));
#39=EDGE_LOOP('',(#204,#205,#206,#207));
#40=EDGE_LOOP('',(#208,#209,#210,#211));
#41=EDGE_LOOP('',(#212,#213,#214,#215));
#42=EDGE_LOOP('',(#216,#217,#218,#219));
#43=EDGE_LOOP('',(#220,#221,#222,#223));
#44=EDGE_LOOP('',(#224,#225,#226,#227));
#45=EDGE_LOOP('',(#228,#229,#230,#231));
#46=EDGE_LOOP('',(#232,#233,#234,#235));
#47=EDGE_LOOP('',(#236,#237,#238,#239));
#48=EDGE_LOOP('',(#240,#241,#242,#243));
#49=EDGE_LOOP('',(#244,#245,#246,#247));
#50=EDGE_LOOP('',(#248,#249,#250,#251));
#51=EDGE_LOOP('',(#252,#253,#254,#255));
#52=LINE('',#405,#88);
#53=LINE('',#407,#89);
#54=LINE('',#409,#90);
#55=LINE('',#410,#91);
#56=LINE('',#413,#92);
#57=LINE('',#415,#93);
#58=LINE('',#416,#94);
#59=LINE('',#419,#95);
#60=LINE('',#420,#96);
#61=LINE('',#423,#97);
#62=LINE('',#424,#98);
#63=LINE('',#426,#99);
#64=LINE('',#431,#100);
#65=LINE('',#433,#101);
#66=LINE('',#435,#102);
#67=LINE('',#436,#103);
#68=LINE('',#439,#104);
#69=LINE('',#441,#105);
#70=LINE('',#442,#106);
#71=LINE('',#445,#107);
#72=LINE('',#446,#108);
#73=LINE('',#449,#109);
#74=LINE('',#450,#110);
#75=LINE('',#452,#111);
#76=LINE('',#457,#112);
#77=LINE('',#459,#113);
#78=LINE('',#461,#114);
#79=LINE('',#462,#115);
#80=LINE('',#465,#116);
#81=LINE('',#467,#117);
#82=LINE('',#468,#118);
#83=LINE('',#471,#119);
#84=LINE('',#472,#120);
#85=LINE('',#475,#121);
#86=LINE('',#476,#122);
#87=LINE('',#478,#123);
#88=VECTOR('',#331,10.);
#89=VECTOR('',#332,10.);
#90=VECTOR('',#333,10.);
#91=VECTOR('',#334,10.);
#92=VECTOR('',#337,10.);
#93=VECTOR('',#338,10.);
#94=VECTOR('',#339,10.);
#95=VECTOR('',#342,10.);
#96=VECTOR('',#343,10.);
#97=VECTOR('',#346,10.);
#98=VECTOR('',#347,10.);
#99=VECTOR('',#350,10.);
#100=VECTOR('',#355,10.);
#101=VECTOR('',#356,10.);
#102=VECTOR('',#357,10.);
#103=VECTOR('',#358,10.);
#104=VECTOR('',#361,10.);
#105=VECTOR('',#362,10.);
#106=VECTOR('',#363,10.);
#107=VECTOR('',#366,10.);
#108=VECTOR('',#367,10.);
#109=VECTOR('',#370,10.);
#110=VECTOR('',#371,10.);
#111=VECTOR('',#374,10.);
#112=VECTOR('',#379,10.);
#113=VECTOR('',#380,10.);
#114=VECTOR('',#381,10.);
#115=VECTOR('',#382,10.);
#116=VECTOR('',#385,10.);
#117=VECTOR('',#386,10.);
#118=VECTOR('',#387,10.);
#119=VECTOR('',#390,10.);
#120=VECTOR('',#391,10.);
#121=VECTOR('',#394,10.);
#122=VECTOR('',#395,10.);
#123=VECTOR('',#398,10.);
#124=VERTEX_POINT('',#403);
#125=VERTEX_POINT('',#404);
#126=VERTEX_POINT('',#406);
#127=VERTEX_POINT('',#408);
#128=VERTEX_POINT('',#412);
#129=VERTEX_POINT('',#414);
#130=VERTEX_POINT('',#418);
#131=VERTEX_POINT('',#422);
#132=VERTEX_POINT('',#429);
#133=VERTEX_POINT('',#430);
#134=VERTEX_POINT('',#432);
#135=VERTEX_POINT('',#434);
#136=VERTEX_POINT('',#438);
#137=VERTEX_POINT('',#440);
#138=VERTEX_POINT('',#444);
#139=VERTEX_POINT('',#448);
#140=VERTEX_POINT('',#455);
#141=VERTEX_POINT('',#456);
#142=VERTEX_POINT('',#458);
#143=VERTEX_POINT('',#460);
#144=VERTEX_POINT('',#464);
#145=VERTEX_POINT('',#466);
#146=VERTEX_POINT('',#470);
#147=VERTEX_POINT('',#474);
#148=EDGE_CURVE('',#124,#125,#52,.T.);
#149=EDGE_CURVE('',#125,#126,#53,.T.);
#150=EDGE_CURVE('',#126,#127,#54,.T.);
#151=EDGE_CURVE('',#127,#124,#55,.T.);
#152=EDGE_CURVE('',#128,#125,#56,.T.);
#153=EDGE_CURVE('',#129,#128,#57,.T.);
#154=EDGE_CURVE('',#126,#129,#58,.T.);
#155=EDGE_CURVE('',#130,#129,#59,.T.);
#156=EDGE_CURVE('',#127,#130,#60,.T.);
#157=EDGE_CURVE('',#131,#130,#61,.T.);
#158=EDGE_CURVE('',#124,#131,#62,.T.);
#159=EDGE_CURVE('',#128,#131,#63,.T.);
#160=EDGE_CURVE('',#132,#133,#64,.T.);
#161=EDGE_CURVE('',#134,#132,#65,.T.);
#162=EDGE_CURVE('',#135,#134,#66,.T.);
#163=EDGE_CURVE('',#133,#135,#67,.T.);
#164=EDGE_CURVE('',#136,#133,#68,.T.);
#165=EDGE_CURVE('',#135,#137,#69,.T.);
#166=EDGE_CURVE('',#137,#136,#70,.T.);
#167=EDGE_CURVE('',#134,#138,#71,.T.);
#168=EDGE_CURVE('',#138,#137,#72,.T.);
#169=EDGE_CURVE('',#132,#139,#73,.T.);
#170=EDGE_CURVE('',#139,#138,#74,.T.);
#171=EDGE_CURVE('',#136,#139,#75,.T.);
#172=EDGE_CURVE('',#140,#141,#76,.T.);
#173=EDGE_CURVE('',#142,#140,#77,.T.);
#174=EDGE_CURVE('',#143,#142,#78,.T.);
#175=EDGE_CURVE('',#141,#143,#79,.T.);
#176=EDGE_CURVE('',#144,#141,#80,.T.);
#177=EDGE_CURVE('',#143,#145,#81,.T.);
#178=EDGE_CURVE('',#145,#144,#82,.T.);
#179=EDGE_CURVE('',#142,#146,#83,.T.);
#180=EDGE_CURVE('',#146,#145,#84,.T.);
#181=EDGE_CURVE('',#140,#147,#85,.T.);
#182=EDGE_CURVE('',#147,#146,#86,.T.);
#183=EDGE_CURVE('',#144,#147,#87,.T.);
#184=ORIENTED_EDGE('',*,*,#148,.T.);
#185=ORIENTED_EDGE('',*,*,#149,.T.);
#186=ORIENTED_EDGE('',*,*,#150,.T.);
#187=ORIENTED_EDGE('',*,*,#151,.T.);
#188=ORIENTED_EDGE('',*,*,#152,.F.);
#189=ORIENTED_EDGE('',*,*,#153,.F.);
#190=ORIENTED_EDGE('',*,*,#154,.F.);
#191=ORIENTED_EDGE('',*,*,#149,.F.);
#192=ORIENTED_EDGE('',*,*,#154,.T.);
#193=ORIENTED_EDGE('',*,*,#155,.F.);
#194=ORIENTED_EDGE('',*,*,#156,.F.);
#195=ORIENTED_EDGE('',*,*,#150,.F.);
#196=ORIENTED_EDGE('',*,*,#156,.T.);
#197=ORIENTED_EDGE('',*,*,#157,.F.);
#198=ORIENTED_EDGE('',*,*,#158,.F.);
#199=ORIENTED_EDGE('',*,*,#151,.F.);
#200=ORIENTED_EDGE('',*,*,#158,.T.);
#201=ORIENTED_EDGE('',*,*,#159,.F.);
#202=ORIENTED_EDGE('',*,*,#152,.T.);
#203=ORIENTED_EDGE('',*,*,#148,.F.);
#204=ORIENTED_EDGE('',*,*,#159,.T.);
#205=ORIENTED_EDGE('',*,*,#157,.T.);
#206=ORIENTED_EDGE('',*,*,#155,.T.);
#207=ORIENTED_EDGE('',*,*,#153,.T.);
#208=ORIENTED_EDGE('',*,*,#160,.F.);
#209=ORIENTED_EDGE('',*,*,#161,.F.);
#210=ORIENTED_EDGE('',*,*,#162,.F.);
#211=ORIENTED_EDGE('',*,*,#163,.F.);
#212=ORIENTED_EDGE('',*,*,#164,.T.);
#213=ORIENTED_EDGE('',*,*,#163,.T.);
#214=ORIENTED_EDGE('',*,*,#165,.T.);
#215=ORIENTED_EDGE('',*,*,#166,.T.);
#216=ORIENTED_EDGE('',*,*,#165,.F.);
#217=ORIENTED_EDGE('',*,*,#162,.T.);
#218=ORIENTED_EDGE('',*,*,#167,.T.);
#219=ORIENTED_EDGE('',*,*,#168,.T.);
#220=ORIENTED_EDGE('',*,*,#167,.F.);
#221=ORIENTED_EDGE('',*,*,#161,.T.);
#222=ORIENTED_EDGE('',*,*,#169,.T.);
#223=ORIENTED_EDGE('',*,*,#170,.T.);
#224=ORIENTED_EDGE('',*,*,#169,.F.);
#225=ORIENTED_EDGE('',*,*,#160,.T.);
#226=ORIENTED_EDGE('',*,*,#164,.F.);
#227=ORIENTED_EDGE('',*,*,#171,.T.);
#228=ORIENTED_EDGE('',*,*,#171,.F.);
#229=ORIENTED_EDGE('',*,*,#166,.F.);
#230=ORIENTED_EDGE('',*,*,#168,.F.);
#231=ORIENTED_EDGE('',*,*,#170,.F.);
#232=ORIENTED_EDGE('',*,*,#172,.F.);
#233=ORIENTED_EDGE('',*,*,#173,.F.);
#234=ORIENTED_EDGE('',*,*,#174,.F.);
#235=ORIENTED_EDGE('',*,*,#175,.F.);
#236=ORIENTED_EDGE('',*,*,#176,.T.);
#237=ORIENTED_EDGE('',*,*,#175,.T.);
#238=ORIENTED_EDGE('',*,*,#177,.T.);
#239=ORIENTED_EDGE('',*,*,#178,.T.);
#240=ORIENTED_EDGE('',*,*,#177,.F.);
#241=ORIENTED_EDGE('',*,*,#174,.T.);
#242=ORIENTED_EDGE('',*,*,#179,.T.);
#243=ORIENTED_EDGE('',*,*,#180,.T.);
#244=ORIENTED_EDGE('',*,*,#179,.F.);
#245=ORIENTED_EDGE('',*,*,#173,.T.);
#246=ORIENTED_EDGE('',*,*,#181,.T.);
#247=ORIENTED_EDGE('',*,*,#182,.T.);
#248=ORIENTED_EDGE('',*,*,#181,.F.);
#249=ORIENTED_EDGE('',*,*,#172,.T.);
#250=ORIENTED_EDGE('',*,*,#176,.F.);
#251=ORIENTED_EDGE('',*,*,#183,.T.);
#252=ORIENTED_EDGE('',*,*,#183,.F.);
#253=ORIENTED_EDGE('',*,*,#178,.F.);
#254=ORIENTED_EDGE('',*,*,#180,.F.);
#255=ORIENTED_EDGE('',*,*,#182,.F.);
#256=PLANE('',#309);
#257=PLANE('',#310);
#258=PLANE('',#311);
#259=PLANE('',#312);
#260=PLANE('',#313);
#261=PLANE('',#314);
#262=PLANE('',#315);
#263=PLANE('',#316);
#264=PLANE('',#317);
#265=PLANE('',#318);
#266=PLANE('',#319);
#267=PLANE('',#320);
#268=PLANE('',#321);
#269=PLANE('',#322);
#270=PLANE('',#323);
#271=PLANE('',#324);
#272=PLANE('',#325);
#273=PLANE('',#326);
#274=ADVANCED_FACE('',(#16),#256,.T.);
#275=ADVANCED_FACE('',(#17),#257,.T.);
#276=ADVANCED_FACE('',(#18),#258,.T.);
#277=ADVANCED_FACE('',(#19),#259,.T.);
#278=ADVANCED_FACE('',(#20),#260,.T.);
#279=ADVANCED_FACE('',(#21),#261,.T.);
#280=ADVANCED_FACE('',(#22),#262,.F.);
#281=ADVANCED_FACE('',(#23),#263,.F.);
#282=ADVANCED_FACE('',(#24),#264,.F.);
#283=ADVANCED_FACE('',(#25),#265,.F.);
#284=ADVANCED_FACE('',(#26),#266,.F.);
#285=ADVANCED_FACE('',(#27),#267,.F.);
#286=ADVANCED_FACE('',(#28),#268,.F.);
#287=ADVANCED_FACE('',(#29),#269,.F.);
#288=ADVANCED_FACE('',(#30),#270,.F.);
#289=ADVANCED_FACE('',(#31),#271,.F.);
#290=ADVANCED_FACE('',(#32),#272,.F.);
#291=ADVANCED_FACE('',(#33),#273,.F.);
#292=CLOSED_SHELL('',(#274,#275,#276,#277,#278,#279));
#293=CLOSED_SHELL('',(#280,#281,#282,#283,#284,#285));
#294=CLOSED_SHELL('',(#286,#287,#288,#289,#290,#291));
#295=BREP_WITH_VOIDS('Body1',#292,(#14,#15));
#296=DERIVED_UNIT_ELEMENT(#298,1.);
#297=DERIVED_UNIT_ELEMENT(#485,-3.);
#298=(
MASS_UNIT()
NAMED_UNIT(*)
SI_UNIT(.KILO.,.GRAM.)
);
#299=DERIVED_UNIT((#296,#297));
#300=MEASURE_REPRESENTATION_ITEM('density measure',
POSITIVE_RATIO_MEASURE(7850.),#299);
#301=PROPERTY_DEFINITION_REPRESENTATION(#306,#303);
#302=PROPERTY_DEFINITION_REPRESENTATION(#307,#304);
#303=REPRESENTATION('material name',(#305),#482);
#304=REPRESENTATION('density',(#300),#482);
#305=DESCRIPTIVE_REPRESENTATION_ITEM('Steel','Steel');
#306=PROPERTY_DEFINITION('material property','material name',#492);
#307=PROPERTY_DEFINITION('material property','density of part',#492);
#308=AXIS2_PLACEMENT_3D('',#401,#327,#328);
#309=AXIS2_PLACEMENT_3D('',#402,#329,#330);
#310=AXIS2_PLACEMENT_3D('',#411,#335,#336);
#311=AXIS2_PLACEMENT_3D('',#417,#340,#341);
#312=AXIS2_PLACEMENT_3D('',#421,#344,#345);
#313=AXIS2_PLACEMENT_3D('',#425,#348,#349);
#314=AXIS2_PLACEMENT_3D('',#427,#351,#352);
#315=AXIS2_PLACEMENT_3D('',#428,#353,#354);
#316=AXIS2_PLACEMENT_3D('',#437,#359,#360);
#317=AXIS2_PLACEMENT_3D('',#443,#364,#365);
#318=AXIS2_PLACEMENT_3D('',#447,#368,#369);
#319=AXIS2_PLACEMENT_3D('',#451,#372,#373);
#320=AXIS2_PLACEMENT_3D('',#453,#375,#376);
#321=AXIS2_PLACEMENT_3D('',#454,#377,#378);
#322=AXIS2_PLACEMENT_3D('',#463,#383,#384);
#323=AXIS2_PLACEMENT_3D('',#469,#388,#389);
#324=AXIS2_PLACEMENT_3D('',#473,#392,#393);
#325=AXIS2_PLACEMENT_3D('',#477,#396,#397);
#326=AXIS2_PLACEMENT_3D('',#479,#399,#400);
#327=DIRECTION('axis',(0.,0.,1.));
#328=DIRECTION('refdir',(1.,0.,0.));
#329=DIRECTION('center_axis',(0.,0.,-1.));
#330=DIRECTION('ref_axis',(-1.,0.,0.));
#331=DIRECTION('',(-1.,0.,0.));
#332=DIRECTION('',(0.,1.,0.));
#333=DIRECTION('',(1.,0.,0.));
#334=DIRECTION('',(0.,-1.,0.));
#335=DIRECTION('center_axis',(-1.,0.,0.));
#336=DIRECTION('ref_axis',(0.,-1.,0.));
#337=DIRECTION('',(0.,0.,-1.));
#338=DIRECTION('',(0.,-1.,0.));
#339=DIRECTION('',(0.,0.,1.));
#340=DIRECTION('center_axis',(0.,1.,0.));
#341=DIRECTION('ref_axis',(-1.,0.,0.));
#342=DIRECTION('',(-1.,0.,0.));
#343=DIRECTION('',(0.,0.,1.));
#344=DIRECTION('center_axis',(1.,0.,0.));
#345=DIRECTION('ref_axis',(0.,1.,0.));
#346=DIRECTION('',(0.,1.,0.));
#347=DIRECTION('',(0.,0.,1.));
#348=DIRECTION('center_axis',(0.,-1.,0.));
#349=DIRECTION('ref_axis',(1.,0.,0.));
#350=DIRECTION('',(1.,0.,0.));
#351=DIRECTION('center_axis',(0.,0.,1.));
#352=DIRECTION('ref_axis',(1.,0.,0.));
#353=DIRECTION('center_axis',(-0.0483514587248095,-0.0959683501464522,-0.994209340234415));
#354=DIRECTION('ref_axis',(-0.998816302323944,0.00993105549594177,0.0476168914216422));
#355=DIRECTION('',(-0.00530383362361388,-0.995334843109044,0.0963349336533147));
#356=DIRECTION('',(0.998816302323944,-0.00993105549594182,-0.0476168914216427));
#357=DIRECTION('',(0.00530383362361388,0.995334843109044,-0.0963349336533147));
#358=DIRECTION('',(-0.998816302323944,0.00993105549594182,0.0476168914216427));
#359=DIRECTION('center_axis',(-0.00530383362361388,-0.995334843109044,0.0963349336533147));
#360=DIRECTION('ref_axis',(0.998816302323944,-0.00993105549594182,-0.0476168914216427));
#361=DIRECTION('',(-0.0483514587248096,-0.0959683501464522,-0.994209340234415));
#362=DIRECTION('',(0.0483514587248096,0.0959683501464522,0.994209340234415));
#363=DIRECTION('',(0.998816302323944,-0.00993105549594182,-0.0476168914216427));
#364=DIRECTION('center_axis',(-0.998816302323944,0.00993105549594177,0.0476168914216422));
#365=DIRECTION('ref_axis',(-0.00530383362361388,-0.995334843109044,0.0963349336533147));
#366=DIRECTION('',(0.0483514587248096,0.0959683501464522,0.994209340234415));
#367=DIRECTION('',(-0.00530383362361388,-0.995334843109044,0.0963349336533147));
#368=DIRECTION('center_axis',(0.00530383362361388,0.995334843109044,-0.0963349336533147));
#369=DIRECTION('ref_axis',(-0.998816302323944,0.00993105549594182,0.0476168914216427));
#370=DIRECTION('',(0.0483514587248096,0.0959683501464522,0.994209340234415));
#371=DIRECTION('',(-0.998816302323944,0.00993105549594182,0.0476168914216427));
#372=DIRECTION('center_axis',(0.998816302323944,-0.00993105549594177,-0.0476168914216422));
#373=DIRECTION('ref_axis',(0.00530383362361388,0.995334843109044,-0.0963349336533147));
#374=DIRECTION('',(0.00530383362361388,0.995334843109044,-0.0963349336533147));
#375=DIRECTION('center_axis',(0.0483514587248095,0.0959683501464522,0.994209340234415));
#376=DIRECTION('ref_axis',(0.998816302323944,-0.00993105549594177,-0.0476168914216422));
#377=DIRECTION('center_axis',(-0.0871557427476577,0.,-0.996194698091746));
#378=DIRECTION('ref_axis',(-0.996194698091746,0.,0.0871557427476577));
#379=DIRECTION('',(0.,-1.,0.));
#380=DIRECTION('',(0.996194698091746,0.,-0.0871557427476582));
#381=DIRECTION('',(0.,1.,0.));
#382=DIRECTION('',(-0.996194698091746,0.,0.0871557427476582));
#383=DIRECTION('center_axis',(0.,-1.,0.));
#384=DIRECTION('ref_axis',(0.996194698091746,0.,-0.0871557427476582));
#385=DIRECTION('',(-0.0871557427476577,0.,-0.996194698091746));
#386=DIRECTION('',(0.0871557427476577,0.,0.996194698091746));
#387=DIRECTION('',(0.996194698091746,0.,-0.0871557427476582));
#388=DIRECTION('center_axis',(-0.996194698091746,0.,0.0871557427476577));
#389=DIRECTION('ref_axis',(0.,-1.,0.));
#390=DIRECTION('',(0.0871557427476577,0.,0.996194698091746));
#391=DIRECTION('',(0.,-1.,0.));
#392=DIRECTION('center_axis',(0.,1.,0.));
#393=DIRECTION('ref_axis',(-0.996194698091746,0.,0.0871557427476582));
#394=DIRECTION('',(0.0871557427476577,0.,0.996194698091746));
#395=DIRECTION('',(-0.996194698091746,0.,0.0871557427476582));
#396=DIRECTION('center_axis',(0.996194698091746,0.,-0.0871557427476577));
#397=DIRECTION('ref_axis',(0.,1.,0.));
#398=DIRECTION('',(0.,1.,0.));
#399=DIRECTION('center_axis',(0.0871557427476577,0.,0.996194698091746));
#400=DIRECTION('ref_axis',(0.996194698091746,0.,-0.0871557427476577));
#401=CARTESIAN_POINT('',(0.,0.,0.));
#402=CARTESIAN_POINT('Origin',(0.,0.,-2.5));
#403=CARTESIAN_POINT('',(10.,-10.,-2.5));
#404=CARTESIAN_POINT('',(-10.,-10.,-2.5));
#405=CARTESIAN_POINT('',(10.,-10.,-2.5));
#406=CARTESIAN_POINT('',(-10.,10.,-2.5));
#407=CARTESIAN_POINT('',(-10.,-10.,-2.5));
#408=CARTESIAN_POINT('',(10.,10.,-2.5));
#409=CARTESIAN_POINT('',(-10.,10.,-2.5));
#410=CARTESIAN_POINT('',(10.,10.,-2.5));
#411=CARTESIAN_POINT('Origin',(-10.,10.,0.));
#412=CARTESIAN_POINT('',(-10.,-10.,2.5));
#413=CARTESIAN_POINT('',(-10.,-10.,0.));
#414=CARTESIAN_POINT('',(-10.,10.,2.5));
#415=CARTESIAN_POINT('',(-10.,-10.,2.5));
#416=CARTESIAN_POINT('',(-10.,10.,0.));
#417=CARTESIAN_POINT('Origin',(10.,10.,0.));
#418=CARTESIAN_POINT('',(10.,10.,2.5));
#419=CARTESIAN_POINT('',(-10.,10.,2.5));
#420=CARTESIAN_POINT('',(10.,10.,0.));
#421=CARTESIAN_POINT('Origin',(10.,-10.,0.));
#422=CARTESIAN_POINT('',(10.,-10.,2.5));
#423=CARTESIAN_POINT('',(10.,10.,2.5));
#424=CARTESIAN_POINT('',(10.,-10.,0.));
#425=CARTESIAN_POINT('Origin',(-10.,-10.,0.));
#426=CARTESIAN_POINT('',(10.,-10.,2.5));
#427=CARTESIAN_POINT('Origin',(0.,0.,2.5));
#428=CARTESIAN_POINT('Origin',(-0.471032660823413,5.79062558308025,-0.277888367977445));
#429=CARTESIAN_POINT('',(4.53896042632186,8.72697487868269,-0.804977633899842));
#430=CARTESIAN_POINT('',(4.50713742410598,2.75496573103856,-0.22696802336694));
#431=CARTESIAN_POINT('',(4.53896042632186,8.72697487868269,-0.804977633899842));
#432=CARTESIAN_POINT('',(-5.4492027457528,8.82628543512195,-0.328808712587946));
#433=CARTESIAN_POINT('',(-5.4492027457528,8.82628543512195,-0.328808712587946));
#434=CARTESIAN_POINT('',(-5.48102574796869,2.85427628747782,0.249200897944957));
#435=CARTESIAN_POINT('',(-5.48102574796869,2.85427628747782,0.249200897944957));
#436=CARTESIAN_POINT('',(4.50713742410598,2.75496573103856,-0.226968023366939));
#437=CARTESIAN_POINT('Origin',(-5.47619060209621,2.86387312249246,0.348621831968398));
#438=CARTESIAN_POINT('',(4.51680771585094,2.77415940106785,-0.0281261553200568));
#439=CARTESIAN_POINT('',(4.51197256997846,2.7645625660532,-0.127547089343499));
#440=CARTESIAN_POINT('',(-5.47135545622372,2.87346995750711,0.44804276599184));
#441=CARTESIAN_POINT('',(-5.47619060209621,2.86387312249246,0.348621831968398));
#442=CARTESIAN_POINT('',(4.51680771585094,2.77415940106785,-0.0281261553200562));
#443=CARTESIAN_POINT('Origin',(-5.44436759988032,8.8358822701366,-0.229387778564504));
#444=CARTESIAN_POINT('',(-5.43953245400784,8.84547910515124,-0.129966844541063));
#445=CARTESIAN_POINT('',(-5.44436759988032,8.8358822701366,-0.229387778564504));
#446=CARTESIAN_POINT('',(-5.47135545622373,2.87346995750711,0.44804276599184));
#447=CARTESIAN_POINT('Origin',(4.54379557219434,8.73657171369734,-0.705556699876401));
#448=CARTESIAN_POINT('',(4.54863071806683,8.74616854871198,-0.606135765852959));
#449=CARTESIAN_POINT('',(4.54379557219434,8.73657171369734,-0.705556699876401));
#450=CARTESIAN_POINT('',(-5.43953245400784,8.84547910515124,-0.129966844541063));
#451=CARTESIAN_POINT('Origin',(4.51197256997846,2.7645625660532,-0.127547089343499));
#452=CARTESIAN_POINT('',(4.54863071806683,8.74616854871198,-0.606135765852959));
#453=CARTESIAN_POINT('Origin',(-0.461362369078451,5.80981925310954,-0.0790464999305623));
#454=CARTESIAN_POINT('Origin',(3.12096755167855,-3.,1.25168210098229));
#455=CARTESIAN_POINT('',(8.10194111635956,4.47034842476768E-8,0.815903380750394));
#456=CARTESIAN_POINT('',(8.10194111635956,-6.00000004470348,0.815903380750394));
#457=CARTESIAN_POINT('',(8.10194111635956,4.47034842476768E-8,0.815903380750395));
#458=CARTESIAN_POINT('',(-1.86000601300247,4.47034842476768E-8,1.68746082121419));
#459=CARTESIAN_POINT('',(-1.86000601300247,4.47034842476768E-8,1.68746082121419));
#460=CARTESIAN_POINT('',(-1.86000601300247,-6.00000004470348,1.68746082121419));
#461=CARTESIAN_POINT('',(-1.86000601300247,-6.00000004470348,1.68746082121419));
#462=CARTESIAN_POINT('',(8.10194111635956,-6.00000004470348,0.815903380750395));
#463=CARTESIAN_POINT('Origin',(-1.8512904387277,-6.00000004470348,1.78708029102337));
#464=CARTESIAN_POINT('',(8.1193722649091,-6.00000004470348,1.01514232036874));
#465=CARTESIAN_POINT('',(8.11065669063433,-6.00000004470348,0.915522850559569));
#466=CARTESIAN_POINT('',(-1.84257486445294,-6.00000004470348,1.88669976083254));
#467=CARTESIAN_POINT('',(-1.8512904387277,-6.00000004470348,1.78708029102337));
#468=CARTESIAN_POINT('',(8.1193722649091,-6.00000004470348,1.01514232036874));
#469=CARTESIAN_POINT('Origin',(-1.8512904387277,4.47034842476768E-8,1.78708029102337));
#470=CARTESIAN_POINT('',(-1.84257486445294,4.47034842476768E-8,1.88669976083254));
#471=CARTESIAN_POINT('',(-1.8512904387277,4.47034842476768E-8,1.78708029102337));
#472=CARTESIAN_POINT('',(-1.84257486445294,-6.00000004470348,1.88669976083254));
#473=CARTESIAN_POINT('Origin',(8.11065669063433,4.47034842476768E-8,0.915522850559569));
#474=CARTESIAN_POINT('',(8.1193722649091,4.47034842476768E-8,1.01514232036874));
#475=CARTESIAN_POINT('',(8.11065669063433,4.47034842476768E-8,0.915522850559569));
#476=CARTESIAN_POINT('',(-1.84257486445294,4.47034842476768E-8,1.88669976083254));
#477=CARTESIAN_POINT('Origin',(8.11065669063433,-6.00000004470348,0.915522850559569));
#478=CARTESIAN_POINT('',(8.1193722649091,4.47034842476768E-8,1.01514232036874));
#479=CARTESIAN_POINT('Origin',(3.13839870022808,-3.,1.45092104060064));
#480=UNCERTAINTY_MEASURE_WITH_UNIT(LENGTH_MEASURE(0.01),#484,
'DISTANCE_ACCURACY_VALUE',
'Maximum model space distance between geometric entities at asserted c
onnectivities');
#481=UNCERTAINTY_MEASURE_WITH_UNIT(LENGTH_MEASURE(0.01),#484,
'DISTANCE_ACCURACY_VALUE',
'Maximum model space distance between geometric entities at asserted c
onnectivities');
#482=(
GEOMETRIC_REPRESENTATION_CONTEXT(3)
GLOBAL_UNCERTAINTY_ASSIGNED_CONTEXT((#480))
GLOBAL_UNIT_ASSIGNED_CONTEXT((#484,#486,#487))
REPRESENTATION_CONTEXT('','3D')
);
#483=(
GEOMETRIC_REPRESENTATION_CONTEXT(3)
GLOBAL_UNCERTAINTY_ASSIGNED_CONTEXT((#481))
GLOBAL_UNIT_ASSIGNED_CONTEXT((#484,#486,#487))
REPRESENTATION_CONTEXT('','3D')
);
#484=(
LENGTH_UNIT()
NAMED_UNIT(*)
SI_UNIT(.MILLI.,.METRE.)
);
#485=(
LENGTH_UNIT()
NAMED_UNIT(*)
SI_UNIT($,.METRE.)
);
#486=(
NAMED_UNIT(*)
PLANE_ANGLE_UNIT()
SI_UNIT($,.RADIAN.)
);
#487=(
NAMED_UNIT(*)
SI_UNIT($,.STERADIAN.)
SOLID_ANGLE_UNIT()
);
#488=SHAPE_DEFINITION_REPRESENTATION(#489,#490);
#489=PRODUCT_DEFINITION_SHAPE('',$,#492);
#490=SHAPE_REPRESENTATION('',(#308),#482);
#491=PRODUCT_DEFINITION_CONTEXT('part definition',#496,'design');
#492=PRODUCT_DEFINITION('Inclinedplanes','Inclinedplanes',#493,#491);
#493=PRODUCT_DEFINITION_FORMATION('',$,#498);
#494=PRODUCT_RELATED_PRODUCT_CATEGORY('Inclinedplanes','Inclinedplanes',
(#498));
#495=APPLICATION_PROTOCOL_DEFINITION('international standard',
'automotive_design',2009,#496);
#496=APPLICATION_CONTEXT(
'Core Data for Automotive Mechanical Design Process');
#497=PRODUCT_CONTEXT('part definition',#496,'mechanical');
#498=PRODUCT('Inclinedplanes','Inclinedplanes',$,(#497));
#499=PRESENTATION_STYLE_ASSIGNMENT((#500));
#500=SURFACE_STYLE_USAGE(.BOTH.,#501);
#501=SURFACE_SIDE_STYLE('',(#502));
#502=SURFACE_STYLE_FILL_AREA(#503);
#503=FILL_AREA_STYLE('Steel - Satin',(#504));
#504=FILL_AREA_STYLE_COLOUR('Steel - Satin',#505);
#505=COLOUR_RGB('Steel - Satin',0.627450980392157,0.627450980392157,0.627450980392157);
ENDSEC;
END-ISO-10303-21;
