ISO-10303-21;
HEADER;
/* Generated by software containing ST-Developer
 * from STEP Tools, Inc. (www.steptools.com) 
 */

FILE_DESCRIPTION(
/* description */ (''),
/* implementation_level */ '2;1');

FILE_NAME(
/* name */ 'PrismVoids_CV12.step',
/* time_stamp */ '2026-03-17T10:46:23-04:00',
/* author */ (''),
/* organization */ (''),
/* preprocessor_version */ 'ST-DEVELOPER v20.1',
/* originating_system */ 'Autodesk Translation Framework v14.24.0.0',
/* authorisation */ '');

FILE_SCHEMA (('AUTOMOTIVE_DESIGN { 1 0 10303 214 3 1 1 }'));
ENDSEC;

DATA;
#10=MECHANICAL_DESIGN_GEOMETRIC_PRESENTATION_REPRESENTATION('',(#13),#1185);
#11=SHAPE_REPRESENTATION_RELATIONSHIP('SRR','None',#1192,#12);
#12=ADVANCED_BREP_SHAPE_REPRESENTATION('',(#691),#1184);
#13=STYLED_ITEM('',(#1201),#691);
#14=ORIENTED_CLOSED_SHELL('',*,#671,.F.);
#15=ORIENTED_CLOSED_SHELL('',*,#672,.F.);
#16=ORIENTED_CLOSED_SHELL('',*,#673,.F.);
#17=ORIENTED_CLOSED_SHELL('',*,#674,.F.);
#18=ORIENTED_CLOSED_SHELL('',*,#675,.F.);
#19=ORIENTED_CLOSED_SHELL('',*,#676,.F.);
#20=ORIENTED_CLOSED_SHELL('',*,#677,.F.);
#21=ORIENTED_CLOSED_SHELL('',*,#678,.F.);
#22=ORIENTED_CLOSED_SHELL('',*,#679,.F.);
#23=ORIENTED_CLOSED_SHELL('',*,#680,.F.);
#24=ORIENTED_CLOSED_SHELL('',*,#681,.F.);
#25=ORIENTED_CLOSED_SHELL('',*,#682,.F.);
#26=ORIENTED_CLOSED_SHELL('',*,#683,.F.);
#27=ORIENTED_CLOSED_SHELL('',*,#684,.F.);
#28=ORIENTED_CLOSED_SHELL('',*,#685,.F.);
#29=ORIENTED_CLOSED_SHELL('',*,#686,.F.);
#30=ORIENTED_CLOSED_SHELL('',*,#687,.F.);
#31=ORIENTED_CLOSED_SHELL('',*,#688,.F.);
#32=ORIENTED_CLOSED_SHELL('',*,#689,.F.);
#33=ORIENTED_CLOSED_SHELL('',*,#690,.F.);
#34=CIRCLE('',#712,1.00000001490116);
#35=CIRCLE('',#715,1.00000001490116);
#36=CIRCLE('',#716,1.00000001490116);
#37=CIRCLE('',#719,1.00000001490116);
#38=CIRCLE('',#722,1.00000001490116);
#39=CIRCLE('',#725,1.00000001490116);
#40=CIRCLE('',#728,1.00000001490116);
#41=CIRCLE('',#731,1.00000001490116);
#42=CIRCLE('',#734,1.00000001490116);
#43=CIRCLE('',#737,1.00000001490116);
#44=CIRCLE('',#740,1.00000001490116);
#45=CIRCLE('',#743,1.00000001490116);
#46=CIRCLE('',#746,1.00000001490116);
#47=CIRCLE('',#747,1.00000001490116);
#48=CIRCLE('',#750,1.00000001490116);
#49=CIRCLE('',#753,1.00000001490116);
#50=CIRCLE('',#756,1.00000001490116);
#51=CIRCLE('',#759,1.00000001490116);
#52=CIRCLE('',#762,1.00000001490116);
#53=CIRCLE('',#763,1.00000001490116);
#54=CIRCLE('',#766,1.00000001490116);
#55=CIRCLE('',#769,1.00000001490116);
#56=CIRCLE('',#770,1.00000001490116);
#57=CIRCLE('',#773,1.00000001490116);
#58=CIRCLE('',#774,1.00000001490116);
#59=CIRCLE('',#777,1.00000001490116);
#60=CONICAL_SURFACE('',#711,1.00000001490116,0.785398163397448);
#61=CONICAL_SURFACE('',#713,0.500000007450581,0.785398163397448);
#62=CONICAL_SURFACE('',#714,1.00000001490116,0.785398163397448);
#63=CONICAL_SURFACE('',#717,0.500000007450581,0.785398163397448);
#64=CONICAL_SURFACE('',#718,1.00000001490116,0.785398163397448);
#65=CONICAL_SURFACE('',#720,0.500000007450581,0.785398163397448);
#66=CONICAL_SURFACE('',#721,1.00000001490116,0.785398163397448);
#67=CONICAL_SURFACE('',#723,0.500000007450581,0.785398163397448);
#68=CONICAL_SURFACE('',#724,0.500000007450581,0.785398163397448);
#69=CONICAL_SURFACE('',#726,1.00000001490116,0.785398163397448);
#70=CONICAL_SURFACE('',#727,1.00000001490116,0.785398163397448);
#71=CONICAL_SURFACE('',#729,0.500000007450581,0.785398163397448);
#72=CONICAL_SURFACE('',#730,1.00000001490116,0.785398163397448);
#73=CONICAL_SURFACE('',#732,0.500000007450581,0.785398163397448);
#74=CONICAL_SURFACE('',#733,1.00000001490116,0.785398163397448);
#75=CONICAL_SURFACE('',#735,0.500000007450581,0.785398163397448);
#76=CONICAL_SURFACE('',#736,1.00000001490116,0.785398163397448);
#77=CONICAL_SURFACE('',#738,0.500000007450581,0.785398163397448);
#78=CONICAL_SURFACE('',#739,1.00000001490116,0.785398163397448);
#79=CONICAL_SURFACE('',#741,0.500000007450581,0.785398163397448);
#80=CONICAL_SURFACE('',#742,1.00000001490116,0.785398163397448);
#81=CONICAL_SURFACE('',#744,0.500000007450581,0.785398163397448);
#82=CONICAL_SURFACE('',#745,0.500000007450581,0.785398163397448);
#83=CONICAL_SURFACE('',#748,1.00000001490116,0.785398163397448);
#84=CONICAL_SURFACE('',#749,1.00000001490116,0.785398163397448);
#85=CONICAL_SURFACE('',#751,0.500000007450581,0.785398163397448);
#86=CONICAL_SURFACE('',#752,1.00000001490116,0.785398163397448);
#87=CONICAL_SURFACE('',#754,0.500000007450581,0.785398163397448);
#88=CONICAL_SURFACE('',#755,1.00000001490116,0.785398163397448);
#89=CONICAL_SURFACE('',#757,0.500000007450581,0.785398163397448);
#90=CONICAL_SURFACE('',#758,1.00000001490116,0.785398163397448);
#91=CONICAL_SURFACE('',#760,0.500000007450581,0.785398163397448);
#92=CONICAL_SURFACE('',#761,0.500000007450581,0.785398163397448);
#93=CONICAL_SURFACE('',#764,1.00000001490116,0.785398163397448);
#94=CONICAL_SURFACE('',#765,1.00000001490116,0.785398163397448);
#95=CONICAL_SURFACE('',#767,0.500000007450581,0.785398163397448);
#96=CONICAL_SURFACE('',#768,0.500000007450581,0.785398163397448);
#97=CONICAL_SURFACE('',#771,1.00000001490116,0.785398163397448);
#98=CONICAL_SURFACE('',#772,1.00000001490116,0.785398163397448);
#99=CONICAL_SURFACE('',#775,0.500000007450581,0.785398163397448);
#100=CONICAL_SURFACE('',#776,1.00000001490116,0.785398163397448);
#101=CONICAL_SURFACE('',#778,0.500000007450581,0.785398163397448);
#102=FACE_OUTER_BOUND('',#150,.T.);
#103=FACE_OUTER_BOUND('',#151,.T.);
#104=FACE_OUTER_BOUND('',#152,.T.);
#105=FACE_OUTER_BOUND('',#153,.T.);
#106=FACE_OUTER_BOUND('',#154,.T.);
#107=FACE_OUTER_BOUND('',#155,.T.);
#108=FACE_OUTER_BOUND('',#156,.T.);
#109=FACE_OUTER_BOUND('',#157,.T.);
#110=FACE_OUTER_BOUND('',#158,.T.);
#111=FACE_OUTER_BOUND('',#159,.T.);
#112=FACE_OUTER_BOUND('',#160,.T.);
#113=FACE_OUTER_BOUND('',#161,.T.);
#114=FACE_OUTER_BOUND('',#162,.T.);
#115=FACE_OUTER_BOUND('',#163,.T.);
#116=FACE_OUTER_BOUND('',#164,.T.);
#117=FACE_OUTER_BOUND('',#165,.T.);
#118=FACE_OUTER_BOUND('',#166,.T.);
#119=FACE_OUTER_BOUND('',#167,.T.);
#120=FACE_OUTER_BOUND('',#168,.T.);
#121=FACE_OUTER_BOUND('',#169,.T.);
#122=FACE_OUTER_BOUND('',#170,.T.);
#123=FACE_OUTER_BOUND('',#171,.T.);
#124=FACE_OUTER_BOUND('',#172,.T.);
#125=FACE_OUTER_BOUND('',#173,.T.);
#126=FACE_OUTER_BOUND('',#174,.T.);
#127=FACE_OUTER_BOUND('',#175,.T.);
#128=FACE_OUTER_BOUND('',#176,.T.);
#129=FACE_OUTER_BOUND('',#177,.T.);
#130=FACE_OUTER_BOUND('',#178,.T.);
#131=FACE_OUTER_BOUND('',#179,.T.);
#132=FACE_OUTER_BOUND('',#180,.T.);
#133=FACE_OUTER_BOUND('',#181,.T.);
#134=FACE_OUTER_BOUND('',#182,.T.);
#135=FACE_OUTER_BOUND('',#183,.T.);
#136=FACE_OUTER_BOUND('',#184,.T.);
#137=FACE_OUTER_BOUND('',#185,.T.);
#138=FACE_OUTER_BOUND('',#186,.T.);
#139=FACE_OUTER_BOUND('',#187,.T.);
#140=FACE_OUTER_BOUND('',#188,.T.);
#141=FACE_OUTER_BOUND('',#189,.T.);
#142=FACE_OUTER_BOUND('',#190,.T.);
#143=FACE_OUTER_BOUND('',#191,.T.);
#144=FACE_OUTER_BOUND('',#192,.T.);
#145=FACE_OUTER_BOUND('',#193,.T.);
#146=FACE_OUTER_BOUND('',#194,.T.);
#147=FACE_OUTER_BOUND('',#195,.T.);
#148=FACE_OUTER_BOUND('',#196,.T.);
#149=FACE_OUTER_BOUND('',#197,.T.);
#150=EDGE_LOOP('',(#456,#457,#458,#459));
#151=EDGE_LOOP('',(#460,#461,#462,#463));
#152=EDGE_LOOP('',(#464,#465,#466,#467));
#153=EDGE_LOOP('',(#468,#469,#470,#471));
#154=EDGE_LOOP('',(#472,#473,#474,#475));
#155=EDGE_LOOP('',(#476,#477,#478,#479));
#156=EDGE_LOOP('',(#480,#481,#482));
#157=EDGE_LOOP('',(#483,#484,#485));
#158=EDGE_LOOP('',(#486,#487,#488,#489));
#159=EDGE_LOOP('',(#490,#491,#492,#493));
#160=EDGE_LOOP('',(#494,#495,#496));
#161=EDGE_LOOP('',(#497,#498,#499));
#162=EDGE_LOOP('',(#500,#501,#502));
#163=EDGE_LOOP('',(#503,#504,#505));
#164=EDGE_LOOP('',(#506,#507,#508));
#165=EDGE_LOOP('',(#509,#510,#511));
#166=EDGE_LOOP('',(#512,#513,#514));
#167=EDGE_LOOP('',(#515,#516,#517));
#168=EDGE_LOOP('',(#518,#519,#520));
#169=EDGE_LOOP('',(#521,#522,#523));
#170=EDGE_LOOP('',(#524,#525,#526));
#171=EDGE_LOOP('',(#527,#528,#529));
#172=EDGE_LOOP('',(#530,#531,#532));
#173=EDGE_LOOP('',(#533,#534,#535));
#174=EDGE_LOOP('',(#536,#537,#538));
#175=EDGE_LOOP('',(#539,#540,#541));
#176=EDGE_LOOP('',(#542,#543,#544));
#177=EDGE_LOOP('',(#545,#546,#547));
#178=EDGE_LOOP('',(#548,#549,#550,#551));
#179=EDGE_LOOP('',(#552,#553,#554,#555));
#180=EDGE_LOOP('',(#556,#557,#558));
#181=EDGE_LOOP('',(#559,#560,#561));
#182=EDGE_LOOP('',(#562,#563,#564));
#183=EDGE_LOOP('',(#565,#566,#567));
#184=EDGE_LOOP('',(#568,#569,#570));
#185=EDGE_LOOP('',(#571,#572,#573));
#186=EDGE_LOOP('',(#574,#575,#576));
#187=EDGE_LOOP('',(#577,#578,#579));
#188=EDGE_LOOP('',(#580,#581,#582,#583));
#189=EDGE_LOOP('',(#584,#585,#586,#587));
#190=EDGE_LOOP('',(#588,#589,#590));
#191=EDGE_LOOP('',(#591,#592,#593));
#192=EDGE_LOOP('',(#594,#595,#596,#597));
#193=EDGE_LOOP('',(#598,#599,#600,#601));
#194=EDGE_LOOP('',(#602,#603,#604,#605));
#195=EDGE_LOOP('',(#606,#607,#608,#609));
#196=EDGE_LOOP('',(#610,#611,#612));
#197=EDGE_LOOP('',(#613,#614,#615));
#198=LINE('',#987,#252);
#199=LINE('',#989,#253);
#200=LINE('',#991,#254);
#201=LINE('',#992,#255);
#202=LINE('',#995,#256);
#203=LINE('',#997,#257);
#204=LINE('',#998,#258);
#205=LINE('',#1001,#259);
#206=LINE('',#1002,#260);
#207=LINE('',#1005,#261);
#208=LINE('',#1006,#262);
#209=LINE('',#1008,#263);
#210=LINE('',#1013,#264);
#211=LINE('',#1014,#265);
#212=LINE('',#1018,#266);
#213=LINE('',#1024,#267);
#214=LINE('',#1030,#268);
#215=LINE('',#1033,#269);
#216=LINE('',#1038,#270);
#217=LINE('',#1041,#271);
#218=LINE('',#1045,#272);
#219=LINE('',#1049,#273);
#220=LINE('',#1054,#274);
#221=LINE('',#1056,#275);
#222=LINE('',#1061,#276);
#223=LINE('',#1064,#277);
#224=LINE('',#1069,#278);
#225=LINE('',#1072,#279);
#226=LINE('',#1077,#280);
#227=LINE('',#1080,#281);
#228=LINE('',#1085,#282);
#229=LINE('',#1088,#283);
#230=LINE('',#1093,#284);
#231=LINE('',#1096,#285);
#232=LINE('',#1100,#286);
#233=LINE('',#1106,#287);
#234=LINE('',#1110,#288);
#235=LINE('',#1113,#289);
#236=LINE('',#1118,#290);
#237=LINE('',#1121,#291);
#238=LINE('',#1126,#292);
#239=LINE('',#1129,#293);
#240=LINE('',#1134,#294);
#241=LINE('',#1137,#295);
#242=LINE('',#1141,#296);
#243=LINE('',#1147,#297);
#244=LINE('',#1151,#298);
#245=LINE('',#1154,#299);
#246=LINE('',#1158,#300);
#247=LINE('',#1164,#301);
#248=LINE('',#1169,#302);
#249=LINE('',#1173,#303);
#250=LINE('',#1178,#304);
#251=LINE('',#1181,#305);
#252=VECTOR('',#783,10.);
#253=VECTOR('',#784,10.);
#254=VECTOR('',#785,10.);
#255=VECTOR('',#786,10.);
#256=VECTOR('',#789,10.);
#257=VECTOR('',#790,10.);
#258=VECTOR('',#791,10.);
#259=VECTOR('',#794,10.);
#260=VECTOR('',#795,10.);
#261=VECTOR('',#798,10.);
#262=VECTOR('',#799,10.);
#263=VECTOR('',#802,10.);
#264=VECTOR('',#807,10.);
#265=VECTOR('',#808,10.);
#266=VECTOR('',#813,0.500000007450581);
#267=VECTOR('',#820,1.00000001490116);
#268=VECTOR('',#827,1.00000001490116);
#269=VECTOR('',#830,0.500000007450581);
#270=VECTOR('',#835,1.00000001490116);
#271=VECTOR('',#838,0.500000007450581);
#272=VECTOR('',#841,0.500000007450581);
#273=VECTOR('',#846,1.00000001490116);
#274=VECTOR('',#851,1.00000001490116);
#275=VECTOR('',#854,0.500000007450581);
#276=VECTOR('',#859,1.00000001490116);
#277=VECTOR('',#862,0.500000007450581);
#278=VECTOR('',#867,1.00000001490116);
#279=VECTOR('',#870,0.500000007450581);
#280=VECTOR('',#875,1.00000001490116);
#281=VECTOR('',#878,0.500000007450581);
#282=VECTOR('',#883,1.00000001490116);
#283=VECTOR('',#886,0.500000007450581);
#284=VECTOR('',#891,1.00000001490116);
#285=VECTOR('',#894,0.500000007450581);
#286=VECTOR('',#897,0.500000007450581);
#287=VECTOR('',#904,1.00000001490116);
#288=VECTOR('',#909,1.00000001490116);
#289=VECTOR('',#912,0.500000007450581);
#290=VECTOR('',#917,1.00000001490116);
#291=VECTOR('',#920,0.500000007450581);
#292=VECTOR('',#925,1.00000001490116);
#293=VECTOR('',#928,0.50000000745058);
#294=VECTOR('',#933,1.00000001490116);
#295=VECTOR('',#936,0.500000007450581);
#296=VECTOR('',#939,0.500000007450581);
#297=VECTOR('',#946,1.00000001490116);
#298=VECTOR('',#951,1.00000001490116);
#299=VECTOR('',#954,0.500000007450581);
#300=VECTOR('',#957,0.500000007450581);
#301=VECTOR('',#964,1.00000001490116);
#302=VECTOR('',#969,1.00000001490116);
#303=VECTOR('',#974,0.500000007450581);
#304=VECTOR('',#979,1.00000001490116);
#305=VECTOR('',#982,0.500000007450581);
#306=VERTEX_POINT('',#985);
#307=VERTEX_POINT('',#986);
#308=VERTEX_POINT('',#988);
#309=VERTEX_POINT('',#990);
#310=VERTEX_POINT('',#994);
#311=VERTEX_POINT('',#996);
#312=VERTEX_POINT('',#1000);
#313=VERTEX_POINT('',#1004);
#314=VERTEX_POINT('',#1011);
#315=VERTEX_POINT('',#1012);
#316=VERTEX_POINT('',#1017);
#317=VERTEX_POINT('',#1020);
#318=VERTEX_POINT('',#1023);
#319=VERTEX_POINT('',#1027);
#320=VERTEX_POINT('',#1029);
#321=VERTEX_POINT('',#1032);
#322=VERTEX_POINT('',#1035);
#323=VERTEX_POINT('',#1037);
#324=VERTEX_POINT('',#1040);
#325=VERTEX_POINT('',#1043);
#326=VERTEX_POINT('',#1044);
#327=VERTEX_POINT('',#1048);
#328=VERTEX_POINT('',#1051);
#329=VERTEX_POINT('',#1053);
#330=VERTEX_POINT('',#1058);
#331=VERTEX_POINT('',#1060);
#332=VERTEX_POINT('',#1063);
#333=VERTEX_POINT('',#1066);
#334=VERTEX_POINT('',#1068);
#335=VERTEX_POINT('',#1071);
#336=VERTEX_POINT('',#1074);
#337=VERTEX_POINT('',#1076);
#338=VERTEX_POINT('',#1079);
#339=VERTEX_POINT('',#1082);
#340=VERTEX_POINT('',#1084);
#341=VERTEX_POINT('',#1087);
#342=VERTEX_POINT('',#1090);
#343=VERTEX_POINT('',#1092);
#344=VERTEX_POINT('',#1095);
#345=VERTEX_POINT('',#1098);
#346=VERTEX_POINT('',#1099);
#347=VERTEX_POINT('',#1101);
#348=VERTEX_POINT('',#1105);
#349=VERTEX_POINT('',#1109);
#350=VERTEX_POINT('',#1112);
#351=VERTEX_POINT('',#1115);
#352=VERTEX_POINT('',#1117);
#353=VERTEX_POINT('',#1120);
#354=VERTEX_POINT('',#1123);
#355=VERTEX_POINT('',#1125);
#356=VERTEX_POINT('',#1128);
#357=VERTEX_POINT('',#1131);
#358=VERTEX_POINT('',#1133);
#359=VERTEX_POINT('',#1136);
#360=VERTEX_POINT('',#1139);
#361=VERTEX_POINT('',#1140);
#362=VERTEX_POINT('',#1142);
#363=VERTEX_POINT('',#1146);
#364=VERTEX_POINT('',#1150);
#365=VERTEX_POINT('',#1153);
#366=VERTEX_POINT('',#1156);
#367=VERTEX_POINT('',#1157);
#368=VERTEX_POINT('',#1159);
#369=VERTEX_POINT('',#1163);
#370=VERTEX_POINT('',#1166);
#371=VERTEX_POINT('',#1168);
#372=VERTEX_POINT('',#1172);
#373=VERTEX_POINT('',#1175);
#374=VERTEX_POINT('',#1177);
#375=VERTEX_POINT('',#1180);
#376=EDGE_CURVE('',#306,#307,#198,.T.);
#377=EDGE_CURVE('',#307,#308,#199,.T.);
#378=EDGE_CURVE('',#308,#309,#200,.T.);
#379=EDGE_CURVE('',#309,#306,#201,.T.);
#380=EDGE_CURVE('',#310,#307,#202,.T.);
#381=EDGE_CURVE('',#311,#310,#203,.T.);
#382=EDGE_CURVE('',#308,#311,#204,.T.);
#383=EDGE_CURVE('',#312,#311,#205,.T.);
#384=EDGE_CURVE('',#309,#312,#206,.T.);
#385=EDGE_CURVE('',#313,#312,#207,.T.);
#386=EDGE_CURVE('',#306,#313,#208,.T.);
#387=EDGE_CURVE('',#310,#313,#209,.T.);
#388=EDGE_CURVE('',#314,#315,#210,.T.);
#389=EDGE_CURVE('',#314,#315,#211,.T.);
#390=EDGE_CURVE('',#315,#315,#34,.T.);
#391=EDGE_CURVE('',#316,#315,#212,.T.);
#392=EDGE_CURVE('',#314,#317,#35,.T.);
#393=EDGE_CURVE('',#317,#314,#36,.T.);
#394=EDGE_CURVE('',#317,#318,#213,.T.);
#395=EDGE_CURVE('',#319,#319,#37,.T.);
#396=EDGE_CURVE('',#319,#320,#214,.T.);
#397=EDGE_CURVE('',#321,#319,#215,.T.);
#398=EDGE_CURVE('',#322,#322,#38,.T.);
#399=EDGE_CURVE('',#322,#323,#216,.T.);
#400=EDGE_CURVE('',#324,#322,#217,.T.);
#401=EDGE_CURVE('',#325,#326,#218,.T.);
#402=EDGE_CURVE('',#326,#326,#39,.T.);
#403=EDGE_CURVE('',#326,#327,#219,.T.);
#404=EDGE_CURVE('',#328,#328,#40,.T.);
#405=EDGE_CURVE('',#328,#329,#220,.T.);
#406=EDGE_CURVE('',#327,#328,#221,.T.);
#407=EDGE_CURVE('',#330,#330,#41,.T.);
#408=EDGE_CURVE('',#330,#331,#222,.T.);
#409=EDGE_CURVE('',#332,#330,#223,.T.);
#410=EDGE_CURVE('',#333,#333,#42,.T.);
#411=EDGE_CURVE('',#333,#334,#224,.T.);
#412=EDGE_CURVE('',#335,#333,#225,.T.);
#413=EDGE_CURVE('',#336,#336,#43,.T.);
#414=EDGE_CURVE('',#336,#337,#226,.T.);
#415=EDGE_CURVE('',#338,#336,#227,.T.);
#416=EDGE_CURVE('',#339,#339,#44,.T.);
#417=EDGE_CURVE('',#339,#340,#228,.T.);
#418=EDGE_CURVE('',#341,#339,#229,.T.);
#419=EDGE_CURVE('',#342,#342,#45,.T.);
#420=EDGE_CURVE('',#342,#343,#230,.T.);
#421=EDGE_CURVE('',#344,#342,#231,.T.);
#422=EDGE_CURVE('',#345,#346,#232,.T.);
#423=EDGE_CURVE('',#346,#347,#46,.T.);
#424=EDGE_CURVE('',#347,#346,#47,.T.);
#425=EDGE_CURVE('',#346,#348,#233,.T.);
#426=EDGE_CURVE('',#347,#347,#48,.T.);
#427=EDGE_CURVE('',#347,#349,#234,.T.);
#428=EDGE_CURVE('',#350,#347,#235,.T.);
#429=EDGE_CURVE('',#351,#351,#49,.T.);
#430=EDGE_CURVE('',#351,#352,#236,.T.);
#431=EDGE_CURVE('',#353,#351,#237,.T.);
#432=EDGE_CURVE('',#354,#354,#50,.T.);
#433=EDGE_CURVE('',#354,#355,#238,.T.);
#434=EDGE_CURVE('',#356,#354,#239,.T.);
#435=EDGE_CURVE('',#357,#357,#51,.T.);
#436=EDGE_CURVE('',#357,#358,#240,.T.);
#437=EDGE_CURVE('',#359,#357,#241,.T.);
#438=EDGE_CURVE('',#360,#361,#242,.T.);
#439=EDGE_CURVE('',#361,#362,#52,.T.);
#440=EDGE_CURVE('',#362,#361,#53,.T.);
#441=EDGE_CURVE('',#361,#363,#243,.T.);
#442=EDGE_CURVE('',#362,#362,#54,.T.);
#443=EDGE_CURVE('',#362,#364,#244,.T.);
#444=EDGE_CURVE('',#365,#362,#245,.T.);
#445=EDGE_CURVE('',#366,#367,#246,.T.);
#446=EDGE_CURVE('',#367,#368,#55,.T.);
#447=EDGE_CURVE('',#368,#367,#56,.T.);
#448=EDGE_CURVE('',#367,#369,#247,.T.);
#449=EDGE_CURVE('',#370,#368,#57,.T.);
#450=EDGE_CURVE('',#370,#371,#248,.T.);
#451=EDGE_CURVE('',#368,#370,#58,.T.);
#452=EDGE_CURVE('',#372,#370,#249,.T.);
#453=EDGE_CURVE('',#373,#373,#59,.T.);
#454=EDGE_CURVE('',#373,#374,#250,.T.);
#455=EDGE_CURVE('',#375,#373,#251,.T.);
#456=ORIENTED_EDGE('',*,*,#376,.T.);
#457=ORIENTED_EDGE('',*,*,#377,.T.);
#458=ORIENTED_EDGE('',*,*,#378,.T.);
#459=ORIENTED_EDGE('',*,*,#379,.T.);
#460=ORIENTED_EDGE('',*,*,#380,.F.);
#461=ORIENTED_EDGE('',*,*,#381,.F.);
#462=ORIENTED_EDGE('',*,*,#382,.F.);
#463=ORIENTED_EDGE('',*,*,#377,.F.);
#464=ORIENTED_EDGE('',*,*,#382,.T.);
#465=ORIENTED_EDGE('',*,*,#383,.F.);
#466=ORIENTED_EDGE('',*,*,#384,.F.);
#467=ORIENTED_EDGE('',*,*,#378,.F.);
#468=ORIENTED_EDGE('',*,*,#384,.T.);
#469=ORIENTED_EDGE('',*,*,#385,.F.);
#470=ORIENTED_EDGE('',*,*,#386,.F.);
#471=ORIENTED_EDGE('',*,*,#379,.F.);
#472=ORIENTED_EDGE('',*,*,#386,.T.);
#473=ORIENTED_EDGE('',*,*,#387,.F.);
#474=ORIENTED_EDGE('',*,*,#380,.T.);
#475=ORIENTED_EDGE('',*,*,#376,.F.);
#476=ORIENTED_EDGE('',*,*,#387,.T.);
#477=ORIENTED_EDGE('',*,*,#385,.T.);
#478=ORIENTED_EDGE('',*,*,#383,.T.);
#479=ORIENTED_EDGE('',*,*,#381,.T.);
#480=ORIENTED_EDGE('',*,*,#388,.F.);
#481=ORIENTED_EDGE('',*,*,#389,.T.);
#482=ORIENTED_EDGE('',*,*,#390,.F.);
#483=ORIENTED_EDGE('',*,*,#391,.T.);
#484=ORIENTED_EDGE('',*,*,#390,.T.);
#485=ORIENTED_EDGE('',*,*,#391,.F.);
#486=ORIENTED_EDGE('',*,*,#392,.F.);
#487=ORIENTED_EDGE('',*,*,#393,.F.);
#488=ORIENTED_EDGE('',*,*,#394,.T.);
#489=ORIENTED_EDGE('',*,*,#394,.F.);
#490=ORIENTED_EDGE('',*,*,#392,.T.);
#491=ORIENTED_EDGE('',*,*,#393,.T.);
#492=ORIENTED_EDGE('',*,*,#388,.T.);
#493=ORIENTED_EDGE('',*,*,#389,.F.);
#494=ORIENTED_EDGE('',*,*,#395,.F.);
#495=ORIENTED_EDGE('',*,*,#396,.T.);
#496=ORIENTED_EDGE('',*,*,#396,.F.);
#497=ORIENTED_EDGE('',*,*,#397,.T.);
#498=ORIENTED_EDGE('',*,*,#395,.T.);
#499=ORIENTED_EDGE('',*,*,#397,.F.);
#500=ORIENTED_EDGE('',*,*,#398,.F.);
#501=ORIENTED_EDGE('',*,*,#399,.T.);
#502=ORIENTED_EDGE('',*,*,#399,.F.);
#503=ORIENTED_EDGE('',*,*,#400,.T.);
#504=ORIENTED_EDGE('',*,*,#398,.T.);
#505=ORIENTED_EDGE('',*,*,#400,.F.);
#506=ORIENTED_EDGE('',*,*,#401,.T.);
#507=ORIENTED_EDGE('',*,*,#402,.T.);
#508=ORIENTED_EDGE('',*,*,#401,.F.);
#509=ORIENTED_EDGE('',*,*,#402,.F.);
#510=ORIENTED_EDGE('',*,*,#403,.T.);
#511=ORIENTED_EDGE('',*,*,#403,.F.);
#512=ORIENTED_EDGE('',*,*,#404,.F.);
#513=ORIENTED_EDGE('',*,*,#405,.T.);
#514=ORIENTED_EDGE('',*,*,#405,.F.);
#515=ORIENTED_EDGE('',*,*,#406,.T.);
#516=ORIENTED_EDGE('',*,*,#404,.T.);
#517=ORIENTED_EDGE('',*,*,#406,.F.);
#518=ORIENTED_EDGE('',*,*,#407,.F.);
#519=ORIENTED_EDGE('',*,*,#408,.T.);
#520=ORIENTED_EDGE('',*,*,#408,.F.);
#521=ORIENTED_EDGE('',*,*,#409,.T.);
#522=ORIENTED_EDGE('',*,*,#407,.T.);
#523=ORIENTED_EDGE('',*,*,#409,.F.);
#524=ORIENTED_EDGE('',*,*,#410,.F.);
#525=ORIENTED_EDGE('',*,*,#411,.T.);
#526=ORIENTED_EDGE('',*,*,#411,.F.);
#527=ORIENTED_EDGE('',*,*,#412,.T.);
#528=ORIENTED_EDGE('',*,*,#410,.T.);
#529=ORIENTED_EDGE('',*,*,#412,.F.);
#530=ORIENTED_EDGE('',*,*,#413,.F.);
#531=ORIENTED_EDGE('',*,*,#414,.T.);
#532=ORIENTED_EDGE('',*,*,#414,.F.);
#533=ORIENTED_EDGE('',*,*,#415,.T.);
#534=ORIENTED_EDGE('',*,*,#413,.T.);
#535=ORIENTED_EDGE('',*,*,#415,.F.);
#536=ORIENTED_EDGE('',*,*,#416,.F.);
#537=ORIENTED_EDGE('',*,*,#417,.T.);
#538=ORIENTED_EDGE('',*,*,#417,.F.);
#539=ORIENTED_EDGE('',*,*,#418,.T.);
#540=ORIENTED_EDGE('',*,*,#416,.T.);
#541=ORIENTED_EDGE('',*,*,#418,.F.);
#542=ORIENTED_EDGE('',*,*,#419,.F.);
#543=ORIENTED_EDGE('',*,*,#420,.T.);
#544=ORIENTED_EDGE('',*,*,#420,.F.);
#545=ORIENTED_EDGE('',*,*,#421,.T.);
#546=ORIENTED_EDGE('',*,*,#419,.T.);
#547=ORIENTED_EDGE('',*,*,#421,.F.);
#548=ORIENTED_EDGE('',*,*,#422,.T.);
#549=ORIENTED_EDGE('',*,*,#423,.T.);
#550=ORIENTED_EDGE('',*,*,#424,.T.);
#551=ORIENTED_EDGE('',*,*,#422,.F.);
#552=ORIENTED_EDGE('',*,*,#424,.F.);
#553=ORIENTED_EDGE('',*,*,#423,.F.);
#554=ORIENTED_EDGE('',*,*,#425,.T.);
#555=ORIENTED_EDGE('',*,*,#425,.F.);
#556=ORIENTED_EDGE('',*,*,#426,.F.);
#557=ORIENTED_EDGE('',*,*,#427,.T.);
#558=ORIENTED_EDGE('',*,*,#427,.F.);
#559=ORIENTED_EDGE('',*,*,#428,.T.);
#560=ORIENTED_EDGE('',*,*,#426,.T.);
#561=ORIENTED_EDGE('',*,*,#428,.F.);
#562=ORIENTED_EDGE('',*,*,#429,.F.);
#563=ORIENTED_EDGE('',*,*,#430,.T.);
#564=ORIENTED_EDGE('',*,*,#430,.F.);
#565=ORIENTED_EDGE('',*,*,#431,.T.);
#566=ORIENTED_EDGE('',*,*,#429,.T.);
#567=ORIENTED_EDGE('',*,*,#431,.F.);
#568=ORIENTED_EDGE('',*,*,#432,.F.);
#569=ORIENTED_EDGE('',*,*,#433,.T.);
#570=ORIENTED_EDGE('',*,*,#433,.F.);
#571=ORIENTED_EDGE('',*,*,#434,.T.);
#572=ORIENTED_EDGE('',*,*,#432,.T.);
#573=ORIENTED_EDGE('',*,*,#434,.F.);
#574=ORIENTED_EDGE('',*,*,#435,.F.);
#575=ORIENTED_EDGE('',*,*,#436,.T.);
#576=ORIENTED_EDGE('',*,*,#436,.F.);
#577=ORIENTED_EDGE('',*,*,#437,.T.);
#578=ORIENTED_EDGE('',*,*,#435,.T.);
#579=ORIENTED_EDGE('',*,*,#437,.F.);
#580=ORIENTED_EDGE('',*,*,#438,.T.);
#581=ORIENTED_EDGE('',*,*,#439,.T.);
#582=ORIENTED_EDGE('',*,*,#440,.T.);
#583=ORIENTED_EDGE('',*,*,#438,.F.);
#584=ORIENTED_EDGE('',*,*,#440,.F.);
#585=ORIENTED_EDGE('',*,*,#439,.F.);
#586=ORIENTED_EDGE('',*,*,#441,.T.);
#587=ORIENTED_EDGE('',*,*,#441,.F.);
#588=ORIENTED_EDGE('',*,*,#442,.F.);
#589=ORIENTED_EDGE('',*,*,#443,.T.);
#590=ORIENTED_EDGE('',*,*,#443,.F.);
#591=ORIENTED_EDGE('',*,*,#444,.T.);
#592=ORIENTED_EDGE('',*,*,#442,.T.);
#593=ORIENTED_EDGE('',*,*,#444,.F.);
#594=ORIENTED_EDGE('',*,*,#445,.T.);
#595=ORIENTED_EDGE('',*,*,#446,.T.);
#596=ORIENTED_EDGE('',*,*,#447,.T.);
#597=ORIENTED_EDGE('',*,*,#445,.F.);
#598=ORIENTED_EDGE('',*,*,#447,.F.);
#599=ORIENTED_EDGE('',*,*,#446,.F.);
#600=ORIENTED_EDGE('',*,*,#448,.T.);
#601=ORIENTED_EDGE('',*,*,#448,.F.);
#602=ORIENTED_EDGE('',*,*,#449,.F.);
#603=ORIENTED_EDGE('',*,*,#450,.T.);
#604=ORIENTED_EDGE('',*,*,#450,.F.);
#605=ORIENTED_EDGE('',*,*,#451,.F.);
#606=ORIENTED_EDGE('',*,*,#452,.T.);
#607=ORIENTED_EDGE('',*,*,#449,.T.);
#608=ORIENTED_EDGE('',*,*,#451,.T.);
#609=ORIENTED_EDGE('',*,*,#452,.F.);
#610=ORIENTED_EDGE('',*,*,#453,.F.);
#611=ORIENTED_EDGE('',*,*,#454,.T.);
#612=ORIENTED_EDGE('',*,*,#454,.F.);
#613=ORIENTED_EDGE('',*,*,#455,.T.);
#614=ORIENTED_EDGE('',*,*,#453,.T.);
#615=ORIENTED_EDGE('',*,*,#455,.F.);
#616=PLANE('',#705);
#617=PLANE('',#706);
#618=PLANE('',#707);
#619=PLANE('',#708);
#620=PLANE('',#709);
#621=PLANE('',#710);
#622=ADVANCED_FACE('',(#102),#616,.T.);
#623=ADVANCED_FACE('',(#103),#617,.T.);
#624=ADVANCED_FACE('',(#104),#618,.T.);
#625=ADVANCED_FACE('',(#105),#619,.T.);
#626=ADVANCED_FACE('',(#106),#620,.T.);
#627=ADVANCED_FACE('',(#107),#621,.T.);
#628=ADVANCED_FACE('',(#108),#60,.F.);
#629=ADVANCED_FACE('',(#109),#61,.F.);
#630=ADVANCED_FACE('',(#110),#62,.F.);
#631=ADVANCED_FACE('',(#111),#63,.F.);
#632=ADVANCED_FACE('',(#112),#64,.F.);
#633=ADVANCED_FACE('',(#113),#65,.F.);
#634=ADVANCED_FACE('',(#114),#66,.F.);
#635=ADVANCED_FACE('',(#115),#67,.F.);
#636=ADVANCED_FACE('',(#116),#68,.F.);
#637=ADVANCED_FACE('',(#117),#69,.F.);
#638=ADVANCED_FACE('',(#118),#70,.F.);
#639=ADVANCED_FACE('',(#119),#71,.F.);
#640=ADVANCED_FACE('',(#120),#72,.F.);
#641=ADVANCED_FACE('',(#121),#73,.F.);
#642=ADVANCED_FACE('',(#122),#74,.F.);
#643=ADVANCED_FACE('',(#123),#75,.F.);
#644=ADVANCED_FACE('',(#124),#76,.F.);
#645=ADVANCED_FACE('',(#125),#77,.F.);
#646=ADVANCED_FACE('',(#126),#78,.F.);
#647=ADVANCED_FACE('',(#127),#79,.F.);
#648=ADVANCED_FACE('',(#128),#80,.F.);
#649=ADVANCED_FACE('',(#129),#81,.F.);
#650=ADVANCED_FACE('',(#130),#82,.F.);
#651=ADVANCED_FACE('',(#131),#83,.F.);
#652=ADVANCED_FACE('',(#132),#84,.F.);
#653=ADVANCED_FACE('',(#133),#85,.F.);
#654=ADVANCED_FACE('',(#134),#86,.F.);
#655=ADVANCED_FACE('',(#135),#87,.F.);
#656=ADVANCED_FACE('',(#136),#88,.F.);
#657=ADVANCED_FACE('',(#137),#89,.F.);
#658=ADVANCED_FACE('',(#138),#90,.F.);
#659=ADVANCED_FACE('',(#139),#91,.F.);
#660=ADVANCED_FACE('',(#140),#92,.F.);
#661=ADVANCED_FACE('',(#141),#93,.F.);
#662=ADVANCED_FACE('',(#142),#94,.F.);
#663=ADVANCED_FACE('',(#143),#95,.F.);
#664=ADVANCED_FACE('',(#144),#96,.F.);
#665=ADVANCED_FACE('',(#145),#97,.F.);
#666=ADVANCED_FACE('',(#146),#98,.F.);
#667=ADVANCED_FACE('',(#147),#99,.F.);
#668=ADVANCED_FACE('',(#148),#100,.F.);
#669=ADVANCED_FACE('',(#149),#101,.F.);
#670=CLOSED_SHELL('',(#622,#623,#624,#625,#626,#627));
#671=CLOSED_SHELL('',(#628,#629,#630,#631));
#672=CLOSED_SHELL('',(#632,#633));
#673=CLOSED_SHELL('',(#634,#635));
#674=CLOSED_SHELL('',(#636,#637));
#675=CLOSED_SHELL('',(#638,#639));
#676=CLOSED_SHELL('',(#640,#641));
#677=CLOSED_SHELL('',(#642,#643));
#678=CLOSED_SHELL('',(#644,#645));
#679=CLOSED_SHELL('',(#646,#647));
#680=CLOSED_SHELL('',(#648,#649));
#681=CLOSED_SHELL('',(#650,#651));
#682=CLOSED_SHELL('',(#652,#653));
#683=CLOSED_SHELL('',(#654,#655));
#684=CLOSED_SHELL('',(#656,#657));
#685=CLOSED_SHELL('',(#658,#659));
#686=CLOSED_SHELL('',(#660,#661));
#687=CLOSED_SHELL('',(#662,#663));
#688=CLOSED_SHELL('',(#664,#665));
#689=CLOSED_SHELL('',(#666,#667));
#690=CLOSED_SHELL('',(#668,#669));
#691=BREP_WITH_VOIDS('Body1',#670,(#14,#15,#16,#17,#18,#19,#20,#21,#22,
#23,#24,#25,#26,#27,#28,#29,#30,#31,#32,#33));
#692=DERIVED_UNIT_ELEMENT(#694,1.);
#693=DERIVED_UNIT_ELEMENT(#1187,-3.);
#694=(
MASS_UNIT()
NAMED_UNIT(*)
SI_UNIT(.KILO.,.GRAM.)
);
#695=DERIVED_UNIT((#692,#693));
#696=MEASURE_REPRESENTATION_ITEM('density measure',
POSITIVE_RATIO_MEASURE(7850.),#695);
#697=PROPERTY_DEFINITION_REPRESENTATION(#702,#699);
#698=PROPERTY_DEFINITION_REPRESENTATION(#703,#700);
#699=REPRESENTATION('material name',(#701),#1184);
#700=REPRESENTATION('density',(#696),#1184);
#701=DESCRIPTIVE_REPRESENTATION_ITEM('Steel','Steel');
#702=PROPERTY_DEFINITION('material property','material name',#1194);
#703=PROPERTY_DEFINITION('material property','density of part',#1194);
#704=AXIS2_PLACEMENT_3D('',#983,#779,#780);
#705=AXIS2_PLACEMENT_3D('',#984,#781,#782);
#706=AXIS2_PLACEMENT_3D('',#993,#787,#788);
#707=AXIS2_PLACEMENT_3D('',#999,#792,#793);
#708=AXIS2_PLACEMENT_3D('',#1003,#796,#797);
#709=AXIS2_PLACEMENT_3D('',#1007,#800,#801);
#710=AXIS2_PLACEMENT_3D('',#1009,#803,#804);
#711=AXIS2_PLACEMENT_3D('',#1010,#805,#806);
#712=AXIS2_PLACEMENT_3D('',#1015,#809,#810);
#713=AXIS2_PLACEMENT_3D('',#1016,#811,#812);
#714=AXIS2_PLACEMENT_3D('',#1019,#814,#815);
#715=AXIS2_PLACEMENT_3D('',#1021,#816,#817);
#716=AXIS2_PLACEMENT_3D('',#1022,#818,#819);
#717=AXIS2_PLACEMENT_3D('',#1025,#821,#822);
#718=AXIS2_PLACEMENT_3D('',#1026,#823,#824);
#719=AXIS2_PLACEMENT_3D('',#1028,#825,#826);
#720=AXIS2_PLACEMENT_3D('',#1031,#828,#829);
#721=AXIS2_PLACEMENT_3D('',#1034,#831,#832);
#722=AXIS2_PLACEMENT_3D('',#1036,#833,#834);
#723=AXIS2_PLACEMENT_3D('',#1039,#836,#837);
#724=AXIS2_PLACEMENT_3D('',#1042,#839,#840);
#725=AXIS2_PLACEMENT_3D('',#1046,#842,#843);
#726=AXIS2_PLACEMENT_3D('',#1047,#844,#845);
#727=AXIS2_PLACEMENT_3D('',#1050,#847,#848);
#728=AXIS2_PLACEMENT_3D('',#1052,#849,#850);
#729=AXIS2_PLACEMENT_3D('',#1055,#852,#853);
#730=AXIS2_PLACEMENT_3D('',#1057,#855,#856);
#731=AXIS2_PLACEMENT_3D('',#1059,#857,#858);
#732=AXIS2_PLACEMENT_3D('',#1062,#860,#861);
#733=AXIS2_PLACEMENT_3D('',#1065,#863,#864);
#734=AXIS2_PLACEMENT_3D('',#1067,#865,#866);
#735=AXIS2_PLACEMENT_3D('',#1070,#868,#869);
#736=AXIS2_PLACEMENT_3D('',#1073,#871,#872);
#737=AXIS2_PLACEMENT_3D('',#1075,#873,#874);
#738=AXIS2_PLACEMENT_3D('',#1078,#876,#877);
#739=AXIS2_PLACEMENT_3D('',#1081,#879,#880);
#740=AXIS2_PLACEMENT_3D('',#1083,#881,#882);
#741=AXIS2_PLACEMENT_3D('',#1086,#884,#885);
#742=AXIS2_PLACEMENT_3D('',#1089,#887,#888);
#743=AXIS2_PLACEMENT_3D('',#1091,#889,#890);
#744=AXIS2_PLACEMENT_3D('',#1094,#892,#893);
#745=AXIS2_PLACEMENT_3D('',#1097,#895,#896);
#746=AXIS2_PLACEMENT_3D('',#1102,#898,#899);
#747=AXIS2_PLACEMENT_3D('',#1103,#900,#901);
#748=AXIS2_PLACEMENT_3D('',#1104,#902,#903);
#749=AXIS2_PLACEMENT_3D('',#1107,#905,#906);
#750=AXIS2_PLACEMENT_3D('',#1108,#907,#908);
#751=AXIS2_PLACEMENT_3D('',#1111,#910,#911);
#752=AXIS2_PLACEMENT_3D('',#1114,#913,#914);
#753=AXIS2_PLACEMENT_3D('',#1116,#915,#916);
#754=AXIS2_PLACEMENT_3D('',#1119,#918,#919);
#755=AXIS2_PLACEMENT_3D('',#1122,#921,#922);
#756=AXIS2_PLACEMENT_3D('',#1124,#923,#924);
#757=AXIS2_PLACEMENT_3D('',#1127,#926,#927);
#758=AXIS2_PLACEMENT_3D('',#1130,#929,#930);
#759=AXIS2_PLACEMENT_3D('',#1132,#931,#932);
#760=AXIS2_PLACEMENT_3D('',#1135,#934,#935);
#761=AXIS2_PLACEMENT_3D('',#1138,#937,#938);
#762=AXIS2_PLACEMENT_3D('',#1143,#940,#941);
#763=AXIS2_PLACEMENT_3D('',#1144,#942,#943);
#764=AXIS2_PLACEMENT_3D('',#1145,#944,#945);
#765=AXIS2_PLACEMENT_3D('',#1148,#947,#948);
#766=AXIS2_PLACEMENT_3D('',#1149,#949,#950);
#767=AXIS2_PLACEMENT_3D('',#1152,#952,#953);
#768=AXIS2_PLACEMENT_3D('',#1155,#955,#956);
#769=AXIS2_PLACEMENT_3D('',#1160,#958,#959);
#770=AXIS2_PLACEMENT_3D('',#1161,#960,#961);
#771=AXIS2_PLACEMENT_3D('',#1162,#962,#963);
#772=AXIS2_PLACEMENT_3D('',#1165,#965,#966);
#773=AXIS2_PLACEMENT_3D('',#1167,#967,#968);
#774=AXIS2_PLACEMENT_3D('',#1170,#970,#971);
#775=AXIS2_PLACEMENT_3D('',#1171,#972,#973);
#776=AXIS2_PLACEMENT_3D('',#1174,#975,#976);
#777=AXIS2_PLACEMENT_3D('',#1176,#977,#978);
#778=AXIS2_PLACEMENT_3D('',#1179,#980,#981);
#779=DIRECTION('axis',(0.,0.,1.));
#780=DIRECTION('refdir',(1.,0.,0.));
#781=DIRECTION('center_axis',(0.,0.,-1.));
#782=DIRECTION('ref_axis',(-1.,0.,0.));
#783=DIRECTION('',(-1.,0.,0.));
#784=DIRECTION('',(0.,1.,0.));
#785=DIRECTION('',(1.,0.,0.));
#786=DIRECTION('',(0.,-1.,0.));
#787=DIRECTION('center_axis',(-1.,0.,0.));
#788=DIRECTION('ref_axis',(0.,-1.,0.));
#789=DIRECTION('',(0.,0.,-1.));
#790=DIRECTION('',(0.,-1.,0.));
#791=DIRECTION('',(0.,0.,1.));
#792=DIRECTION('center_axis',(0.,1.,0.));
#793=DIRECTION('ref_axis',(-1.,0.,0.));
#794=DIRECTION('',(-1.,0.,0.));
#795=DIRECTION('',(0.,0.,1.));
#796=DIRECTION('center_axis',(1.,0.,0.));
#797=DIRECTION('ref_axis',(0.,1.,0.));
#798=DIRECTION('',(0.,1.,0.));
#799=DIRECTION('',(0.,0.,1.));
#800=DIRECTION('center_axis',(0.,-1.,0.));
#801=DIRECTION('ref_axis',(1.,0.,0.));
#802=DIRECTION('',(1.,0.,0.));
#803=DIRECTION('center_axis',(0.,0.,1.));
#804=DIRECTION('ref_axis',(1.,0.,0.));
#805=DIRECTION('center_axis',(0.,1.,0.));
#806=DIRECTION('ref_axis',(1.,0.,0.));
#807=DIRECTION('',(-0.707106770649836,0.707106791723259,0.));
#808=DIRECTION('',(-0.707106770649836,0.707106791723259,0.));
#809=DIRECTION('center_axis',(0.,-1.,0.));
#810=DIRECTION('ref_axis',(1.,0.,0.));
#811=DIRECTION('center_axis',(0.,-1.,0.));
#812=DIRECTION('ref_axis',(1.,0.,0.));
#813=DIRECTION('',(-0.707106781186548,-0.707106781186547,-8.65956056235493E-17));
#814=DIRECTION('center_axis',(0.,1.,0.));
#815=DIRECTION('ref_axis',(1.,0.,0.));
#816=DIRECTION('center_axis',(0.,-1.,0.));
#817=DIRECTION('ref_axis',(1.,0.,0.));
#818=DIRECTION('center_axis',(0.,-1.,0.));
#819=DIRECTION('ref_axis',(1.,0.,0.));
#820=DIRECTION('',(0.707106781186548,-0.707106781186547,8.65956056235493E-17));
#821=DIRECTION('center_axis',(0.,-1.,0.));
#822=DIRECTION('ref_axis',(-1.,0.,1.22464679914735E-16));
#823=DIRECTION('center_axis',(0.5,0.866025403784439,0.));
#824=DIRECTION('ref_axis',(0.866025403784439,-0.5,0.));
#825=DIRECTION('center_axis',(-0.5,-0.866025403784439,0.));
#826=DIRECTION('ref_axis',(0.866025403784439,-0.5,0.));
#827=DIRECTION('',(0.258819045102521,-0.965925826289068,8.65956056235493E-17));
#828=DIRECTION('center_axis',(-0.5,-0.866025403784439,0.));
#829=DIRECTION('ref_axis',(0.866025403784439,-0.5,0.));
#830=DIRECTION('',(-0.965925826289068,-0.258819045102521,-8.65956056235493E-17));
#831=DIRECTION('center_axis',(0.,1.,0.));
#832=DIRECTION('ref_axis',(1.,0.,0.));
#833=DIRECTION('center_axis',(0.,-1.,0.));
#834=DIRECTION('ref_axis',(1.,0.,0.));
#835=DIRECTION('',(0.707106781186548,-0.707106781186547,8.65956056235493E-17));
#836=DIRECTION('center_axis',(0.,-1.,0.));
#837=DIRECTION('ref_axis',(1.,0.,0.));
#838=DIRECTION('',(-0.707106781186548,-0.707106781186547,-8.65956056235493E-17));
#839=DIRECTION('center_axis',(0.,-1.,0.));
#840=DIRECTION('ref_axis',(1.,0.,0.));
#841=DIRECTION('',(-0.707106781186548,-0.707106781186547,-8.65956056235493E-17));
#842=DIRECTION('center_axis',(0.,-1.,0.));
#843=DIRECTION('ref_axis',(1.,0.,0.));
#844=DIRECTION('center_axis',(0.,1.,0.));
#845=DIRECTION('ref_axis',(1.,0.,0.));
#846=DIRECTION('',(0.707106781186548,-0.707106781186547,8.65956056235493E-17));
#847=DIRECTION('center_axis',(0.,1.,0.));
#848=DIRECTION('ref_axis',(1.,0.,0.));
#849=DIRECTION('center_axis',(0.,-1.,0.));
#850=DIRECTION('ref_axis',(1.,0.,0.));
#851=DIRECTION('',(0.707106781186548,-0.707106781186547,8.65956056235493E-17));
#852=DIRECTION('center_axis',(0.,-1.,0.));
#853=DIRECTION('ref_axis',(1.,0.,0.));
#854=DIRECTION('',(-0.707106781186548,-0.707106781186547,-8.65956056235493E-17));
#855=DIRECTION('center_axis',(0.,1.,0.));
#856=DIRECTION('ref_axis',(1.,0.,0.));
#857=DIRECTION('center_axis',(0.,-1.,0.));
#858=DIRECTION('ref_axis',(1.,0.,0.));
#859=DIRECTION('',(0.707106781186548,-0.707106781186547,8.65956056235493E-17));
#860=DIRECTION('center_axis',(0.,-1.,0.));
#861=DIRECTION('ref_axis',(1.,0.,0.));
#862=DIRECTION('',(-0.707106781186548,-0.707106781186547,-8.65956056235493E-17));
#863=DIRECTION('center_axis',(0.642787609686539,0.766044443118978,0.));
#864=DIRECTION('ref_axis',(0.766044443118978,-0.642787609686539,0.));
#865=DIRECTION('center_axis',(-0.642787609686539,-0.766044443118978,0.));
#866=DIRECTION('ref_axis',(0.766044443118978,-0.642787609686539,0.));
#867=DIRECTION('',(0.0871557427476582,-0.996194698091746,8.65956056235493E-17));
#868=DIRECTION('center_axis',(-0.642787609686539,-0.766044443118978,0.));
#869=DIRECTION('ref_axis',(0.766044443118978,-0.642787609686539,0.));
#870=DIRECTION('',(-0.996194698091745,-0.0871557427476581,-8.65956056235493E-17));
#871=DIRECTION('center_axis',(0.,1.,0.));
#872=DIRECTION('ref_axis',(1.,0.,0.));
#873=DIRECTION('center_axis',(0.,-1.,0.));
#874=DIRECTION('ref_axis',(1.,0.,0.));
#875=DIRECTION('',(0.707106781186548,-0.707106781186547,8.65956056235493E-17));
#876=DIRECTION('center_axis',(0.,-1.,0.));
#877=DIRECTION('ref_axis',(1.,0.,0.));
#878=DIRECTION('',(-0.707106781186548,-0.707106781186547,-8.65956056235493E-17));
#879=DIRECTION('center_axis',(0.,1.,0.));
#880=DIRECTION('ref_axis',(1.,0.,0.));
#881=DIRECTION('center_axis',(0.,-1.,0.));
#882=DIRECTION('ref_axis',(1.,0.,0.));
#883=DIRECTION('',(0.707106781186548,-0.707106781186547,8.65956056235493E-17));
#884=DIRECTION('center_axis',(0.,-1.,0.));
#885=DIRECTION('ref_axis',(1.,0.,0.));
#886=DIRECTION('',(-0.707106781186548,-0.707106781186547,-8.65956056235493E-17));
#887=DIRECTION('center_axis',(0.,1.,0.));
#888=DIRECTION('ref_axis',(1.,0.,0.));
#889=DIRECTION('center_axis',(0.,-1.,0.));
#890=DIRECTION('ref_axis',(1.,0.,0.));
#891=DIRECTION('',(0.707106781186548,-0.707106781186547,8.65956056235493E-17));
#892=DIRECTION('center_axis',(0.,-1.,0.));
#893=DIRECTION('ref_axis',(1.,0.,0.));
#894=DIRECTION('',(-0.707106781186548,-0.707106781186547,-8.65956056235493E-17));
#895=DIRECTION('center_axis',(0.,-1.,0.));
#896=DIRECTION('ref_axis',(1.,0.,0.));
#897=DIRECTION('',(-0.707106781186548,-0.707106781186547,-8.65956056235493E-17));
#898=DIRECTION('center_axis',(0.,-1.,0.));
#899=DIRECTION('ref_axis',(1.,0.,0.));
#900=DIRECTION('center_axis',(0.,-1.,0.));
#901=DIRECTION('ref_axis',(1.,0.,0.));
#902=DIRECTION('center_axis',(0.,1.,0.));
#903=DIRECTION('ref_axis',(1.,0.,0.));
#904=DIRECTION('',(0.707106781186548,-0.707106781186547,8.65956056235493E-17));
#905=DIRECTION('center_axis',(0.,1.,0.));
#906=DIRECTION('ref_axis',(1.,0.,0.));
#907=DIRECTION('center_axis',(0.,-1.,0.));
#908=DIRECTION('ref_axis',(1.,0.,0.));
#909=DIRECTION('',(0.707106781186548,-0.707106781186547,8.65956056235493E-17));
#910=DIRECTION('center_axis',(0.,-1.,0.));
#911=DIRECTION('ref_axis',(1.,0.,0.));
#912=DIRECTION('',(-0.707106781186548,-0.707106781186547,-8.65956056235493E-17));
#913=DIRECTION('center_axis',(0.,1.,0.));
#914=DIRECTION('ref_axis',(1.,0.,0.));
#915=DIRECTION('center_axis',(0.,-1.,0.));
#916=DIRECTION('ref_axis',(1.,0.,0.));
#917=DIRECTION('',(0.707106781186548,-0.707106781186547,8.65956056235493E-17));
#918=DIRECTION('center_axis',(0.,-1.,0.));
#919=DIRECTION('ref_axis',(1.,0.,0.));
#920=DIRECTION('',(-0.707106781186548,-0.707106781186547,-8.65956056235493E-17));
#921=DIRECTION('center_axis',(-0.17364817766693,0.984807753012208,0.));
#922=DIRECTION('ref_axis',(0.984807753012208,0.17364817766693,0.));
#923=DIRECTION('center_axis',(0.17364817766693,-0.984807753012208,0.));
#924=DIRECTION('ref_axis',(0.984807753012208,0.17364817766693,0.));
#925=DIRECTION('',(0.819152044288992,-0.573576436351046,8.65956056235493E-17));
#926=DIRECTION('center_axis',(0.17364817766693,-0.984807753012208,0.));
#927=DIRECTION('ref_axis',(0.984807753012208,0.17364817766693,0.));
#928=DIRECTION('',(-0.573576436351046,-0.819152044288992,-8.65956056235493E-17));
#929=DIRECTION('center_axis',(-0.422618261740699,0.90630778703665,0.));
#930=DIRECTION('ref_axis',(0.90630778703665,0.422618261740699,0.));
#931=DIRECTION('center_axis',(0.422618261740699,-0.90630778703665,0.));
#932=DIRECTION('ref_axis',(0.90630778703665,0.422618261740699,0.));
#933=DIRECTION('',(0.939692620785908,-0.342020143325669,8.65956056235493E-17));
#934=DIRECTION('center_axis',(0.422618261740699,-0.90630778703665,0.));
#935=DIRECTION('ref_axis',(0.90630778703665,0.422618261740699,0.));
#936=DIRECTION('',(-0.342020143325669,-0.939692620785908,-8.65956056235493E-17));
#937=DIRECTION('center_axis',(0.,-1.,0.));
#938=DIRECTION('ref_axis',(1.,0.,0.));
#939=DIRECTION('',(-0.707106781186548,-0.707106781186547,-8.65956056235493E-17));
#940=DIRECTION('center_axis',(0.,-1.,0.));
#941=DIRECTION('ref_axis',(1.,0.,0.));
#942=DIRECTION('center_axis',(0.,-1.,0.));
#943=DIRECTION('ref_axis',(1.,0.,0.));
#944=DIRECTION('center_axis',(0.,1.,0.));
#945=DIRECTION('ref_axis',(1.,0.,0.));
#946=DIRECTION('',(0.707106781186548,-0.707106781186547,8.65956056235493E-17));
#947=DIRECTION('center_axis',(0.,1.,0.));
#948=DIRECTION('ref_axis',(1.,0.,0.));
#949=DIRECTION('center_axis',(0.,-1.,0.));
#950=DIRECTION('ref_axis',(1.,0.,0.));
#951=DIRECTION('',(0.707106781186548,-0.707106781186547,8.65956056235493E-17));
#952=DIRECTION('center_axis',(0.,-1.,0.));
#953=DIRECTION('ref_axis',(1.,0.,0.));
#954=DIRECTION('',(-0.707106781186548,-0.707106781186547,-8.65956056235493E-17));
#955=DIRECTION('center_axis',(0.,-1.,0.));
#956=DIRECTION('ref_axis',(1.,0.,0.));
#957=DIRECTION('',(-0.707106781186548,-0.707106781186547,-8.65956056235493E-17));
#958=DIRECTION('center_axis',(0.,-1.,0.));
#959=DIRECTION('ref_axis',(1.,0.,0.));
#960=DIRECTION('center_axis',(0.,-1.,0.));
#961=DIRECTION('ref_axis',(1.,0.,0.));
#962=DIRECTION('center_axis',(0.,1.,0.));
#963=DIRECTION('ref_axis',(1.,0.,0.));
#964=DIRECTION('',(0.707106781186548,-0.707106781186547,8.65956056235493E-17));
#965=DIRECTION('center_axis',(0.,1.,0.));
#966=DIRECTION('ref_axis',(1.,0.,0.));
#967=DIRECTION('center_axis',(0.,-1.,0.));
#968=DIRECTION('ref_axis',(1.,0.,0.));
#969=DIRECTION('',(0.707106781186548,-0.707106781186547,8.65956056235493E-17));
#970=DIRECTION('center_axis',(0.,-1.,0.));
#971=DIRECTION('ref_axis',(1.,0.,0.));
#972=DIRECTION('center_axis',(0.,-1.,0.));
#973=DIRECTION('ref_axis',(1.,0.,0.));
#974=DIRECTION('',(-0.707106781186548,-0.707106781186547,-8.65956056235493E-17));
#975=DIRECTION('center_axis',(0.,1.,0.));
#976=DIRECTION('ref_axis',(1.,0.,0.));
#977=DIRECTION('center_axis',(0.,-1.,0.));
#978=DIRECTION('ref_axis',(1.,0.,0.));
#979=DIRECTION('',(0.707106781186548,-0.707106781186547,8.65956056235493E-17));
#980=DIRECTION('center_axis',(0.,-1.,0.));
#981=DIRECTION('ref_axis',(1.,0.,0.));
#982=DIRECTION('',(-0.707106781186548,-0.707106781186547,-8.65956056235493E-17));
#983=CARTESIAN_POINT('',(0.,0.,0.));
#984=CARTESIAN_POINT('Origin',(0.,0.,-2.5));
#985=CARTESIAN_POINT('',(10.,-10.,-2.5));
#986=CARTESIAN_POINT('',(-10.,-10.,-2.5));
#987=CARTESIAN_POINT('',(10.,-10.,-2.5));
#988=CARTESIAN_POINT('',(-10.,10.,-2.5));
#989=CARTESIAN_POINT('',(-10.,-10.,-2.5));
#990=CARTESIAN_POINT('',(10.,10.,-2.5));
#991=CARTESIAN_POINT('',(-10.,10.,-2.5));
#992=CARTESIAN_POINT('',(10.,10.,-2.5));
#993=CARTESIAN_POINT('Origin',(-10.,10.,0.));
#994=CARTESIAN_POINT('',(-10.,-10.,2.5));
#995=CARTESIAN_POINT('',(-10.,-10.,0.));
#996=CARTESIAN_POINT('',(-10.,10.,2.5));
#997=CARTESIAN_POINT('',(-10.,-10.,2.5));
#998=CARTESIAN_POINT('',(-10.,10.,0.));
#999=CARTESIAN_POINT('Origin',(10.,10.,0.));
#1000=CARTESIAN_POINT('',(10.,10.,2.5));
#1001=CARTESIAN_POINT('',(-10.,10.,2.5));
#1002=CARTESIAN_POINT('',(10.,10.,0.));
#1003=CARTESIAN_POINT('Origin',(10.,-10.,0.));
#1004=CARTESIAN_POINT('',(10.,-10.,2.5));
#1005=CARTESIAN_POINT('',(10.,10.,2.5));
#1006=CARTESIAN_POINT('',(10.,-10.,0.));
#1007=CARTESIAN_POINT('Origin',(-10.,-10.,0.));
#1008=CARTESIAN_POINT('',(10.,-10.,2.5));
#1009=CARTESIAN_POINT('Origin',(0.,0.,2.5));
#1010=CARTESIAN_POINT('Origin',(-4.00000010430813,5.00000002980232,1.));
#1011=CARTESIAN_POINT('',(-4.00000008940697,4.00000002980232,1.));
#1012=CARTESIAN_POINT('',(-5.00000010430813,5.00000004470348,1.));
#1013=CARTESIAN_POINT('',(-4.75000010803342,4.75000003352761,1.));
#1014=CARTESIAN_POINT('',(-4.75000010803342,4.75000003352761,1.));
#1015=CARTESIAN_POINT('Origin',(-4.00000010430813,5.00000002980232,1.));
#1016=CARTESIAN_POINT('Origin',(-4.00000010430813,5.5000000372529,1.));
#1017=CARTESIAN_POINT('',(-4.00000010430813,6.00000004470348,1.));
#1018=CARTESIAN_POINT('',(-4.50000011175871,5.5000000372529,1.));
#1019=CARTESIAN_POINT('Origin',(-5.00000010430813,4.00000002980232,1.));
#1020=CARTESIAN_POINT('',(-6.00000011920929,4.00000002980232,1.));
#1021=CARTESIAN_POINT('Origin',(-5.00000010430813,4.00000002980232,1.));
#1022=CARTESIAN_POINT('Origin',(-5.00000010430813,4.00000002980232,1.));
#1023=CARTESIAN_POINT('',(-5.00000010430813,3.00000001490116,1.));
#1024=CARTESIAN_POINT('',(-6.00000011920929,4.00000002980232,1.));
#1025=CARTESIAN_POINT('Origin',(-5.00000010430813,4.5000000372529,1.));
#1026=CARTESIAN_POINT('Origin',(1.36602530493051,5.09807623170868,-1.));
#1027=CARTESIAN_POINT('',(0.499999888241291,5.59807623915926,-1.));
#1028=CARTESIAN_POINT('Origin',(1.36602530493051,5.09807623170868,-1.));
#1029=CARTESIAN_POINT('',(0.866025297479934,4.23205081501946,-1.));
#1030=CARTESIAN_POINT('',(0.499999888241291,5.59807623915926,-1.));
#1031=CARTESIAN_POINT('Origin',(1.6160253086558,5.53108894005329,-1.));
#1032=CARTESIAN_POINT('',(1.86602531238109,5.9641016483979,-1.));
#1033=CARTESIAN_POINT('',(1.18301260031119,5.78108894377858,-1.));
#1034=CARTESIAN_POINT('Origin',(-7.00000010430813,-0.999999970197678,1.));
#1035=CARTESIAN_POINT('',(-8.00000011920929,-0.999999970197678,1.));
#1036=CARTESIAN_POINT('Origin',(-7.00000010430813,-0.999999970197678,1.));
#1037=CARTESIAN_POINT('',(-7.00000010430813,-1.99999998509884,1.));
#1038=CARTESIAN_POINT('',(-8.00000011920929,-0.999999970197678,1.));
#1039=CARTESIAN_POINT('Origin',(-7.00000010430813,-0.499999962747097,1.));
#1040=CARTESIAN_POINT('',(-7.00000010430813,4.47034831374538E-8,1.));
#1041=CARTESIAN_POINT('',(-7.50000011175871,-0.499999962747097,1.));
#1042=CARTESIAN_POINT('Origin',(-1.043081276908E-7,-0.499999962747097,-1.));
#1043=CARTESIAN_POINT('',(-1.043081276908E-7,4.47034831374538E-8,-1.));
#1044=CARTESIAN_POINT('',(-1.00000011920929,-0.999999970197678,-1.));
#1045=CARTESIAN_POINT('',(-0.500000111758708,-0.499999962747097,-1.));
#1046=CARTESIAN_POINT('Origin',(-1.043081276908E-7,-0.999999970197678,-1.));
#1047=CARTESIAN_POINT('Origin',(-1.043081276908E-7,-0.999999970197678,-1.));
#1048=CARTESIAN_POINT('',(-1.043081276908E-7,-1.99999998509884,-1.));
#1049=CARTESIAN_POINT('',(-1.00000011920929,-0.999999970197678,-1.));
#1050=CARTESIAN_POINT('Origin',(-1.043081276908E-7,-2.99999997019768,-1.));
#1051=CARTESIAN_POINT('',(-1.00000011920929,-2.99999997019768,-1.));
#1052=CARTESIAN_POINT('Origin',(-1.043081276908E-7,-2.99999997019768,-1.));
#1053=CARTESIAN_POINT('',(-1.043081276908E-7,-3.99999998509884,-1.));
#1054=CARTESIAN_POINT('',(-1.00000011920929,-2.99999997019768,-1.));
#1055=CARTESIAN_POINT('Origin',(-1.043081276908E-7,-2.4999999627471,-1.));
#1056=CARTESIAN_POINT('',(-0.500000111758708,-2.4999999627471,-1.));
#1057=CARTESIAN_POINT('Origin',(-4.00000010430813,-2.99999997019768,-1.));
#1058=CARTESIAN_POINT('',(-5.00000011920929,-2.99999997019768,-1.));
#1059=CARTESIAN_POINT('Origin',(-4.00000010430813,-2.99999997019768,-1.));
#1060=CARTESIAN_POINT('',(-4.00000010430813,-3.99999998509884,-1.));
#1061=CARTESIAN_POINT('',(-5.00000011920929,-2.99999997019768,-1.));
#1062=CARTESIAN_POINT('Origin',(-4.00000010430813,-2.4999999627471,-1.));
#1063=CARTESIAN_POINT('',(-4.00000010430813,-1.99999995529652,-1.));
#1064=CARTESIAN_POINT('',(-4.50000011175871,-2.4999999627471,-1.));
#1065=CARTESIAN_POINT('Origin',(3.40883195458946,-0.87674314982973,-1.));
#1066=CARTESIAN_POINT('',(2.64278750005553,-0.233955530564909,-1.));
#1067=CARTESIAN_POINT('Origin',(3.40883195458946,-0.87674314982973,-1.));
#1068=CARTESIAN_POINT('',(2.76604433532464,-1.64278760436366,-1.));
#1069=CARTESIAN_POINT('',(2.64278750005553,-0.233955530564909,-1.));
#1070=CARTESIAN_POINT('Origin',(3.73022576422187,-0.493720922562765,-1.));
#1071=CARTESIAN_POINT('',(4.05161957385428,-0.110698695295801,-1.));
#1072=CARTESIAN_POINT('',(3.34720353695491,-0.172327112930355,-1.));
#1073=CARTESIAN_POINT('Origin',(2.99999989569187,4.00000002980232,-1.));
#1074=CARTESIAN_POINT('',(1.99999988079071,4.00000002980232,-1.));
#1075=CARTESIAN_POINT('Origin',(2.99999989569187,4.00000002980232,-1.));
#1076=CARTESIAN_POINT('',(2.99999989569187,3.00000001490116,-1.));
#1077=CARTESIAN_POINT('',(1.99999988079071,4.00000002980232,-1.));
#1078=CARTESIAN_POINT('Origin',(2.99999989569187,4.5000000372529,-1.));
#1079=CARTESIAN_POINT('',(2.99999989569187,5.00000004470348,-1.));
#1080=CARTESIAN_POINT('',(2.49999988824129,4.5000000372529,-1.));
#1081=CARTESIAN_POINT('Origin',(-7.00000010430813,5.00000002980232,1.));
#1082=CARTESIAN_POINT('',(-8.00000011920929,5.00000002980232,1.));
#1083=CARTESIAN_POINT('Origin',(-7.00000010430813,5.00000002980232,1.));
#1084=CARTESIAN_POINT('',(-7.00000010430813,4.00000001490116,1.));
#1085=CARTESIAN_POINT('',(-8.00000011920929,5.00000002980232,1.));
#1086=CARTESIAN_POINT('Origin',(-7.00000010430813,5.5000000372529,1.));
#1087=CARTESIAN_POINT('',(-7.00000010430813,6.00000004470348,1.));
#1088=CARTESIAN_POINT('',(-7.50000011175871,5.5000000372529,1.));
#1089=CARTESIAN_POINT('Origin',(-2.2347069022828,3.98522000729852,-1.));
#1090=CARTESIAN_POINT('',(-3.23470691718396,3.98522000729852,-1.));
#1091=CARTESIAN_POINT('Origin',(-2.2347069022828,3.98522000729852,-1.));
#1092=CARTESIAN_POINT('',(-2.2347069022828,2.98521999239736,-1.));
#1093=CARTESIAN_POINT('',(-3.23470691718396,3.98522000729852,-1.));
#1094=CARTESIAN_POINT('Origin',(-2.2347069022828,4.4852200147491,-1.));
#1095=CARTESIAN_POINT('',(-2.2347069022828,4.98522002219968,-1.));
#1096=CARTESIAN_POINT('',(-2.73470690973338,4.4852200147491,-1.));
#1097=CARTESIAN_POINT('Origin',(-3.00000010430813,2.5000000372529,1.));
#1098=CARTESIAN_POINT('',(-3.00000010430813,3.00000004470348,1.));
#1099=CARTESIAN_POINT('',(-4.00000011920929,2.00000002980232,1.));
#1100=CARTESIAN_POINT('',(-3.50000011175871,2.5000000372529,1.));
#1101=CARTESIAN_POINT('',(-2.00000008940697,2.00000002980232,1.));
#1102=CARTESIAN_POINT('Origin',(-3.00000010430813,2.00000002980232,1.));
#1103=CARTESIAN_POINT('Origin',(-3.00000010430813,2.00000002980232,1.));
#1104=CARTESIAN_POINT('Origin',(-3.00000010430813,2.00000002980232,1.));
#1105=CARTESIAN_POINT('',(-3.00000010430813,1.00000001490116,1.));
#1106=CARTESIAN_POINT('',(-4.00000011920929,2.00000002980232,1.));
#1107=CARTESIAN_POINT('Origin',(-1.00000010430813,2.00000002980232,1.));
#1108=CARTESIAN_POINT('Origin',(-1.00000010430813,2.00000002980232,1.));
#1109=CARTESIAN_POINT('',(-1.00000010430813,1.00000001490116,1.));
#1110=CARTESIAN_POINT('',(-2.00000011920929,2.00000002980232,1.));
#1111=CARTESIAN_POINT('Origin',(-1.00000010430813,2.5000000372529,1.));
#1112=CARTESIAN_POINT('',(-1.00000010430813,3.00000004470348,1.));
#1113=CARTESIAN_POINT('',(-1.50000011175871,2.5000000372529,1.));
#1114=CARTESIAN_POINT('Origin',(-5.00000010430813,2.9802322276673E-8,1.));
#1115=CARTESIAN_POINT('',(-6.00000011920929,2.9802322276673E-8,1.));
#1116=CARTESIAN_POINT('Origin',(-5.00000010430813,2.9802322276673E-8,1.));
#1117=CARTESIAN_POINT('',(-5.00000010430813,-0.999999985098839,1.));
#1118=CARTESIAN_POINT('',(-6.00000011920929,2.9802322276673E-8,1.));
#1119=CARTESIAN_POINT('Origin',(-5.00000010430813,0.500000037252903,1.));
#1120=CARTESIAN_POINT('',(-5.00000010430813,1.00000004470348,1.));
#1121=CARTESIAN_POINT('',(-5.50000011175871,0.500000037252903,1.));
#1122=CARTESIAN_POINT('Origin',(-2.173648284789,-1.01519221482429,-1.));
#1123=CARTESIAN_POINT('',(-3.15845605247599,-1.18884039507878,-1.));
#1124=CARTESIAN_POINT('Origin',(-2.173648284789,-1.01519221482429,-1.));
#1125=CARTESIAN_POINT('',(-2.00000010453451,-1.99999998251128,-1.));
#1126=CARTESIAN_POINT('',(-3.15845605247599,-1.18884039507878,-1.));
#1127=CARTESIAN_POINT('Origin',(-2.26047237491624,-0.522788330980798,-1.));
#1128=CARTESIAN_POINT('',(-2.34729646504349,-0.030384447137306,-1.));
#1129=CARTESIAN_POINT('',(-2.75287625875974,-0.609612421108043,-1.));
#1130=CARTESIAN_POINT('Origin',(-1.5163105867058,6.32892608348105,-1.));
#1131=CARTESIAN_POINT('',(-2.42261838724749,5.90630781544285,-1.));
#1132=CARTESIAN_POINT('Origin',(-1.5163105867058,6.32892608348105,-1.));
#1133=CARTESIAN_POINT('',(-1.0936923186676,5.42261828293936,-1.));
#1134=CARTESIAN_POINT('',(-2.42261838724749,5.90630781544285,-1.));
#1135=CARTESIAN_POINT('Origin',(-1.7276197207249,6.7820799837519,-1.));
#1136=CARTESIAN_POINT('',(-1.93892885474401,7.23523388402274,-1.));
#1137=CARTESIAN_POINT('',(-2.18077362099575,6.5707708497328,-1.));
#1138=CARTESIAN_POINT('Origin',(1.99999989569187,2.5000000372529,1.));
#1139=CARTESIAN_POINT('',(1.99999989569187,3.00000004470348,1.));
#1140=CARTESIAN_POINT('',(0.999999880790711,2.00000002980232,1.));
#1141=CARTESIAN_POINT('',(1.49999988824129,2.5000000372529,1.));
#1142=CARTESIAN_POINT('',(2.99999991059303,2.00000002980232,1.));
#1143=CARTESIAN_POINT('Origin',(1.99999989569187,2.00000002980232,1.));
#1144=CARTESIAN_POINT('Origin',(1.99999989569187,2.00000002980232,1.));
#1145=CARTESIAN_POINT('Origin',(1.99999989569187,2.00000002980232,1.));
#1146=CARTESIAN_POINT('',(1.99999989569187,1.00000001490116,1.));
#1147=CARTESIAN_POINT('',(0.999999880790711,2.00000002980232,1.));
#1148=CARTESIAN_POINT('Origin',(3.99999989569187,2.00000002980232,1.));
#1149=CARTESIAN_POINT('Origin',(3.99999989569187,2.00000002980232,1.));
#1150=CARTESIAN_POINT('',(3.99999989569187,1.00000001490116,1.));
#1151=CARTESIAN_POINT('',(2.99999988079071,2.00000002980232,1.));
#1152=CARTESIAN_POINT('Origin',(3.99999989569187,2.5000000372529,1.));
#1153=CARTESIAN_POINT('',(3.99999989569187,3.00000004470348,1.));
#1154=CARTESIAN_POINT('',(3.49999988824129,2.5000000372529,1.));
#1155=CARTESIAN_POINT('Origin',(-1.043081276908E-7,4.5000000372529,1.));
#1156=CARTESIAN_POINT('',(-1.043081276908E-7,5.00000004470348,1.));
#1157=CARTESIAN_POINT('',(-1.00000011920929,4.00000002980232,1.));
#1158=CARTESIAN_POINT('',(-0.500000111758708,4.5000000372529,1.));
#1159=CARTESIAN_POINT('',(-1.043081276908E-7,4.00000002980232,1.49011608607807E-8));
#1160=CARTESIAN_POINT('Origin',(-1.043081276908E-7,4.00000002980232,1.));
#1161=CARTESIAN_POINT('Origin',(-1.043081276908E-7,4.00000002980232,1.));
#1162=CARTESIAN_POINT('Origin',(-1.043081276908E-7,4.00000002980232,1.));
#1163=CARTESIAN_POINT('',(-1.043081276908E-7,3.00000001490116,1.));
#1164=CARTESIAN_POINT('',(-1.00000011920929,4.00000002980232,1.));
#1165=CARTESIAN_POINT('Origin',(-1.043081276908E-7,4.00000002980232,-1.));
#1166=CARTESIAN_POINT('',(-1.00000011920929,4.00000002980232,-1.));
#1167=CARTESIAN_POINT('Origin',(-1.043081276908E-7,4.00000002980232,-1.));
#1168=CARTESIAN_POINT('',(-1.043081276908E-7,3.00000001490116,-1.));
#1169=CARTESIAN_POINT('',(-1.00000011920929,4.00000002980232,-1.));
#1170=CARTESIAN_POINT('Origin',(-1.043081276908E-7,4.00000002980232,-1.));
#1171=CARTESIAN_POINT('Origin',(-1.043081276908E-7,4.5000000372529,-1.));
#1172=CARTESIAN_POINT('',(-1.043081276908E-7,5.00000004470348,-1.));
#1173=CARTESIAN_POINT('',(-0.500000111758708,4.5000000372529,-1.));
#1174=CARTESIAN_POINT('Origin',(-7.00000010430813,2.00000002980232,1.));
#1175=CARTESIAN_POINT('',(-8.00000011920929,2.00000002980232,1.));
#1176=CARTESIAN_POINT('Origin',(-7.00000010430813,2.00000002980232,1.));
#1177=CARTESIAN_POINT('',(-7.00000010430813,1.00000001490116,1.));
#1178=CARTESIAN_POINT('',(-8.00000011920929,2.00000002980232,1.));
#1179=CARTESIAN_POINT('Origin',(-7.00000010430813,2.5000000372529,1.));
#1180=CARTESIAN_POINT('',(-7.00000010430813,3.00000004470348,1.));
#1181=CARTESIAN_POINT('',(-7.50000011175871,2.5000000372529,1.));
#1182=UNCERTAINTY_MEASURE_WITH_UNIT(LENGTH_MEASURE(0.01),#1186,
'DISTANCE_ACCURACY_VALUE',
'Maximum model space distance between geometric entities at asserted c
onnectivities');
#1183=UNCERTAINTY_MEASURE_WITH_UNIT(LENGTH_MEASURE(0.01),#1186,
'DISTANCE_ACCURACY_VALUE',
'Maximum model space distance between geometric entities at asserted c
onnectivities');
#1184=(
GEOMETRIC_REPRESENTATION_CONTEXT(3)
GLOBAL_UNCERTAINTY_ASSIGNED_CONTEXT((#1182))
GLOBAL_UNIT_ASSIGNED_CONTEXT((#1186,#1188,#1189))
REPRESENTATION_CONTEXT('','3D')
);
#1185=(
GEOMETRIC_REPRESENTATION_CONTEXT(3)
GLOBAL_UNCERTAINTY_ASSIGNED_CONTEXT((#1183))
GLOBAL_UNIT_ASSIGNED_CONTEXT((#1186,#1188,#1189))
REPRESENTATION_CONTEXT('','3D')
);
#1186=(
LENGTH_UNIT()
NAMED_UNIT(*)
SI_UNIT(.MILLI.,.METRE.)
);
#1187=(
LENGTH_UNIT()
NAMED_UNIT(*)
SI_UNIT($,.METRE.)
);
#1188=(
NAMED_UNIT(*)
PLANE_ANGLE_UNIT()
SI_UNIT($,.RADIAN.)
);
#1189=(
NAMED_UNIT(*)
SI_UNIT($,.STERADIAN.)
SOLID_ANGLE_UNIT()
);
#1190=SHAPE_DEFINITION_REPRESENTATION(#1191,#1192);
#1191=PRODUCT_DEFINITION_SHAPE('',$,#1194);
#1192=SHAPE_REPRESENTATION('',(#704),#1184);
#1193=PRODUCT_DEFINITION_CONTEXT('part definition',#1198,'design');
#1194=PRODUCT_DEFINITION('PrismVoids','PrismVoids',#1195,#1193);
#1195=PRODUCT_DEFINITION_FORMATION('',$,#1200);
#1196=PRODUCT_RELATED_PRODUCT_CATEGORY('PrismVoids','PrismVoids',(#1200));
#1197=APPLICATION_PROTOCOL_DEFINITION('international standard',
'automotive_design',2009,#1198);
#1198=APPLICATION_CONTEXT(
'Core Data for Automotive Mechanical Design Process');
#1199=PRODUCT_CONTEXT('part definition',#1198,'mechanical');
#1200=PRODUCT('PrismVoids','PrismVoids',$,(#1199));
#1201=PRESENTATION_STYLE_ASSIGNMENT((#1202));
#1202=SURFACE_STYLE_USAGE(.BOTH.,#1203);
#1203=SURFACE_SIDE_STYLE('',(#1204));
#1204=SURFACE_STYLE_FILL_AREA(#1205);
#1205=FILL_AREA_STYLE('Steel - Satin',(#1206));
#1206=FILL_AREA_STYLE_COLOUR('Steel - Satin',#1207);
#1207=COLOUR_RGB('Steel - Satin',0.627450980392157,0.627450980392157,0.627450980392157);
ENDSEC;
END-ISO-10303-21;
