ISO-10303-21;
HEADER;
/* Generated by software containing ST-Developer
 * from STEP Tools, Inc. (www.steptools.com) 
 */

FILE_DESCRIPTION(
/* description */ (''),
/* implementation_level */ '2;1');

FILE_NAME(
/* name */ 'SampleRayas_CV09.step',
/* time_stamp */ '2026-03-17T10:44:15-04:00',
/* author */ (''),
/* organization */ (''),
/* preprocessor_version */ 'ST-DEVELOPER v20.1',
/* originating_system */ 'Autodesk Translation Framework v14.24.0.0',
/* authorisation */ '');

FILE_SCHEMA (('AUTOMOTIVE_DESIGN { 1 0 10303 214 3 1 1 }'));
ENDSEC;

DATA;
#10=MECHANICAL_DESIGN_GEOMETRIC_PRESENTATION_REPRESENTATION('',(#13),#633);
#11=SHAPE_REPRESENTATION_RELATIONSHIP('SRR','None',#640,#12);
#12=ADVANCED_BREP_SHAPE_REPRESENTATION('',(#389),#632);
#13=STYLED_ITEM('',(#649),#389);
#14=ORIENTED_CLOSED_SHELL('',*,#386,.F.);
#15=ORIENTED_CLOSED_SHELL('',*,#387,.F.);
#16=ORIENTED_CLOSED_SHELL('',*,#388,.F.);
#17=FACE_OUTER_BOUND('',#41,.T.);
#18=FACE_OUTER_BOUND('',#42,.T.);
#19=FACE_OUTER_BOUND('',#43,.T.);
#20=FACE_OUTER_BOUND('',#44,.T.);
#21=FACE_OUTER_BOUND('',#45,.T.);
#22=FACE_OUTER_BOUND('',#46,.T.);
#23=FACE_OUTER_BOUND('',#47,.T.);
#24=FACE_OUTER_BOUND('',#48,.T.);
#25=FACE_OUTER_BOUND('',#49,.T.);
#26=FACE_OUTER_BOUND('',#50,.T.);
#27=FACE_OUTER_BOUND('',#51,.T.);
#28=FACE_OUTER_BOUND('',#52,.T.);
#29=FACE_OUTER_BOUND('',#53,.T.);
#30=FACE_OUTER_BOUND('',#54,.T.);
#31=FACE_OUTER_BOUND('',#55,.T.);
#32=FACE_OUTER_BOUND('',#56,.T.);
#33=FACE_OUTER_BOUND('',#57,.T.);
#34=FACE_OUTER_BOUND('',#58,.T.);
#35=FACE_OUTER_BOUND('',#59,.T.);
#36=FACE_OUTER_BOUND('',#60,.T.);
#37=FACE_OUTER_BOUND('',#61,.T.);
#38=FACE_OUTER_BOUND('',#62,.T.);
#39=FACE_OUTER_BOUND('',#63,.T.);
#40=FACE_OUTER_BOUND('',#64,.T.);
#41=EDGE_LOOP('',(#241,#242,#243,#244));
#42=EDGE_LOOP('',(#245,#246,#247,#248));
#43=EDGE_LOOP('',(#249,#250,#251,#252));
#44=EDGE_LOOP('',(#253,#254,#255,#256));
#45=EDGE_LOOP('',(#257,#258,#259,#260));
#46=EDGE_LOOP('',(#261,#262,#263,#264));
#47=EDGE_LOOP('',(#265,#266,#267,#268));
#48=EDGE_LOOP('',(#269,#270,#271,#272));
#49=EDGE_LOOP('',(#273,#274,#275,#276));
#50=EDGE_LOOP('',(#277,#278,#279,#280));
#51=EDGE_LOOP('',(#281,#282,#283,#284));
#52=EDGE_LOOP('',(#285,#286,#287,#288));
#53=EDGE_LOOP('',(#289,#290,#291,#292));
#54=EDGE_LOOP('',(#293,#294,#295,#296));
#55=EDGE_LOOP('',(#297,#298,#299,#300));
#56=EDGE_LOOP('',(#301,#302,#303,#304));
#57=EDGE_LOOP('',(#305,#306,#307,#308));
#58=EDGE_LOOP('',(#309,#310,#311,#312));
#59=EDGE_LOOP('',(#313,#314,#315,#316));
#60=EDGE_LOOP('',(#317,#318,#319,#320));
#61=EDGE_LOOP('',(#321,#322,#323,#324));
#62=EDGE_LOOP('',(#325,#326,#327,#328));
#63=EDGE_LOOP('',(#329,#330,#331,#332));
#64=EDGE_LOOP('',(#333,#334,#335,#336));
#65=LINE('',#529,#113);
#66=LINE('',#531,#114);
#67=LINE('',#533,#115);
#68=LINE('',#534,#116);
#69=LINE('',#537,#117);
#70=LINE('',#539,#118);
#71=LINE('',#540,#119);
#72=LINE('',#543,#120);
#73=LINE('',#544,#121);
#74=LINE('',#547,#122);
#75=LINE('',#548,#123);
#76=LINE('',#550,#124);
#77=LINE('',#555,#125);
#78=LINE('',#557,#126);
#79=LINE('',#559,#127);
#80=LINE('',#560,#128);
#81=LINE('',#563,#129);
#82=LINE('',#565,#130);
#83=LINE('',#566,#131);
#84=LINE('',#569,#132);
#85=LINE('',#570,#133);
#86=LINE('',#573,#134);
#87=LINE('',#574,#135);
#88=LINE('',#576,#136);
#89=LINE('',#581,#137);
#90=LINE('',#583,#138);
#91=LINE('',#585,#139);
#92=LINE('',#586,#140);
#93=LINE('',#589,#141);
#94=LINE('',#591,#142);
#95=LINE('',#592,#143);
#96=LINE('',#595,#144);
#97=LINE('',#596,#145);
#98=LINE('',#599,#146);
#99=LINE('',#600,#147);
#100=LINE('',#602,#148);
#101=LINE('',#607,#149);
#102=LINE('',#609,#150);
#103=LINE('',#611,#151);
#104=LINE('',#612,#152);
#105=LINE('',#615,#153);
#106=LINE('',#617,#154);
#107=LINE('',#618,#155);
#108=LINE('',#621,#156);
#109=LINE('',#622,#157);
#110=LINE('',#625,#158);
#111=LINE('',#626,#159);
#112=LINE('',#628,#160);
#113=VECTOR('',#431,10.);
#114=VECTOR('',#432,10.);
#115=VECTOR('',#433,10.);
#116=VECTOR('',#434,10.);
#117=VECTOR('',#437,10.);
#118=VECTOR('',#438,10.);
#119=VECTOR('',#439,10.);
#120=VECTOR('',#442,10.);
#121=VECTOR('',#443,10.);
#122=VECTOR('',#446,10.);
#123=VECTOR('',#447,10.);
#124=VECTOR('',#450,10.);
#125=VECTOR('',#455,10.);
#126=VECTOR('',#456,10.);
#127=VECTOR('',#457,10.);
#128=VECTOR('',#458,10.);
#129=VECTOR('',#461,10.);
#130=VECTOR('',#462,10.);
#131=VECTOR('',#463,10.);
#132=VECTOR('',#466,10.);
#133=VECTOR('',#467,10.);
#134=VECTOR('',#470,10.);
#135=VECTOR('',#471,10.);
#136=VECTOR('',#474,10.);
#137=VECTOR('',#479,10.);
#138=VECTOR('',#480,10.);
#139=VECTOR('',#481,10.);
#140=VECTOR('',#482,10.);
#141=VECTOR('',#485,10.);
#142=VECTOR('',#486,10.);
#143=VECTOR('',#487,10.);
#144=VECTOR('',#490,10.);
#145=VECTOR('',#491,10.);
#146=VECTOR('',#494,10.);
#147=VECTOR('',#495,10.);
#148=VECTOR('',#498,10.);
#149=VECTOR('',#503,10.);
#150=VECTOR('',#504,10.);
#151=VECTOR('',#505,10.);
#152=VECTOR('',#506,10.);
#153=VECTOR('',#509,10.);
#154=VECTOR('',#510,10.);
#155=VECTOR('',#511,10.);
#156=VECTOR('',#514,10.);
#157=VECTOR('',#515,10.);
#158=VECTOR('',#518,10.);
#159=VECTOR('',#519,10.);
#160=VECTOR('',#522,10.);
#161=VERTEX_POINT('',#527);
#162=VERTEX_POINT('',#528);
#163=VERTEX_POINT('',#530);
#164=VERTEX_POINT('',#532);
#165=VERTEX_POINT('',#536);
#166=VERTEX_POINT('',#538);
#167=VERTEX_POINT('',#542);
#168=VERTEX_POINT('',#546);
#169=VERTEX_POINT('',#553);
#170=VERTEX_POINT('',#554);
#171=VERTEX_POINT('',#556);
#172=VERTEX_POINT('',#558);
#173=VERTEX_POINT('',#562);
#174=VERTEX_POINT('',#564);
#175=VERTEX_POINT('',#568);
#176=VERTEX_POINT('',#572);
#177=VERTEX_POINT('',#579);
#178=VERTEX_POINT('',#580);
#179=VERTEX_POINT('',#582);
#180=VERTEX_POINT('',#584);
#181=VERTEX_POINT('',#588);
#182=VERTEX_POINT('',#590);
#183=VERTEX_POINT('',#594);
#184=VERTEX_POINT('',#598);
#185=VERTEX_POINT('',#605);
#186=VERTEX_POINT('',#606);
#187=VERTEX_POINT('',#608);
#188=VERTEX_POINT('',#610);
#189=VERTEX_POINT('',#614);
#190=VERTEX_POINT('',#616);
#191=VERTEX_POINT('',#620);
#192=VERTEX_POINT('',#624);
#193=EDGE_CURVE('',#161,#162,#65,.T.);
#194=EDGE_CURVE('',#162,#163,#66,.T.);
#195=EDGE_CURVE('',#163,#164,#67,.T.);
#196=EDGE_CURVE('',#164,#161,#68,.T.);
#197=EDGE_CURVE('',#165,#162,#69,.T.);
#198=EDGE_CURVE('',#166,#165,#70,.T.);
#199=EDGE_CURVE('',#163,#166,#71,.T.);
#200=EDGE_CURVE('',#167,#166,#72,.T.);
#201=EDGE_CURVE('',#164,#167,#73,.T.);
#202=EDGE_CURVE('',#168,#167,#74,.T.);
#203=EDGE_CURVE('',#161,#168,#75,.T.);
#204=EDGE_CURVE('',#165,#168,#76,.T.);
#205=EDGE_CURVE('',#169,#170,#77,.T.);
#206=EDGE_CURVE('',#171,#169,#78,.T.);
#207=EDGE_CURVE('',#172,#171,#79,.T.);
#208=EDGE_CURVE('',#170,#172,#80,.T.);
#209=EDGE_CURVE('',#173,#170,#81,.T.);
#210=EDGE_CURVE('',#172,#174,#82,.T.);
#211=EDGE_CURVE('',#174,#173,#83,.T.);
#212=EDGE_CURVE('',#171,#175,#84,.T.);
#213=EDGE_CURVE('',#175,#174,#85,.T.);
#214=EDGE_CURVE('',#169,#176,#86,.T.);
#215=EDGE_CURVE('',#176,#175,#87,.T.);
#216=EDGE_CURVE('',#173,#176,#88,.T.);
#217=EDGE_CURVE('',#177,#178,#89,.T.);
#218=EDGE_CURVE('',#179,#177,#90,.T.);
#219=EDGE_CURVE('',#180,#179,#91,.T.);
#220=EDGE_CURVE('',#178,#180,#92,.T.);
#221=EDGE_CURVE('',#181,#178,#93,.T.);
#222=EDGE_CURVE('',#180,#182,#94,.T.);
#223=EDGE_CURVE('',#182,#181,#95,.T.);
#224=EDGE_CURVE('',#179,#183,#96,.T.);
#225=EDGE_CURVE('',#183,#182,#97,.T.);
#226=EDGE_CURVE('',#177,#184,#98,.T.);
#227=EDGE_CURVE('',#184,#183,#99,.T.);
#228=EDGE_CURVE('',#181,#184,#100,.T.);
#229=EDGE_CURVE('',#185,#186,#101,.T.);
#230=EDGE_CURVE('',#187,#185,#102,.T.);
#231=EDGE_CURVE('',#188,#187,#103,.T.);
#232=EDGE_CURVE('',#186,#188,#104,.T.);
#233=EDGE_CURVE('',#189,#186,#105,.T.);
#234=EDGE_CURVE('',#188,#190,#106,.T.);
#235=EDGE_CURVE('',#190,#189,#107,.T.);
#236=EDGE_CURVE('',#187,#191,#108,.T.);
#237=EDGE_CURVE('',#191,#190,#109,.T.);
#238=EDGE_CURVE('',#185,#192,#110,.T.);
#239=EDGE_CURVE('',#192,#191,#111,.T.);
#240=EDGE_CURVE('',#189,#192,#112,.T.);
#241=ORIENTED_EDGE('',*,*,#193,.T.);
#242=ORIENTED_EDGE('',*,*,#194,.T.);
#243=ORIENTED_EDGE('',*,*,#195,.T.);
#244=ORIENTED_EDGE('',*,*,#196,.T.);
#245=ORIENTED_EDGE('',*,*,#197,.F.);
#246=ORIENTED_EDGE('',*,*,#198,.F.);
#247=ORIENTED_EDGE('',*,*,#199,.F.);
#248=ORIENTED_EDGE('',*,*,#194,.F.);
#249=ORIENTED_EDGE('',*,*,#199,.T.);
#250=ORIENTED_EDGE('',*,*,#200,.F.);
#251=ORIENTED_EDGE('',*,*,#201,.F.);
#252=ORIENTED_EDGE('',*,*,#195,.F.);
#253=ORIENTED_EDGE('',*,*,#201,.T.);
#254=ORIENTED_EDGE('',*,*,#202,.F.);
#255=ORIENTED_EDGE('',*,*,#203,.F.);
#256=ORIENTED_EDGE('',*,*,#196,.F.);
#257=ORIENTED_EDGE('',*,*,#203,.T.);
#258=ORIENTED_EDGE('',*,*,#204,.F.);
#259=ORIENTED_EDGE('',*,*,#197,.T.);
#260=ORIENTED_EDGE('',*,*,#193,.F.);
#261=ORIENTED_EDGE('',*,*,#204,.T.);
#262=ORIENTED_EDGE('',*,*,#202,.T.);
#263=ORIENTED_EDGE('',*,*,#200,.T.);
#264=ORIENTED_EDGE('',*,*,#198,.T.);
#265=ORIENTED_EDGE('',*,*,#205,.F.);
#266=ORIENTED_EDGE('',*,*,#206,.F.);
#267=ORIENTED_EDGE('',*,*,#207,.F.);
#268=ORIENTED_EDGE('',*,*,#208,.F.);
#269=ORIENTED_EDGE('',*,*,#209,.T.);
#270=ORIENTED_EDGE('',*,*,#208,.T.);
#271=ORIENTED_EDGE('',*,*,#210,.T.);
#272=ORIENTED_EDGE('',*,*,#211,.T.);
#273=ORIENTED_EDGE('',*,*,#210,.F.);
#274=ORIENTED_EDGE('',*,*,#207,.T.);
#275=ORIENTED_EDGE('',*,*,#212,.T.);
#276=ORIENTED_EDGE('',*,*,#213,.T.);
#277=ORIENTED_EDGE('',*,*,#212,.F.);
#278=ORIENTED_EDGE('',*,*,#206,.T.);
#279=ORIENTED_EDGE('',*,*,#214,.T.);
#280=ORIENTED_EDGE('',*,*,#215,.T.);
#281=ORIENTED_EDGE('',*,*,#214,.F.);
#282=ORIENTED_EDGE('',*,*,#205,.T.);
#283=ORIENTED_EDGE('',*,*,#209,.F.);
#284=ORIENTED_EDGE('',*,*,#216,.T.);
#285=ORIENTED_EDGE('',*,*,#216,.F.);
#286=ORIENTED_EDGE('',*,*,#211,.F.);
#287=ORIENTED_EDGE('',*,*,#213,.F.);
#288=ORIENTED_EDGE('',*,*,#215,.F.);
#289=ORIENTED_EDGE('',*,*,#217,.F.);
#290=ORIENTED_EDGE('',*,*,#218,.F.);
#291=ORIENTED_EDGE('',*,*,#219,.F.);
#292=ORIENTED_EDGE('',*,*,#220,.F.);
#293=ORIENTED_EDGE('',*,*,#221,.T.);
#294=ORIENTED_EDGE('',*,*,#220,.T.);
#295=ORIENTED_EDGE('',*,*,#222,.T.);
#296=ORIENTED_EDGE('',*,*,#223,.T.);
#297=ORIENTED_EDGE('',*,*,#222,.F.);
#298=ORIENTED_EDGE('',*,*,#219,.T.);
#299=ORIENTED_EDGE('',*,*,#224,.T.);
#300=ORIENTED_EDGE('',*,*,#225,.T.);
#301=ORIENTED_EDGE('',*,*,#224,.F.);
#302=ORIENTED_EDGE('',*,*,#218,.T.);
#303=ORIENTED_EDGE('',*,*,#226,.T.);
#304=ORIENTED_EDGE('',*,*,#227,.T.);
#305=ORIENTED_EDGE('',*,*,#226,.F.);
#306=ORIENTED_EDGE('',*,*,#217,.T.);
#307=ORIENTED_EDGE('',*,*,#221,.F.);
#308=ORIENTED_EDGE('',*,*,#228,.T.);
#309=ORIENTED_EDGE('',*,*,#228,.F.);
#310=ORIENTED_EDGE('',*,*,#223,.F.);
#311=ORIENTED_EDGE('',*,*,#225,.F.);
#312=ORIENTED_EDGE('',*,*,#227,.F.);
#313=ORIENTED_EDGE('',*,*,#229,.F.);
#314=ORIENTED_EDGE('',*,*,#230,.F.);
#315=ORIENTED_EDGE('',*,*,#231,.F.);
#316=ORIENTED_EDGE('',*,*,#232,.F.);
#317=ORIENTED_EDGE('',*,*,#233,.T.);
#318=ORIENTED_EDGE('',*,*,#232,.T.);
#319=ORIENTED_EDGE('',*,*,#234,.T.);
#320=ORIENTED_EDGE('',*,*,#235,.T.);
#321=ORIENTED_EDGE('',*,*,#234,.F.);
#322=ORIENTED_EDGE('',*,*,#231,.T.);
#323=ORIENTED_EDGE('',*,*,#236,.T.);
#324=ORIENTED_EDGE('',*,*,#237,.T.);
#325=ORIENTED_EDGE('',*,*,#236,.F.);
#326=ORIENTED_EDGE('',*,*,#230,.T.);
#327=ORIENTED_EDGE('',*,*,#238,.T.);
#328=ORIENTED_EDGE('',*,*,#239,.T.);
#329=ORIENTED_EDGE('',*,*,#238,.F.);
#330=ORIENTED_EDGE('',*,*,#229,.T.);
#331=ORIENTED_EDGE('',*,*,#233,.F.);
#332=ORIENTED_EDGE('',*,*,#240,.T.);
#333=ORIENTED_EDGE('',*,*,#240,.F.);
#334=ORIENTED_EDGE('',*,*,#235,.F.);
#335=ORIENTED_EDGE('',*,*,#237,.F.);
#336=ORIENTED_EDGE('',*,*,#239,.F.);
#337=PLANE('',#403);
#338=PLANE('',#404);
#339=PLANE('',#405);
#340=PLANE('',#406);
#341=PLANE('',#407);
#342=PLANE('',#408);
#343=PLANE('',#409);
#344=PLANE('',#410);
#345=PLANE('',#411);
#346=PLANE('',#412);
#347=PLANE('',#413);
#348=PLANE('',#414);
#349=PLANE('',#415);
#350=PLANE('',#416);
#351=PLANE('',#417);
#352=PLANE('',#418);
#353=PLANE('',#419);
#354=PLANE('',#420);
#355=PLANE('',#421);
#356=PLANE('',#422);
#357=PLANE('',#423);
#358=PLANE('',#424);
#359=PLANE('',#425);
#360=PLANE('',#426);
#361=ADVANCED_FACE('',(#17),#337,.T.);
#362=ADVANCED_FACE('',(#18),#338,.T.);
#363=ADVANCED_FACE('',(#19),#339,.T.);
#364=ADVANCED_FACE('',(#20),#340,.T.);
#365=ADVANCED_FACE('',(#21),#341,.T.);
#366=ADVANCED_FACE('',(#22),#342,.T.);
#367=ADVANCED_FACE('',(#23),#343,.F.);
#368=ADVANCED_FACE('',(#24),#344,.F.);
#369=ADVANCED_FACE('',(#25),#345,.F.);
#370=ADVANCED_FACE('',(#26),#346,.F.);
#371=ADVANCED_FACE('',(#27),#347,.F.);
#372=ADVANCED_FACE('',(#28),#348,.F.);
#373=ADVANCED_FACE('',(#29),#349,.F.);
#374=ADVANCED_FACE('',(#30),#350,.F.);
#375=ADVANCED_FACE('',(#31),#351,.F.);
#376=ADVANCED_FACE('',(#32),#352,.F.);
#377=ADVANCED_FACE('',(#33),#353,.F.);
#378=ADVANCED_FACE('',(#34),#354,.F.);
#379=ADVANCED_FACE('',(#35),#355,.F.);
#380=ADVANCED_FACE('',(#36),#356,.F.);
#381=ADVANCED_FACE('',(#37),#357,.F.);
#382=ADVANCED_FACE('',(#38),#358,.F.);
#383=ADVANCED_FACE('',(#39),#359,.F.);
#384=ADVANCED_FACE('',(#40),#360,.F.);
#385=CLOSED_SHELL('',(#361,#362,#363,#364,#365,#366));
#386=CLOSED_SHELL('',(#367,#368,#369,#370,#371,#372));
#387=CLOSED_SHELL('',(#373,#374,#375,#376,#377,#378));
#388=CLOSED_SHELL('',(#379,#380,#381,#382,#383,#384));
#389=BREP_WITH_VOIDS('Body2',#385,(#14,#15,#16));
#390=DERIVED_UNIT_ELEMENT(#392,1.);
#391=DERIVED_UNIT_ELEMENT(#635,-3.);
#392=(
MASS_UNIT()
NAMED_UNIT(*)
SI_UNIT(.KILO.,.GRAM.)
);
#393=DERIVED_UNIT((#390,#391));
#394=MEASURE_REPRESENTATION_ITEM('density measure',
POSITIVE_RATIO_MEASURE(7850.),#393);
#395=PROPERTY_DEFINITION_REPRESENTATION(#400,#397);
#396=PROPERTY_DEFINITION_REPRESENTATION(#401,#398);
#397=REPRESENTATION('material name',(#399),#632);
#398=REPRESENTATION('density',(#394),#632);
#399=DESCRIPTIVE_REPRESENTATION_ITEM('Steel','Steel');
#400=PROPERTY_DEFINITION('material property','material name',#642);
#401=PROPERTY_DEFINITION('material property','density of part',#642);
#402=AXIS2_PLACEMENT_3D('',#525,#427,#428);
#403=AXIS2_PLACEMENT_3D('',#526,#429,#430);
#404=AXIS2_PLACEMENT_3D('',#535,#435,#436);
#405=AXIS2_PLACEMENT_3D('',#541,#440,#441);
#406=AXIS2_PLACEMENT_3D('',#545,#444,#445);
#407=AXIS2_PLACEMENT_3D('',#549,#448,#449);
#408=AXIS2_PLACEMENT_3D('',#551,#451,#452);
#409=AXIS2_PLACEMENT_3D('',#552,#453,#454);
#410=AXIS2_PLACEMENT_3D('',#561,#459,#460);
#411=AXIS2_PLACEMENT_3D('',#567,#464,#465);
#412=AXIS2_PLACEMENT_3D('',#571,#468,#469);
#413=AXIS2_PLACEMENT_3D('',#575,#472,#473);
#414=AXIS2_PLACEMENT_3D('',#577,#475,#476);
#415=AXIS2_PLACEMENT_3D('',#578,#477,#478);
#416=AXIS2_PLACEMENT_3D('',#587,#483,#484);
#417=AXIS2_PLACEMENT_3D('',#593,#488,#489);
#418=AXIS2_PLACEMENT_3D('',#597,#492,#493);
#419=AXIS2_PLACEMENT_3D('',#601,#496,#497);
#420=AXIS2_PLACEMENT_3D('',#603,#499,#500);
#421=AXIS2_PLACEMENT_3D('',#604,#501,#502);
#422=AXIS2_PLACEMENT_3D('',#613,#507,#508);
#423=AXIS2_PLACEMENT_3D('',#619,#512,#513);
#424=AXIS2_PLACEMENT_3D('',#623,#516,#517);
#425=AXIS2_PLACEMENT_3D('',#627,#520,#521);
#426=AXIS2_PLACEMENT_3D('',#629,#523,#524);
#427=DIRECTION('axis',(0.,0.,1.));
#428=DIRECTION('refdir',(1.,0.,0.));
#429=DIRECTION('center_axis',(0.,0.,-1.));
#430=DIRECTION('ref_axis',(-1.,0.,0.));
#431=DIRECTION('',(0.,-1.,0.));
#432=DIRECTION('',(-1.,0.,0.));
#433=DIRECTION('',(0.,1.,0.));
#434=DIRECTION('',(1.,0.,0.));
#435=DIRECTION('center_axis',(0.,-1.,0.));
#436=DIRECTION('ref_axis',(1.,0.,0.));
#437=DIRECTION('',(0.,0.,-1.));
#438=DIRECTION('',(1.,0.,0.));
#439=DIRECTION('',(0.,0.,1.));
#440=DIRECTION('center_axis',(-1.,0.,0.));
#441=DIRECTION('ref_axis',(0.,-1.,0.));
#442=DIRECTION('',(0.,-1.,0.));
#443=DIRECTION('',(0.,0.,1.));
#444=DIRECTION('center_axis',(0.,1.,0.));
#445=DIRECTION('ref_axis',(-1.,0.,0.));
#446=DIRECTION('',(-1.,0.,0.));
#447=DIRECTION('',(0.,0.,1.));
#448=DIRECTION('center_axis',(1.,0.,0.));
#449=DIRECTION('ref_axis',(0.,1.,0.));
#450=DIRECTION('',(0.,1.,0.));
#451=DIRECTION('center_axis',(0.,0.,1.));
#452=DIRECTION('ref_axis',(1.,0.,0.));
#453=DIRECTION('center_axis',(0.,0.,-1.));
#454=DIRECTION('ref_axis',(-1.,0.,0.));
#455=DIRECTION('',(-1.,0.,0.));
#456=DIRECTION('',(0.,-1.,0.));
#457=DIRECTION('',(1.,0.,0.));
#458=DIRECTION('',(0.,1.,0.));
#459=DIRECTION('center_axis',(-1.,0.,0.));
#460=DIRECTION('ref_axis',(0.,-1.,0.));
#461=DIRECTION('',(0.,0.,-1.));
#462=DIRECTION('',(0.,0.,1.));
#463=DIRECTION('',(0.,-1.,0.));
#464=DIRECTION('center_axis',(0.,1.,0.));
#465=DIRECTION('ref_axis',(-1.,0.,0.));
#466=DIRECTION('',(0.,0.,1.));
#467=DIRECTION('',(-1.,0.,0.));
#468=DIRECTION('center_axis',(1.,0.,0.));
#469=DIRECTION('ref_axis',(0.,1.,0.));
#470=DIRECTION('',(0.,0.,1.));
#471=DIRECTION('',(0.,1.,0.));
#472=DIRECTION('center_axis',(0.,-1.,0.));
#473=DIRECTION('ref_axis',(1.,0.,0.));
#474=DIRECTION('',(1.,0.,0.));
#475=DIRECTION('center_axis',(0.,0.,1.));
#476=DIRECTION('ref_axis',(1.,0.,0.));
#477=DIRECTION('center_axis',(0.,0.,-1.));
#478=DIRECTION('ref_axis',(-1.,0.,0.));
#479=DIRECTION('',(-1.,0.,0.));
#480=DIRECTION('',(0.,-1.,0.));
#481=DIRECTION('',(1.,0.,0.));
#482=DIRECTION('',(0.,1.,0.));
#483=DIRECTION('center_axis',(-1.,0.,0.));
#484=DIRECTION('ref_axis',(0.,-1.,0.));
#485=DIRECTION('',(0.,0.,-1.));
#486=DIRECTION('',(0.,0.,1.));
#487=DIRECTION('',(0.,-1.,0.));
#488=DIRECTION('center_axis',(0.,1.,0.));
#489=DIRECTION('ref_axis',(-1.,0.,0.));
#490=DIRECTION('',(0.,0.,1.));
#491=DIRECTION('',(-1.,0.,0.));
#492=DIRECTION('center_axis',(1.,0.,0.));
#493=DIRECTION('ref_axis',(0.,1.,0.));
#494=DIRECTION('',(0.,0.,1.));
#495=DIRECTION('',(0.,1.,0.));
#496=DIRECTION('center_axis',(0.,-1.,0.));
#497=DIRECTION('ref_axis',(1.,0.,0.));
#498=DIRECTION('',(1.,0.,0.));
#499=DIRECTION('center_axis',(0.,0.,1.));
#500=DIRECTION('ref_axis',(1.,0.,0.));
#501=DIRECTION('center_axis',(0.,0.,-1.));
#502=DIRECTION('ref_axis',(-1.,0.,0.));
#503=DIRECTION('',(-1.,0.,0.));
#504=DIRECTION('',(0.,-1.,0.));
#505=DIRECTION('',(1.,0.,0.));
#506=DIRECTION('',(0.,1.,0.));
#507=DIRECTION('center_axis',(-1.,0.,0.));
#508=DIRECTION('ref_axis',(0.,-1.,0.));
#509=DIRECTION('',(0.,0.,-1.));
#510=DIRECTION('',(0.,0.,1.));
#511=DIRECTION('',(0.,-1.,0.));
#512=DIRECTION('center_axis',(0.,1.,0.));
#513=DIRECTION('ref_axis',(-1.,0.,0.));
#514=DIRECTION('',(0.,0.,1.));
#515=DIRECTION('',(-1.,0.,0.));
#516=DIRECTION('center_axis',(1.,0.,0.));
#517=DIRECTION('ref_axis',(0.,1.,0.));
#518=DIRECTION('',(0.,0.,1.));
#519=DIRECTION('',(0.,1.,0.));
#520=DIRECTION('center_axis',(0.,-1.,0.));
#521=DIRECTION('ref_axis',(1.,0.,0.));
#522=DIRECTION('',(1.,0.,0.));
#523=DIRECTION('center_axis',(0.,0.,1.));
#524=DIRECTION('ref_axis',(1.,0.,0.));
#525=CARTESIAN_POINT('',(0.,0.,0.));
#526=CARTESIAN_POINT('Origin',(0.,0.,-2.5));
#527=CARTESIAN_POINT('',(10.0000001490116,10.0000001490116,-2.5));
#528=CARTESIAN_POINT('',(10.0000001490116,-10.0000001490116,-2.5));
#529=CARTESIAN_POINT('',(10.0000001490116,-10.0000001490116,-2.5));
#530=CARTESIAN_POINT('',(-10.0000001490116,-10.0000001490116,-2.5));
#531=CARTESIAN_POINT('',(-10.0000001490116,-10.0000001490116,-2.5));
#532=CARTESIAN_POINT('',(-10.0000001490116,10.0000001490116,-2.5));
#533=CARTESIAN_POINT('',(-10.0000001490116,10.0000001490116,-2.5));
#534=CARTESIAN_POINT('',(10.0000001490116,10.0000001490116,-2.5));
#535=CARTESIAN_POINT('Origin',(-10.0000001490116,-10.0000001490116,0.));
#536=CARTESIAN_POINT('',(10.0000001490116,-10.0000001490116,2.5));
#537=CARTESIAN_POINT('',(10.0000001490116,-10.0000001490116,0.));
#538=CARTESIAN_POINT('',(-10.0000001490116,-10.0000001490116,2.5));
#539=CARTESIAN_POINT('',(-10.0000001490116,-10.0000001490116,2.5));
#540=CARTESIAN_POINT('',(-10.0000001490116,-10.0000001490116,0.));
#541=CARTESIAN_POINT('Origin',(-10.0000001490116,10.0000001490116,0.));
#542=CARTESIAN_POINT('',(-10.0000001490116,10.0000001490116,2.5));
#543=CARTESIAN_POINT('',(-10.0000001490116,10.0000001490116,2.5));
#544=CARTESIAN_POINT('',(-10.0000001490116,10.0000001490116,0.));
#545=CARTESIAN_POINT('Origin',(10.0000001490116,10.0000001490116,0.));
#546=CARTESIAN_POINT('',(10.0000001490116,10.0000001490116,2.5));
#547=CARTESIAN_POINT('',(10.0000001490116,10.0000001490116,2.5));
#548=CARTESIAN_POINT('',(10.0000001490116,10.0000001490116,0.));
#549=CARTESIAN_POINT('Origin',(10.0000001490116,-10.0000001490116,0.));
#550=CARTESIAN_POINT('',(10.0000001490116,-10.0000001490116,2.5));
#551=CARTESIAN_POINT('Origin',(0.,0.,2.5));
#552=CARTESIAN_POINT('Origin',(1.11290558520653,6.31584192143725,0.75));
#553=CARTESIAN_POINT('',(8.61290558520653,5.91584192143725,0.75));
#554=CARTESIAN_POINT('',(-6.38709441479347,5.91584192143725,0.75));
#555=CARTESIAN_POINT('',(8.61290558520653,5.91584192143725,0.75));
#556=CARTESIAN_POINT('',(8.61290558520653,6.71584192143725,0.75));
#557=CARTESIAN_POINT('',(8.61290558520653,6.71584192143725,0.75));
#558=CARTESIAN_POINT('',(-6.38709441479347,6.71584192143725,0.75));
#559=CARTESIAN_POINT('',(-6.38709441479347,6.71584192143725,0.75));
#560=CARTESIAN_POINT('',(-6.38709441479347,5.91584192143725,0.75));
#561=CARTESIAN_POINT('Origin',(-6.38709441479347,6.71584192143725,1.));
#562=CARTESIAN_POINT('',(-6.38709441479347,5.91584192143725,1.25));
#563=CARTESIAN_POINT('',(-6.38709441479347,5.91584192143725,1.));
#564=CARTESIAN_POINT('',(-6.38709441479347,6.71584192143725,1.25));
#565=CARTESIAN_POINT('',(-6.38709441479347,6.71584192143725,1.));
#566=CARTESIAN_POINT('',(-6.38709441479347,5.91584192143725,1.25));
#567=CARTESIAN_POINT('Origin',(8.61290558520653,6.71584192143725,1.));
#568=CARTESIAN_POINT('',(8.61290558520653,6.71584192143725,1.25));
#569=CARTESIAN_POINT('',(8.61290558520653,6.71584192143725,1.));
#570=CARTESIAN_POINT('',(-6.38709441479347,6.71584192143725,1.25));
#571=CARTESIAN_POINT('Origin',(8.61290558520653,5.91584192143725,1.));
#572=CARTESIAN_POINT('',(8.61290558520653,5.91584192143725,1.25));
#573=CARTESIAN_POINT('',(8.61290558520653,5.91584192143725,1.));
#574=CARTESIAN_POINT('',(8.61290558520653,6.71584192143725,1.25));
#575=CARTESIAN_POINT('Origin',(-6.38709441479347,5.91584192143725,1.));
#576=CARTESIAN_POINT('',(8.61290558520653,5.91584192143725,1.25));
#577=CARTESIAN_POINT('Origin',(1.11290558520653,6.31584192143725,1.25));
#578=CARTESIAN_POINT('Origin',(-0.30688358394162,0.456979006940291,-0.3));
#579=CARTESIAN_POINT('',(4.69311641605838,-0.0430209930597093,-0.3));
#580=CARTESIAN_POINT('',(-5.30688358394162,-0.0430209930597093,-0.3));
#581=CARTESIAN_POINT('',(4.69311641605838,-0.0430209930597093,-0.3));
#582=CARTESIAN_POINT('',(4.69311641605838,0.956979006940291,-0.3));
#583=CARTESIAN_POINT('',(4.69311641605838,0.956979006940291,-0.3));
#584=CARTESIAN_POINT('',(-5.30688358394162,0.956979006940291,-0.3));
#585=CARTESIAN_POINT('',(-5.30688358394162,0.956979006940291,-0.3));
#586=CARTESIAN_POINT('',(-5.30688358394162,-0.0430209930597093,-0.3));
#587=CARTESIAN_POINT('Origin',(-5.30688358394162,0.956979006940291,0.));
#588=CARTESIAN_POINT('',(-5.30688358394162,-0.0430209930597093,0.3));
#589=CARTESIAN_POINT('',(-5.30688358394162,-0.0430209930597093,0.));
#590=CARTESIAN_POINT('',(-5.30688358394162,0.956979006940291,0.3));
#591=CARTESIAN_POINT('',(-5.30688358394162,0.956979006940291,0.));
#592=CARTESIAN_POINT('',(-5.30688358394162,-0.0430209930597093,0.3));
#593=CARTESIAN_POINT('Origin',(4.69311641605838,0.956979006940291,0.));
#594=CARTESIAN_POINT('',(4.69311641605838,0.956979006940291,0.3));
#595=CARTESIAN_POINT('',(4.69311641605838,0.956979006940291,0.));
#596=CARTESIAN_POINT('',(-5.30688358394162,0.956979006940291,0.3));
#597=CARTESIAN_POINT('Origin',(4.69311641605838,-0.0430209930597093,0.));
#598=CARTESIAN_POINT('',(4.69311641605838,-0.0430209930597093,0.3));
#599=CARTESIAN_POINT('',(4.69311641605838,-0.0430209930597093,0.));
#600=CARTESIAN_POINT('',(4.69311641605838,0.956979006940291,0.3));
#601=CARTESIAN_POINT('Origin',(-5.30688358394162,-0.0430209930597093,0.));
#602=CARTESIAN_POINT('',(4.69311641605838,-0.0430209930597093,0.3));
#603=CARTESIAN_POINT('Origin',(-0.30688358394162,0.456979006940291,0.3));
#604=CARTESIAN_POINT('Origin',(-4.00000011920929,-6.40000008940697,-1.25));
#605=CARTESIAN_POINT('',(-1.19209289106692E-7,-6.80000008940697,-1.25));
#606=CARTESIAN_POINT('',(-8.00000011920929,-6.80000008940697,-1.25));
#607=CARTESIAN_POINT('',(-1.19209289106692E-7,-6.80000008940697,-1.25));
#608=CARTESIAN_POINT('',(-1.19209289106692E-7,-6.00000008940697,-1.25));
#609=CARTESIAN_POINT('',(-1.19209289106692E-7,-6.00000008940697,-1.25));
#610=CARTESIAN_POINT('',(-8.00000011920929,-6.00000008940697,-1.25));
#611=CARTESIAN_POINT('',(-8.00000011920929,-6.00000008940697,-1.25));
#612=CARTESIAN_POINT('',(-8.00000011920929,-6.80000008940697,-1.25));
#613=CARTESIAN_POINT('Origin',(-8.00000011920929,-6.00000008940697,-1.));
#614=CARTESIAN_POINT('',(-8.00000011920929,-6.80000008940697,-0.75));
#615=CARTESIAN_POINT('',(-8.00000011920929,-6.80000008940697,-1.));
#616=CARTESIAN_POINT('',(-8.00000011920929,-6.00000008940697,-0.75));
#617=CARTESIAN_POINT('',(-8.00000011920929,-6.00000008940697,-1.));
#618=CARTESIAN_POINT('',(-8.00000011920929,-6.80000008940697,-0.75));
#619=CARTESIAN_POINT('Origin',(-1.19209289106692E-7,-6.00000008940697,-1.));
#620=CARTESIAN_POINT('',(-1.19209289106692E-7,-6.00000008940697,-0.75));
#621=CARTESIAN_POINT('',(-1.19209289106692E-7,-6.00000008940697,-1.));
#622=CARTESIAN_POINT('',(-8.00000011920929,-6.00000008940697,-0.75));
#623=CARTESIAN_POINT('Origin',(-1.19209289106692E-7,-6.80000008940697,-1.));
#624=CARTESIAN_POINT('',(-1.19209289106692E-7,-6.80000008940697,-0.75));
#625=CARTESIAN_POINT('',(-1.19209289106692E-7,-6.80000008940697,-1.));
#626=CARTESIAN_POINT('',(-1.19209289106692E-7,-6.00000008940697,-0.75));
#627=CARTESIAN_POINT('Origin',(-8.00000011920929,-6.80000008940697,-1.));
#628=CARTESIAN_POINT('',(-1.19209289106692E-7,-6.80000008940697,-0.75));
#629=CARTESIAN_POINT('Origin',(-4.00000011920929,-6.40000008940697,-0.75));
#630=UNCERTAINTY_MEASURE_WITH_UNIT(LENGTH_MEASURE(0.01),#634,
'DISTANCE_ACCURACY_VALUE',
'Maximum model space distance between geometric entities at asserted c
onnectivities');
#631=UNCERTAINTY_MEASURE_WITH_UNIT(LENGTH_MEASURE(0.01),#634,
'DISTANCE_ACCURACY_VALUE',
'Maximum model space distance between geometric entities at asserted c
onnectivities');
#632=(
GEOMETRIC_REPRESENTATION_CONTEXT(3)
GLOBAL_UNCERTAINTY_ASSIGNED_CONTEXT((#630))
GLOBAL_UNIT_ASSIGNED_CONTEXT((#634,#636,#637))
REPRESENTATION_CONTEXT('','3D')
);
#633=(
GEOMETRIC_REPRESENTATION_CONTEXT(3)
GLOBAL_UNCERTAINTY_ASSIGNED_CONTEXT((#631))
GLOBAL_UNIT_ASSIGNED_CONTEXT((#634,#636,#637))
REPRESENTATION_CONTEXT('','3D')
);
#634=(
LENGTH_UNIT()
NAMED_UNIT(*)
SI_UNIT(.MILLI.,.METRE.)
);
#635=(
LENGTH_UNIT()
NAMED_UNIT(*)
SI_UNIT($,.METRE.)
);
#636=(
NAMED_UNIT(*)
PLANE_ANGLE_UNIT()
SI_UNIT($,.RADIAN.)
);
#637=(
NAMED_UNIT(*)
SI_UNIT($,.STERADIAN.)
SOLID_ANGLE_UNIT()
);
#638=SHAPE_DEFINITION_REPRESENTATION(#639,#640);
#639=PRODUCT_DEFINITION_SHAPE('',$,#642);
#640=SHAPE_REPRESENTATION('',(#402),#632);
#641=PRODUCT_DEFINITION_CONTEXT('part definition',#646,'design');
#642=PRODUCT_DEFINITION('SampleRayas','SampleRayas',#643,#641);
#643=PRODUCT_DEFINITION_FORMATION('',$,#648);
#644=PRODUCT_RELATED_PRODUCT_CATEGORY('SampleRayas','SampleRayas',(#648));
#645=APPLICATION_PROTOCOL_DEFINITION('international standard',
'automotive_design',2009,#646);
#646=APPLICATION_CONTEXT(
'Core Data for Automotive Mechanical Design Process');
#647=PRODUCT_CONTEXT('part definition',#646,'mechanical');
#648=PRODUCT('SampleRayas','SampleRayas',$,(#647));
#649=PRESENTATION_STYLE_ASSIGNMENT((#650));
#650=SURFACE_STYLE_USAGE(.BOTH.,#651);
#651=SURFACE_SIDE_STYLE('',(#652));
#652=SURFACE_STYLE_FILL_AREA(#653);
#653=FILL_AREA_STYLE('Steel - Satin',(#654));
#654=FILL_AREA_STYLE_COLOUR('Steel - Satin',#655);
#655=COLOUR_RGB('Steel - Satin',0.627450980392157,0.627450980392157,0.627450980392157);
ENDSEC;
END-ISO-10303-21;
